<svg width="260" height="115" viewBox="0 0 260 115" fill="none" xmlns="http://www.w3.org/2000/svg">
<path fill-rule="evenodd" clip-rule="evenodd" d="M47.0214 31.6788C47.0214 27.9899 47.6957 24.6454 49.1024 21.6934L49.3798 21.1388C50.7835 18.4322 52.7089 16.2465 55.161 14.6339C57.8105 12.8915 60.8615 12.047 64.2401 12.047C66.495 12.047 68.6482 12.4392 70.6835 13.2335L71.0741 13.3897C73.0094 14.1993 74.7218 15.3863 76.202 16.9327C77.801 18.5824 79.0153 20.6209 79.8778 22.9962L80.0429 23.4542C80.8375 25.7647 81.2118 28.3838 81.2118 31.2765V33.1944C81.2118 34.299 80.3164 35.1944 79.2118 35.1944H56.6854C56.8623 36.2106 57.143 37.1145 57.5155 37.9161C58.2061 39.3382 59.1473 40.3799 60.3368 41.1095C61.5214 41.836 62.9724 42.2374 64.7665 42.2374C66.0111 42.2374 67.0521 42.0511 67.9198 41.7198L67.9305 41.7149C68.826 41.3791 69.5328 40.9106 70.0907 40.3233L70.1083 40.3048C70.6791 39.7194 71.1126 38.9972 71.3964 38.0987L71.4598 37.9259C71.8121 37.0858 72.6967 36.5818 73.6122 36.7247L78.9638 37.5597C79.5219 37.6469 80.0171 37.9662 80.327 38.4386C80.637 38.9112 80.7323 39.4932 80.5897 40.0401C80.015 42.2434 78.965 44.1994 77.4501 45.8829L77.4511 45.8839C75.9598 47.5434 74.1123 48.8194 71.9491 49.7276L71.9501 49.7286C69.7716 50.6521 67.3659 51.0938 64.7665 51.0938C61.1836 51.0938 57.9869 50.2912 55.2645 48.5958L55.2538 48.589C52.5708 46.8944 50.5182 44.5499 49.1054 41.6085C47.6965 38.6752 47.0214 35.3488 47.0214 31.6788ZM60.1171 22.0255C61.2064 21.3044 62.5511 20.9034 64.2401 20.9034C65.9393 20.9034 67.2584 21.2981 68.2968 21.9903C69.3702 22.706 70.2155 23.7207 70.8192 25.1124C71.0189 25.5728 71.1864 26.0641 71.3251 26.586H56.8895C57.0375 26.0726 57.2208 25.5847 57.4432 25.1222L57.4471 25.1134C58.0796 23.782 58.9623 22.7736 60.1005 22.0362L60.1171 22.0255Z" fill="black"/>
<path fill-rule="evenodd" clip-rule="evenodd" d="M21.4296 0.261803C26.1955 0.261826 30.3919 1.23544 33.9325 3.28036L34.5887 3.67391C37.8235 5.69245 40.3278 8.49806 42.0897 12.0431C43.9687 15.8028 44.8661 20.2158 44.8661 25.214C44.8661 30.2562 43.957 34.7119 42.0565 38.5128L42.0555 38.5118C40.1702 42.3033 37.3991 45.2515 33.7665 47.3077C30.1225 49.3703 25.7853 50.3516 20.8417 50.3516H6.51941C5.41505 50.3514 4.51945 49.4561 4.51941 48.3516V2.2618C4.51941 1.15737 5.41503 0.262022 6.51941 0.261803H12.2421H21.4296ZM33.5927 16.5186C34.6629 18.8588 35.2362 21.7371 35.2362 25.214C35.2362 28.7305 34.6525 31.6501 33.5614 34.0323L33.5565 34.044C32.5037 36.3816 30.9333 38.1442 28.8251 39.3917C26.7398 40.6051 23.9936 41.2784 20.4706 41.2784H14.2421V9.33504H21.0272C24.353 9.33504 26.9614 10.0031 28.9647 11.212L28.9706 11.2159C31.0142 12.4386 32.5485 14.1783 33.5848 16.5011L33.5927 16.5186Z" fill="black"/>
<path fill-rule="evenodd" clip-rule="evenodd" d="M82.0995 88.3682C82.0995 87.3063 81.8799 86.5283 81.5389 85.9473C81.5359 85.9422 81.5331 85.9369 81.5302 85.9317C81.1837 85.3286 80.673 84.8396 79.9257 84.4659C79.203 84.1046 78.2096 83.8732 76.8612 83.8731C75.4862 83.8731 74.3891 84.0962 73.5194 84.4776C72.5688 84.8945 71.8747 85.4018 71.3768 85.9698L71.3778 85.9708C70.855 86.5705 70.5401 87.1693 70.3798 87.7706C70.1106 88.7794 69.1106 89.4114 68.0839 89.2218L62.7323 88.2315C62.1855 88.1304 61.7051 87.8065 61.4071 87.337C61.1091 86.8675 61.0198 86.2948 61.161 85.7569C61.7753 83.4179 62.8727 81.4059 64.4852 79.7891L64.7811 79.4972C66.2786 78.0603 68.0446 76.979 70.0546 76.2501C72.1655 75.4846 74.4086 75.1095 76.7684 75.1095C78.431 75.1095 80.087 75.3286 81.7323 75.7628C83.4681 76.1947 85.0624 76.9265 86.5018 77.9581C88.0449 79.0286 89.2448 80.471 90.1161 82.2266L90.287 82.5763C91.1137 84.344 91.4813 86.4032 91.4813 88.6778V111.352C91.4813 112.456 90.5859 113.352 89.4813 113.352H84.1298C83.1243 113.352 82.2943 112.609 82.1532 111.643C81.3828 112.187 80.5195 112.653 79.577 113.044C77.9245 113.73 75.9959 114.032 73.8602 114.032C71.432 114.032 69.1785 113.596 67.1356 112.683L67.118 112.675C65.0485 111.725 63.3652 110.325 62.119 108.481L62.1077 108.463L62.1024 108.455C60.8392 106.522 60.2606 104.235 60.2606 101.7C60.2607 99.5246 60.6751 97.555 61.6747 95.9444L61.6796 95.9366C62.6255 94.4282 63.9003 93.2421 65.4745 92.3995L66.0292 92.1095C67.3369 91.4557 68.7529 90.9631 70.2684 90.6241C71.491 90.3506 72.7308 90.1194 73.9872 89.9307L75.2489 89.7559C77.3063 89.468 78.9759 89.25 80.2518 89.1036C81.1905 88.9959 81.7527 88.8458 82.0536 88.7276C82.0617 88.6989 82.07 88.6651 82.077 88.6261C82.0912 88.5476 82.0995 88.4594 82.0995 88.3682ZM82.0995 97.3018V98.9171C82.0994 99.9694 81.8399 100.981 81.2938 101.977L81.288 101.986C80.8078 102.874 80.0545 103.648 78.9364 104.291C77.935 104.859 76.5679 105.206 74.7264 105.206C73.5356 105.206 72.5675 105.037 71.786 104.748C71.0374 104.451 70.5365 104.071 70.1962 103.647C69.9168 103.258 69.7352 102.746 69.7352 102.01C69.7352 101.077 69.9787 100.598 70.2411 100.32L70.2483 100.313L70.2597 100.301C70.6967 99.8253 71.3204 99.4126 72.2138 99.1095L72.2286 99.1043L72.244 99.0987C73.2538 98.7381 74.3394 98.4811 75.5048 98.3331L75.5038 98.3321C76.214 98.2484 77.0227 98.1451 77.9286 98.0216L77.9296 98.0225C78.8901 97.8945 79.8313 97.7448 80.7528 97.5733L80.7518 97.5723C81.2268 97.4859 81.6766 97.3966 82.0995 97.3018Z" fill="black"/>
<path d="M8.37586 63.2618L8.54481 63.2686C9.38396 63.3394 10.0968 63.933 10.3114 64.7598L17.705 93.2481C17.9856 94.3266 18.2538 95.4104 18.5136 96.4991C18.7838 95.41 19.058 94.3259 19.3388 93.2472L19.3407 93.2403L26.8573 64.752L26.9071 64.5899C27.1886 63.7993 27.9406 63.2618 28.7919 63.2618H35.3798C36.2893 63.2618 37.0851 63.876 37.3153 64.7559L44.7636 93.2227C44.9546 93.9498 45.4469 95.8299 45.6239 96.5616C45.8709 95.5499 46.1824 94.274 46.4296 93.2716C46.4313 93.2645 46.4336 93.2571 46.4354 93.2501L53.7977 64.7618L53.8466 64.5987C54.1255 63.8037 54.8795 63.2618 55.7343 63.2618H61.6112C62.2348 63.2619 62.8228 63.5531 63.2011 64.0489C63.5793 64.5447 63.7046 65.1886 63.5399 65.7901L50.9198 111.88C50.6818 112.749 49.8912 113.352 48.9901 113.352H42.3095C41.4066 113.352 40.6152 112.746 40.3788 111.875L32.3983 82.4581C32.2871 82.0474 32.1778 81.6323 32.0692 81.2149C31.9668 81.6108 31.8497 82.0633 31.7421 82.4591L23.7616 111.875C23.5252 112.746 22.7346 113.351 21.8319 113.352H15.119C14.217 113.352 13.4265 112.747 13.1893 111.877L0.630743 65.7872C0.467048 65.186 0.593271 64.5431 0.971563 64.0479C1.34994 63.5527 1.93717 63.2618 2.56043 63.2618H8.37586Z" fill="black"/>
<path fill-rule="evenodd" clip-rule="evenodd" d="M114.392 94.6788C114.392 90.9898 115.068 87.6454 116.474 84.6934L116.477 84.6876C117.901 81.7265 119.916 79.3541 122.532 77.6339C125.182 75.8913 128.233 75.047 131.612 75.047C133.867 75.047 136.02 75.4393 138.055 76.2335C140.151 77.0433 141.995 78.2831 143.574 79.9327C145.173 81.5824 146.387 83.6209 147.25 85.9962L147.414 86.4542C148.209 88.7647 148.583 91.3838 148.583 94.2765V96.1944C148.583 97.299 147.687 98.1944 146.583 98.1944H124.058C124.233 99.201 124.509 100.098 124.876 100.894L125.009 101.158C125.687 102.457 126.587 103.422 127.708 104.109C128.893 104.836 130.343 105.237 132.138 105.237C133.382 105.237 134.423 105.051 135.291 104.72L135.302 104.715C136.197 104.379 136.904 103.911 137.462 103.323L137.465 103.32L137.472 103.313L137.48 103.305C138.051 102.719 138.485 101.997 138.768 101.099L138.831 100.926C139.183 100.086 140.068 99.5819 140.983 99.7247L146.335 100.56C146.893 100.647 147.389 100.966 147.699 101.439C148.009 101.911 148.104 102.493 147.962 103.04C147.387 105.243 146.337 107.199 144.822 108.883C143.331 110.543 141.484 111.819 139.32 112.728C137.142 113.651 134.737 114.094 132.138 114.094C128.555 114.094 125.358 113.291 122.636 111.596L122.625 111.589C119.942 109.894 117.89 107.55 116.477 104.608C115.069 101.675 114.392 98.3488 114.392 94.6788ZM127.488 85.0255C128.578 84.3043 129.923 83.9034 131.612 83.9034C133.311 83.9035 134.63 84.2983 135.668 84.9903C136.741 85.7059 137.587 86.7208 138.19 88.1124C138.39 88.5728 138.558 89.064 138.697 89.586H124.261C124.409 89.0724 124.593 88.5848 124.815 88.1222L124.819 88.1134C125.452 86.7821 126.334 85.7736 127.472 85.0362L127.488 85.0255Z" fill="black"/>
<path d="M109.248 104.835C109.596 104.835 110.017 104.818 110.516 104.779H110.522C111.047 104.741 111.511 104.692 111.916 104.637L112.113 104.62C112.574 104.603 113.028 104.746 113.398 105.028C113.821 105.351 114.099 105.828 114.169 106.355L114.787 110.994C114.928 112.05 114.216 113.032 113.169 113.226C112.538 113.342 111.846 113.431 111.098 113.497L111.099 113.498C110.362 113.565 109.642 113.599 108.938 113.599C105.723 113.599 102.939 112.811 100.902 110.937L100.892 110.928C98.8559 109.029 97.9677 106.393 97.9677 103.34V84.2745H94.4921C93.3877 84.2742 92.4921 83.3789 92.4921 82.2745V77.6348C92.4921 76.5305 93.3877 75.6351 94.4921 75.6348H97.9677V69.0977C97.9677 67.9932 98.8631 67.0977 99.9677 67.0977H105.381C106.485 67.0977 107.381 67.9932 107.381 69.0977V75.6348H112.279C113.384 75.635 114.279 76.5304 114.279 77.6348V82.2745C114.279 83.379 113.384 84.2743 112.279 84.2745H107.381V102.845C107.381 103.997 107.613 104.417 107.694 104.524C107.762 104.585 108.116 104.835 109.248 104.835Z" fill="black"/>
<path d="M172.185 82.7081C172.185 83.3238 171.901 83.9053 171.416 84.2843C170.931 84.6632 170.297 84.7978 169.7 84.6485L169.695 84.6477C169.674 84.6437 169.603 84.6301 169.456 84.6075C169.277 84.58 169.034 84.5462 168.723 84.5059C168.747 84.51 168.698 84.5028 168.723 84.5059C168.233 84.4244 167.581 84.3673 166.906 84.3673C165.77 84.3673 164.777 84.6157 163.89 85.0899L163.878 85.0968C163.051 85.5321 162.383 86.1664 161.863 87.0499C161.393 87.8811 161.111 88.9631 161.111 90.379V111.352C161.111 112.456 160.216 113.352 159.111 113.352H153.698C152.594 113.352 151.698 112.456 151.698 111.352V77.6348C151.698 76.5303 152.594 75.6348 153.698 75.6348H158.894C159.887 75.6348 160.708 76.3585 160.865 77.3067C160.965 77.2315 161.068 77.1583 161.172 77.086C163.038 75.7638 165.229 75.1398 167.648 75.1397C168.113 75.1397 168.605 75.1513 169.124 75.1729C169.643 75.1946 170.111 75.2291 170.489 75.2872C171.465 75.4373 172.185 76.2767 172.185 77.2638V82.7081Z" fill="black"/>
<path d="M184.785 104.712C185.17 104.712 185.454 104.702 185.652 104.687L185.664 104.686C185.898 104.669 186.081 104.646 186.222 104.62L186.424 104.594C186.896 104.557 187.369 104.69 187.756 104.971C188.198 105.292 188.489 105.781 188.561 106.322L189.181 110.931C189.319 111.96 188.646 112.924 187.632 113.149C187.156 113.255 186.631 113.325 186.069 113.371C185.484 113.44 184.891 113.476 184.29 113.476C181.263 113.476 178.608 112.799 176.794 111.014L176.789 111.01L176.788 111.009C176.786 111.007 176.784 111.005 176.782 111.003C174.993 109.214 174.279 106.684 174.279 103.804V65.2618C174.279 64.1572 175.175 63.2618 176.279 63.2618H181.692C182.797 63.262 183.692 64.1574 183.692 65.2618V102.783C183.692 103.455 183.739 103.949 183.807 104.293C183.838 104.445 183.87 104.548 183.892 104.611C184.037 104.658 184.316 104.712 184.785 104.712Z" fill="black"/>
<path fill-rule="evenodd" clip-rule="evenodd" d="M220.655 104.86L220.653 104.862L220.656 104.858L220.659 104.855C220.668 104.842 220.683 104.82 220.706 104.789C220.752 104.727 220.825 104.63 220.921 104.512C221.116 104.272 221.395 103.956 221.733 103.646C222.479 102.961 223.186 102.602 223.729 102.602C224.272 102.602 224.98 102.961 225.726 103.646C226.064 103.955 226.343 104.272 226.538 104.512C226.634 104.63 226.707 104.727 226.753 104.789C226.775 104.82 226.791 104.842 226.8 104.855L226.804 104.858C226.805 104.861 226.806 104.864 226.808 104.867L226.839 104.912L226.855 104.936L226.856 104.938C226.88 104.974 226.911 105.02 226.949 105.075C227.044 105.214 227.182 105.412 227.352 105.652C227.693 106.133 228.173 106.791 228.73 107.5C229.786 108.842 231.323 110.635 232.794 111.58L232.803 111.586L232.811 111.591C235.497 113.278 238.576 114.094 241.979 114.094C245.419 114.094 248.514 113.281 251.186 111.587L251.19 111.584C253.846 109.892 255.9 107.556 257.351 104.631C258.81 101.691 259.508 98.3451 259.508 94.6475C259.508 90.8939 258.811 87.509 257.353 84.547C255.905 81.605 253.855 79.2662 251.197 77.5919C248.523 75.8729 245.424 75.047 241.979 75.047C238.572 75.047 235.49 75.875 232.805 77.585C231.325 78.5229 229.784 80.3229 228.729 81.6661C228.171 82.377 227.691 83.0375 227.35 83.5196C227.18 83.7612 227.042 83.9593 226.947 84.0987C226.912 84.1506 226.882 84.1948 226.859 84.2299L226.858 84.2313L226.837 84.2628L226.807 84.3077L226.801 84.3156L226.798 84.3204L226.796 84.3243L226.794 84.3263L226.793 84.3282L226.786 84.338C226.778 84.35 226.762 84.3723 226.74 84.4034C226.696 84.4658 226.625 84.5626 226.53 84.6817C226.338 84.9232 226.063 85.2412 225.728 85.5528C224.993 86.2385 224.287 86.6026 223.729 86.6026C222.986 86.6026 222.368 86.307 221.844 85.8634C221.298 85.4016 220.936 84.8424 220.791 84.547C220.753 84.4701 220.71 84.3947 220.663 84.3233L220.662 84.3214L220.659 84.3175L220.656 84.3125L220.65 84.3048L220.62 84.2598L220.607 84.2402C220.582 84.2034 220.55 84.1552 220.51 84.0968C220.414 83.9573 220.277 83.7583 220.105 83.5167C219.763 83.0344 219.28 82.3735 218.719 81.6622C217.662 80.3232 216.121 78.5321 214.635 77.5919C211.961 75.8729 208.861 75.047 205.417 75.047C202.009 75.047 198.928 75.875 196.242 77.585C193.598 79.2611 191.554 81.6033 190.105 84.547C188.648 87.509 187.951 90.8939 187.951 94.6475C187.951 98.3451 188.65 101.691 190.108 104.631C191.557 107.552 193.598 109.887 196.231 111.58L196.241 111.586L196.249 111.591C198.934 113.278 202.013 114.094 205.417 114.094C208.856 114.094 211.951 113.281 214.624 111.587L214.628 111.584C216.111 110.639 217.656 108.846 218.718 107.503C219.278 106.794 219.761 106.136 220.103 105.655C220.275 105.415 220.411 105.217 220.507 105.078C220.554 105.009 220.592 104.953 220.618 104.915L220.648 104.87L220.655 104.86ZM212.461 88.9054C213.101 90.5584 213.439 92.463 213.439 94.6475C213.439 96.7869 213.102 98.659 212.464 100.291C211.843 101.877 210.944 103.068 209.785 103.937C208.712 104.742 207.3 105.206 205.417 105.206C203.588 105.206 202.197 104.748 201.118 103.941C199.978 103.074 199.076 101.881 198.433 100.291C197.795 98.659 197.457 96.787 197.457 94.6475C197.457 92.5994 197.755 90.7973 198.319 89.2179L198.435 88.9054C199.08 87.2915 199.985 86.0921 201.122 85.2276L201.126 85.2257C202.205 84.4014 203.593 83.9347 205.417 83.9347C207.292 83.9347 208.699 84.4062 209.771 85.2257L209.779 85.2308L209.785 85.2354C210.939 86.1006 211.839 87.2977 212.461 88.9054ZM249.023 88.9054C249.663 90.5584 250.002 92.463 250.002 94.6475C250.002 96.7869 249.665 98.659 249.026 100.291C248.406 101.877 247.506 103.068 246.348 103.937C245.274 104.742 243.863 105.206 241.979 105.206C240.151 105.206 238.759 104.748 237.681 103.941C236.541 103.074 235.639 101.881 234.996 100.291C234.357 98.659 234.019 96.787 234.019 94.6475C234.019 92.5994 234.317 90.7973 234.882 89.2179L234.998 88.9054C235.643 87.2915 236.548 86.0921 237.684 85.2276L237.688 85.2257C238.767 84.4014 240.155 83.9347 241.979 83.9347C243.855 83.9347 245.261 84.4062 246.334 85.2257L246.341 85.2308L246.348 85.2354C247.501 86.1006 248.401 87.2977 249.023 88.9054Z" fill="black"/>
<path d="M177.413 14.6954C177.497 14.6338 177.581 14.5729 177.666 14.5138C179.974 12.8935 182.652 12.1095 185.62 12.1095C188.182 12.1095 190.54 12.6589 192.642 13.8077C194.801 14.9551 196.471 16.6821 197.651 18.9151C198.883 21.2071 199.436 23.9823 199.436 27.1319V48.3516C199.436 49.4562 198.541 50.3516 197.436 50.3516H192.023C190.919 50.3516 190.023 49.4561 190.023 48.3516V27.5645C190.023 25.1444 189.417 23.6027 188.496 22.627L188.487 22.6173C187.555 21.6159 186.231 21.0275 184.26 21.0274C182.928 21.0274 181.78 21.3108 180.774 21.8448L180.764 21.8507C179.833 22.3381 179.061 23.083 178.451 24.1593C177.905 25.1373 177.567 26.4929 177.567 28.338V48.3516C177.567 49.4562 176.672 50.3516 175.567 50.3516H170.154C169.05 50.3516 168.154 49.4562 168.154 48.3516V14.6348C168.154 13.5303 169.05 12.6348 170.154 12.6348H175.413C176.517 12.6351 177.413 13.5304 177.413 14.6348V14.6954Z" fill="black"/>
<path fill-rule="evenodd" clip-rule="evenodd" d="M146.521 55.1368C148.983 55.1368 150.75 54.5173 152.017 53.464L152.028 53.4552C153.156 52.5309 153.863 51.0709 153.863 48.6915V47.5802C153.015 48.2625 152.05 48.8393 150.983 49.3136C150.975 49.3171 150.967 49.3199 150.959 49.3233C149.344 50.0155 147.471 50.3204 145.408 50.3204C142.264 50.3204 139.396 49.5527 136.865 47.9766L136.857 47.9727C134.344 46.393 132.404 44.1454 131.02 41.3097L131.015 41.2979C129.641 38.4349 128.993 35.1151 128.993 31.4005C128.993 27.6846 129.642 24.3496 131.01 21.4522C132.368 18.5538 134.303 16.2431 136.831 14.5977C139.369 12.9246 142.272 12.1095 145.47 12.1095C147.525 12.1095 149.401 12.4277 151.035 13.1427C152.13 13.6215 153.119 14.2124 153.987 14.9229V14.6348C153.987 13.5303 154.883 12.6348 155.987 12.6348H161.276C162.381 12.6348 163.276 13.5303 163.276 14.6348V48.8468C163.276 52.198 162.545 55.1256 160.91 57.4688C159.338 59.7418 157.224 61.4025 154.617 62.4307L154.616 62.4298C152.129 63.4189 149.423 63.9005 146.521 63.9005C143.824 63.9005 141.367 63.5244 139.184 62.7266L139.178 62.7247C137.047 61.9372 135.212 60.8126 133.724 59.3243C132.261 57.8614 131.213 56.1381 130.599 54.1759C130.275 53.137 130.841 52.0288 131.873 51.6827L136.761 50.044L136.943 49.9913C137.862 49.7769 138.819 50.2376 139.217 51.1124C139.525 51.7901 139.975 52.4469 140.593 53.0811C141.134 53.6375 141.873 54.1363 142.863 54.546C143.747 54.9118 144.944 55.1368 146.521 55.1368ZM153.057 25.6417C153.698 27.182 154.049 29.0655 154.049 31.339C154.049 33.6087 153.699 35.4895 153.06 37.0284C152.431 38.5259 151.551 39.6027 150.446 40.3507C149.365 41.0622 148.007 41.4639 146.274 41.464C144.566 41.464 143.216 41.0646 142.132 40.3507C141.026 39.6019 140.136 38.5231 139.486 37.0255C138.851 35.5129 138.499 33.6349 138.499 31.339C138.499 29.0745 138.847 27.1825 139.486 25.6202C140.146 24.0577 141.043 22.9269 142.146 22.1388C143.222 21.3846 144.566 20.9659 146.274 20.9659C148.006 20.966 149.339 21.3966 150.386 22.1593C150.391 22.1634 150.397 22.1675 150.403 22.1716L150.412 22.1778C151.528 22.964 152.418 24.0863 153.055 25.6339L153.057 25.6417Z" fill="black"/>
<path d="M125.724 48.3516C125.723 49.4562 124.828 50.3516 123.724 50.3516H118.31C117.206 50.3515 116.31 49.4561 116.31 48.3516V14.6348C116.31 13.5304 117.206 12.635 118.31 12.6348H123.724C124.828 12.6348 125.723 13.5303 125.724 14.6348V48.3516Z" fill="black"/>
<path d="M125.972 8.26278C125.972 9.36729 125.076 10.2627 123.972 10.2628H118.095C116.99 10.2628 116.095 9.36734 116.095 8.26278V2.2618C116.095 1.15723 116.99 0.261803 118.095 0.261803H123.972L124.176 0.272545C125.184 0.37487 125.972 1.2262 125.972 2.2618V8.26278Z" fill="black"/>
<path d="M89.9335 36.6397C90.9084 36.6028 91.7815 37.2821 91.9706 38.2589C92.2636 39.7728 92.8887 40.7101 93.7304 41.3057C94.64 41.9494 95.9512 42.3614 97.8329 42.3614C99.8967 42.3614 101.3 41.922 102.236 41.2511C103.2 40.5609 103.473 39.9049 103.474 39.2266C103.474 38.5813 103.27 38.1561 102.852 37.7882L102.833 37.7706C102.303 37.2909 101.419 36.8284 100.013 36.504L100.006 36.503L94.4686 35.2032L94.4559 35.2003C91.1762 34.4079 88.4807 33.135 86.5829 31.2374C84.6208 29.2753 83.6767 26.767 83.6766 23.8839C83.6766 21.5758 84.3176 19.4656 85.622 17.6241L85.6327 17.6085C86.8526 15.9194 88.4738 14.6125 90.4374 13.671L90.8348 13.4874C93.0079 12.5102 95.4372 12.047 98.0809 12.047C100.615 12.047 102.927 12.4774 104.968 13.4005C106.973 14.2869 108.629 15.5685 109.88 17.2589C111.143 18.9186 111.951 20.852 112.331 23.0118C112.425 23.5463 112.298 24.0965 111.978 24.5352C111.659 24.9739 111.175 25.2639 110.638 25.339L105.533 26.0499C104.472 26.1977 103.483 25.4836 103.29 24.4298C103.107 23.4295 102.624 22.5608 101.759 21.7862C101.754 21.782 101.749 21.7778 101.744 21.7735C101.052 21.1426 99.9294 20.6866 98.0809 20.6866C96.3572 20.6866 95.1384 21.0931 94.2655 21.7442L94.2616 21.7472C93.422 22.3701 93.1522 22.9905 93.1522 23.6983C93.1523 24.3996 93.3707 24.8324 93.787 25.1876C94.3866 25.6791 95.4279 26.1814 97.0907 26.5782L102.344 27.8145H102.347C105.674 28.6027 108.395 29.8641 110.248 31.7686C112.142 33.6937 113.042 36.1557 113.042 38.9786C113.042 41.3988 112.353 43.5959 110.948 45.4884C109.593 47.3201 107.743 48.7012 105.486 49.6651C103.216 50.6346 100.673 51.0938 97.8954 51.0938C95.3399 51.0938 92.9768 50.7015 90.8358 49.878L90.829 49.8751C88.6762 49.0379 86.8623 47.7612 85.4354 46.0391L85.428 46.0303C85.4239 46.0255 85.4198 46.0206 85.4159 46.0157C83.9797 44.2268 83.1275 42.0666 82.7977 39.6173C82.6505 38.5238 83.4164 37.5172 84.5097 37.3682L89.7372 36.6573L89.9335 36.6397Z" fill="black"/>
</svg>
