<svg width="429" height="112" viewBox="0 0 429 112" fill="none" xmlns="http://www.w3.org/2000/svg">
<mask id="path-1-outside-1_600_18" maskUnits="userSpaceOnUse" x="3.4812" y="4" width="129" height="104" fill="black">
<rect fill="white" x="3.4812" y="4" width="129" height="104"/>
<path fill-rule="evenodd" clip-rule="evenodd" d="M52.6095 13.14C43.6423 10.4521 36.8293 11.5263 33.0628 15.2927C31.0935 17.262 29.8602 20.0641 29.5158 23.5715C31.726 23.8634 33.9785 24.3611 36.2312 25.0363C39.9075 26.1382 43.7061 27.7403 47.5186 29.8015C48.5994 28.6006 49.7238 27.4149 50.8905 26.2482C54.3887 22.75 58.0578 19.6318 61.7928 16.9335C58.6489 15.295 55.5597 14.0242 52.6095 13.14ZM68.0861 12.8169C63.5128 10.1279 58.9285 8.08732 54.5201 6.76597C44.5987 3.79217 34.683 4.26215 28.3576 10.5875C24.9546 13.9906 23.2463 18.4328 22.8573 23.356C17.9261 23.742 13.4764 25.4502 10.0687 28.8579C3.74335 35.1833 3.27337 45.099 6.24717 55.0204C9.26502 65.0887 16.0345 76.0746 25.7117 85.7518C35.3889 95.429 46.3748 102.198 56.4431 105.216C60.2054 106.344 63.9669 106.977 67.5321 106.982C71.4127 107.117 75.5553 106.476 79.6989 105.234C89.7672 102.216 100.753 95.4467 110.43 85.7695C120.108 76.0923 126.877 65.1064 129.895 55.0381C132.869 45.1167 132.399 35.201 126.073 28.8756C122.666 25.4679 118.216 23.7597 113.285 23.3737C112.896 18.4505 111.187 14.0083 107.784 10.6052C101.459 4.27985 91.5433 3.80987 81.622 6.78367C77.2233 8.10213 72.6494 10.1366 68.0861 12.8169ZM68.0843 20.6658C63.854 23.4803 59.625 26.9241 55.5957 30.9534C54.8206 31.7285 54.0672 32.511 53.3357 33.2995C58.0075 36.396 62.6171 40.1552 66.9627 44.5008C67.3394 44.8775 67.7117 45.2563 68.0796 45.6368C68.4419 45.2622 68.8085 44.8894 69.1794 44.5185C73.5313 40.1666 78.1479 36.4027 82.8267 33.3037C82.0889 32.5078 81.3286 31.718 80.5463 30.9357C76.5255 26.9149 72.3058 23.477 68.0843 20.6658ZM88.6448 29.8076C87.5576 28.5986 86.426 27.4049 85.2515 26.2305C81.7623 22.7412 78.1029 19.63 74.3777 16.9364C77.5118 15.305 80.5912 14.0393 83.5325 13.1577C92.4998 10.4698 99.3128 11.544 103.079 15.3104C105.049 17.2797 106.282 20.0818 106.626 23.5892C104.416 23.8811 102.164 24.3788 99.9108 25.054C96.2415 26.1539 92.4502 27.752 88.6448 29.8076ZM87.1889 38.4013C82.6873 41.3104 78.1728 44.9355 73.8846 49.2237C73.4289 49.6794 72.9808 50.1376 72.5402 50.598C76.9484 55.8779 80.5182 61.3897 83.1295 66.8174C84.584 65.5496 86.0225 64.2078 87.4363 62.794C90.6915 59.5388 93.5646 56.1533 96.0324 52.742C93.9189 48.0527 90.9495 43.1752 87.1889 38.4013ZM100.245 46.2251C98.2629 42.4791 95.8349 38.7144 93.0004 35.0342C96.0193 33.4859 98.9846 32.2783 101.821 31.428C103.382 30.9604 104.877 30.6066 106.302 30.3611C106.056 31.7909 105.701 33.2912 105.232 34.8572C104.144 38.4883 102.47 42.33 100.245 46.2251ZM98.7139 60.189C96.7056 62.6824 94.5107 65.13 92.1415 67.4992C90.0796 69.5611 87.9583 71.4909 85.7992 73.2807C86.0238 73.9346 86.2333 74.5853 86.4272 75.2323C87.1044 77.4918 87.6031 79.7511 87.8946 81.9677C91.4094 81.6255 94.217 80.3914 96.1892 78.4192C99.7691 74.8393 100.917 68.5072 98.7139 60.189ZM88.1059 88.6263C93.0371 88.2403 97.4868 86.5321 100.894 83.1244C107.22 76.799 107.69 66.8833 104.716 56.9619C104.378 55.8327 103.992 54.6918 103.56 53.5426C107.249 47.9172 109.975 42.2085 111.606 36.7677C112.283 34.5082 112.782 32.2489 113.073 30.0323C116.588 30.3745 119.396 31.6086 121.368 33.5808C125.135 37.3473 126.209 44.1603 123.521 53.1276C120.877 61.9478 114.779 72.0103 105.725 81.0643C99.5872 87.2023 92.9857 91.9818 86.6219 95.2474C87.4401 93.1882 87.9214 90.9614 88.1059 88.6263ZM81.1228 81.6389C80.8995 80.339 80.5861 78.9808 80.1782 77.5679C78.7649 78.5558 77.3435 79.4834 75.9199 80.3485C76.1617 80.4256 76.4025 80.5001 76.6425 80.572C78.2027 81.0396 79.6977 81.3934 81.1228 81.6389ZM68.0909 84.469C70.3325 85.4646 72.5537 86.2931 74.732 86.946C76.9847 87.6212 79.2372 88.1189 81.4474 88.4108C81.103 91.9182 79.8697 94.7203 77.9004 96.6895C75.5825 99.0074 72.1109 100.306 67.6934 100.335C63.6344 100.17 60.4258 98.8914 58.2417 96.7073C56.2724 94.738 55.0391 91.9359 54.6947 88.4285C56.9049 88.1366 59.1573 87.6389 61.4101 86.9637C63.6012 86.3069 65.8358 85.4725 68.0909 84.469ZM68.0885 77.1019C71.2872 75.4783 74.5485 73.471 77.7828 71.0998C75.516 66.0474 72.2542 60.7742 68.0782 55.6457C63.9027 60.7708 60.6401 66.0407 58.3712 71.0909C61.6134 73.4669 64.8825 75.4772 68.0885 77.1019ZM55.9723 77.5561C57.3955 78.5506 58.8268 79.484 60.2604 80.354C60.0058 80.4354 59.7522 80.514 59.4995 80.5897C57.9393 81.0573 56.4443 81.4111 55.0192 81.6566C55.2441 80.3476 55.5603 78.9796 55.9723 77.5561ZM53.0245 66.8102C55.6379 61.384 59.2089 55.8743 63.6176 50.5968C63.172 50.1308 62.7185 49.6671 62.2575 49.206C57.9751 44.9237 53.4671 41.3026 48.9717 38.3955C45.2081 43.1695 42.2358 48.0476 40.1195 52.7379C42.5851 56.1446 45.4549 59.5254 48.7057 62.7763C50.1235 64.194 51.5659 65.5393 53.0245 66.8102ZM37.4353 60.18C39.4416 62.6704 41.6341 65.1151 44.0005 67.4815C46.0654 69.5464 48.1899 71.4789 50.3524 73.2708C50.1241 73.934 49.9115 74.5939 49.7149 75.25C49.0376 77.5095 48.539 79.7688 48.2474 81.9854C44.7326 81.6432 41.925 80.4091 39.9528 78.4369C36.3691 74.8532 35.2228 68.5113 37.4353 60.18ZM35.9064 46.2245C37.8917 42.4758 40.323 38.7088 43.1613 35.0266C40.1356 33.4734 37.1636 32.2624 34.3207 31.4103C32.7605 30.9427 31.2654 30.5889 29.8403 30.3434C30.086 31.7732 30.4406 33.2735 30.91 34.8395C32 38.4759 33.6771 42.3235 35.9064 46.2245ZM23.0686 30.0146C23.3601 32.2312 23.8588 34.4905 24.536 36.75C26.1681 42.195 28.8973 47.9083 32.5903 53.5378C32.1552 54.6947 31.7667 55.843 31.426 56.9796C28.4522 66.901 28.9222 76.8167 35.2476 83.1421C38.6553 86.5498 43.105 88.258 48.0362 88.644C48.2194 90.9623 48.6951 93.1739 49.5025 95.2206C43.1442 91.9552 36.5492 87.179 30.4169 81.0466C21.3629 71.9926 15.2649 61.9301 12.6212 53.1098C9.93333 44.1426 11.0075 37.3295 14.7739 33.5631C16.7462 31.5909 19.5538 30.3568 23.0686 30.0146Z"/>
</mask>
<path fill-rule="evenodd" clip-rule="evenodd" d="M52.6095 13.14C43.6423 10.4521 36.8293 11.5263 33.0628 15.2927C31.0935 17.262 29.8602 20.0641 29.5158 23.5715C31.726 23.8634 33.9785 24.3611 36.2312 25.0363C39.9075 26.1382 43.7061 27.7403 47.5186 29.8015C48.5994 28.6006 49.7238 27.4149 50.8905 26.2482C54.3887 22.75 58.0578 19.6318 61.7928 16.9335C58.6489 15.295 55.5597 14.0242 52.6095 13.14ZM68.0861 12.8169C63.5128 10.1279 58.9285 8.08732 54.5201 6.76597C44.5987 3.79217 34.683 4.26215 28.3576 10.5875C24.9546 13.9906 23.2463 18.4328 22.8573 23.356C17.9261 23.742 13.4764 25.4502 10.0687 28.8579C3.74335 35.1833 3.27337 45.099 6.24717 55.0204C9.26502 65.0887 16.0345 76.0746 25.7117 85.7518C35.3889 95.429 46.3748 102.198 56.4431 105.216C60.2054 106.344 63.9669 106.977 67.5321 106.982C71.4127 107.117 75.5553 106.476 79.6989 105.234C89.7672 102.216 100.753 95.4467 110.43 85.7695C120.108 76.0923 126.877 65.1064 129.895 55.0381C132.869 45.1167 132.399 35.201 126.073 28.8756C122.666 25.4679 118.216 23.7597 113.285 23.3737C112.896 18.4505 111.187 14.0083 107.784 10.6052C101.459 4.27985 91.5433 3.80987 81.622 6.78367C77.2233 8.10213 72.6494 10.1366 68.0861 12.8169ZM68.0843 20.6658C63.854 23.4803 59.625 26.9241 55.5957 30.9534C54.8206 31.7285 54.0672 32.511 53.3357 33.2995C58.0075 36.396 62.6171 40.1552 66.9627 44.5008C67.3394 44.8775 67.7117 45.2563 68.0796 45.6368C68.4419 45.2622 68.8085 44.8894 69.1794 44.5185C73.5313 40.1666 78.1479 36.4027 82.8267 33.3037C82.0889 32.5078 81.3286 31.718 80.5463 30.9357C76.5255 26.9149 72.3058 23.477 68.0843 20.6658ZM88.6448 29.8076C87.5576 28.5986 86.426 27.4049 85.2515 26.2305C81.7623 22.7412 78.1029 19.63 74.3777 16.9364C77.5118 15.305 80.5912 14.0393 83.5325 13.1577C92.4998 10.4698 99.3128 11.544 103.079 15.3104C105.049 17.2797 106.282 20.0818 106.626 23.5892C104.416 23.8811 102.164 24.3788 99.9108 25.054C96.2415 26.1539 92.4502 27.752 88.6448 29.8076ZM87.1889 38.4013C82.6873 41.3104 78.1728 44.9355 73.8846 49.2237C73.4289 49.6794 72.9808 50.1376 72.5402 50.598C76.9484 55.8779 80.5182 61.3897 83.1295 66.8174C84.584 65.5496 86.0225 64.2078 87.4363 62.794C90.6915 59.5388 93.5646 56.1533 96.0324 52.742C93.9189 48.0527 90.9495 43.1752 87.1889 38.4013ZM100.245 46.2251C98.2629 42.4791 95.8349 38.7144 93.0004 35.0342C96.0193 33.4859 98.9846 32.2783 101.821 31.428C103.382 30.9604 104.877 30.6066 106.302 30.3611C106.056 31.7909 105.701 33.2912 105.232 34.8572C104.144 38.4883 102.47 42.33 100.245 46.2251ZM98.7139 60.189C96.7056 62.6824 94.5107 65.13 92.1415 67.4992C90.0796 69.5611 87.9583 71.4909 85.7992 73.2807C86.0238 73.9346 86.2333 74.5853 86.4272 75.2323C87.1044 77.4918 87.6031 79.7511 87.8946 81.9677C91.4094 81.6255 94.217 80.3914 96.1892 78.4192C99.7691 74.8393 100.917 68.5072 98.7139 60.189ZM88.1059 88.6263C93.0371 88.2403 97.4868 86.5321 100.894 83.1244C107.22 76.799 107.69 66.8833 104.716 56.9619C104.378 55.8327 103.992 54.6918 103.56 53.5426C107.249 47.9172 109.975 42.2085 111.606 36.7677C112.283 34.5082 112.782 32.2489 113.073 30.0323C116.588 30.3745 119.396 31.6086 121.368 33.5808C125.135 37.3473 126.209 44.1603 123.521 53.1276C120.877 61.9478 114.779 72.0103 105.725 81.0643C99.5872 87.2023 92.9857 91.9818 86.6219 95.2474C87.4401 93.1882 87.9214 90.9614 88.1059 88.6263ZM81.1228 81.6389C80.8995 80.339 80.5861 78.9808 80.1782 77.5679C78.7649 78.5558 77.3435 79.4834 75.9199 80.3485C76.1617 80.4256 76.4025 80.5001 76.6425 80.572C78.2027 81.0396 79.6977 81.3934 81.1228 81.6389ZM68.0909 84.469C70.3325 85.4646 72.5537 86.2931 74.732 86.946C76.9847 87.6212 79.2372 88.1189 81.4474 88.4108C81.103 91.9182 79.8697 94.7203 77.9004 96.6895C75.5825 99.0074 72.1109 100.306 67.6934 100.335C63.6344 100.17 60.4258 98.8914 58.2417 96.7073C56.2724 94.738 55.0391 91.9359 54.6947 88.4285C56.9049 88.1366 59.1573 87.6389 61.4101 86.9637C63.6012 86.3069 65.8358 85.4725 68.0909 84.469ZM68.0885 77.1019C71.2872 75.4783 74.5485 73.471 77.7828 71.0998C75.516 66.0474 72.2542 60.7742 68.0782 55.6457C63.9027 60.7708 60.6401 66.0407 58.3712 71.0909C61.6134 73.4669 64.8825 75.4772 68.0885 77.1019ZM55.9723 77.5561C57.3955 78.5506 58.8268 79.484 60.2604 80.354C60.0058 80.4354 59.7522 80.514 59.4995 80.5897C57.9393 81.0573 56.4443 81.4111 55.0192 81.6566C55.2441 80.3476 55.5603 78.9796 55.9723 77.5561ZM53.0245 66.8102C55.6379 61.384 59.2089 55.8743 63.6176 50.5968C63.172 50.1308 62.7185 49.6671 62.2575 49.206C57.9751 44.9237 53.4671 41.3026 48.9717 38.3955C45.2081 43.1695 42.2358 48.0476 40.1195 52.7379C42.5851 56.1446 45.4549 59.5254 48.7057 62.7763C50.1235 64.194 51.5659 65.5393 53.0245 66.8102ZM37.4353 60.18C39.4416 62.6704 41.6341 65.1151 44.0005 67.4815C46.0654 69.5464 48.1899 71.4789 50.3524 73.2708C50.1241 73.934 49.9115 74.5939 49.7149 75.25C49.0376 77.5095 48.539 79.7688 48.2474 81.9854C44.7326 81.6432 41.925 80.4091 39.9528 78.4369C36.3691 74.8532 35.2228 68.5113 37.4353 60.18ZM35.9064 46.2245C37.8917 42.4758 40.323 38.7088 43.1613 35.0266C40.1356 33.4734 37.1636 32.2624 34.3207 31.4103C32.7605 30.9427 31.2654 30.5889 29.8403 30.3434C30.086 31.7732 30.4406 33.2735 30.91 34.8395C32 38.4759 33.6771 42.3235 35.9064 46.2245ZM23.0686 30.0146C23.3601 32.2312 23.8588 34.4905 24.536 36.75C26.1681 42.195 28.8973 47.9083 32.5903 53.5378C32.1552 54.6947 31.7667 55.843 31.426 56.9796C28.4522 66.901 28.9222 76.8167 35.2476 83.1421C38.6553 86.5498 43.105 88.258 48.0362 88.644C48.2194 90.9623 48.6951 93.1739 49.5025 95.2206C43.1442 91.9552 36.5492 87.179 30.4169 81.0466C21.3629 71.9926 15.2649 61.9301 12.6212 53.1098C9.93333 44.1426 11.0075 37.3295 14.7739 33.5631C16.7462 31.5909 19.5538 30.3568 23.0686 30.0146Z" fill="black"/>
<path fill-rule="evenodd" clip-rule="evenodd" d="M52.6095 13.14C43.6423 10.4521 36.8293 11.5263 33.0628 15.2927C31.0935 17.262 29.8602 20.0641 29.5158 23.5715C31.726 23.8634 33.9785 24.3611 36.2312 25.0363C39.9075 26.1382 43.7061 27.7403 47.5186 29.8015C48.5994 28.6006 49.7238 27.4149 50.8905 26.2482C54.3887 22.75 58.0578 19.6318 61.7928 16.9335C58.6489 15.295 55.5597 14.0242 52.6095 13.14ZM68.0861 12.8169C63.5128 10.1279 58.9285 8.08732 54.5201 6.76597C44.5987 3.79217 34.683 4.26215 28.3576 10.5875C24.9546 13.9906 23.2463 18.4328 22.8573 23.356C17.9261 23.742 13.4764 25.4502 10.0687 28.8579C3.74335 35.1833 3.27337 45.099 6.24717 55.0204C9.26502 65.0887 16.0345 76.0746 25.7117 85.7518C35.3889 95.429 46.3748 102.198 56.4431 105.216C60.2054 106.344 63.9669 106.977 67.5321 106.982C71.4127 107.117 75.5553 106.476 79.6989 105.234C89.7672 102.216 100.753 95.4467 110.43 85.7695C120.108 76.0923 126.877 65.1064 129.895 55.0381C132.869 45.1167 132.399 35.201 126.073 28.8756C122.666 25.4679 118.216 23.7597 113.285 23.3737C112.896 18.4505 111.187 14.0083 107.784 10.6052C101.459 4.27985 91.5433 3.80987 81.622 6.78367C77.2233 8.10213 72.6494 10.1366 68.0861 12.8169ZM68.0843 20.6658C63.854 23.4803 59.625 26.9241 55.5957 30.9534C54.8206 31.7285 54.0672 32.511 53.3357 33.2995C58.0075 36.396 62.6171 40.1552 66.9627 44.5008C67.3394 44.8775 67.7117 45.2563 68.0796 45.6368C68.4419 45.2622 68.8085 44.8894 69.1794 44.5185C73.5313 40.1666 78.1479 36.4027 82.8267 33.3037C82.0889 32.5078 81.3286 31.718 80.5463 30.9357C76.5255 26.9149 72.3058 23.477 68.0843 20.6658ZM88.6448 29.8076C87.5576 28.5986 86.426 27.4049 85.2515 26.2305C81.7623 22.7412 78.1029 19.63 74.3777 16.9364C77.5118 15.305 80.5912 14.0393 83.5325 13.1577C92.4998 10.4698 99.3128 11.544 103.079 15.3104C105.049 17.2797 106.282 20.0818 106.626 23.5892C104.416 23.8811 102.164 24.3788 99.9108 25.054C96.2415 26.1539 92.4502 27.752 88.6448 29.8076ZM87.1889 38.4013C82.6873 41.3104 78.1728 44.9355 73.8846 49.2237C73.4289 49.6794 72.9808 50.1376 72.5402 50.598C76.9484 55.8779 80.5182 61.3897 83.1295 66.8174C84.584 65.5496 86.0225 64.2078 87.4363 62.794C90.6915 59.5388 93.5646 56.1533 96.0324 52.742C93.9189 48.0527 90.9495 43.1752 87.1889 38.4013ZM100.245 46.2251C98.2629 42.4791 95.8349 38.7144 93.0004 35.0342C96.0193 33.4859 98.9846 32.2783 101.821 31.428C103.382 30.9604 104.877 30.6066 106.302 30.3611C106.056 31.7909 105.701 33.2912 105.232 34.8572C104.144 38.4883 102.47 42.33 100.245 46.2251ZM98.7139 60.189C96.7056 62.6824 94.5107 65.13 92.1415 67.4992C90.0796 69.5611 87.9583 71.4909 85.7992 73.2807C86.0238 73.9346 86.2333 74.5853 86.4272 75.2323C87.1044 77.4918 87.6031 79.7511 87.8946 81.9677C91.4094 81.6255 94.217 80.3914 96.1892 78.4192C99.7691 74.8393 100.917 68.5072 98.7139 60.189ZM88.1059 88.6263C93.0371 88.2403 97.4868 86.5321 100.894 83.1244C107.22 76.799 107.69 66.8833 104.716 56.9619C104.378 55.8327 103.992 54.6918 103.56 53.5426C107.249 47.9172 109.975 42.2085 111.606 36.7677C112.283 34.5082 112.782 32.2489 113.073 30.0323C116.588 30.3745 119.396 31.6086 121.368 33.5808C125.135 37.3473 126.209 44.1603 123.521 53.1276C120.877 61.9478 114.779 72.0103 105.725 81.0643C99.5872 87.2023 92.9857 91.9818 86.6219 95.2474C87.4401 93.1882 87.9214 90.9614 88.1059 88.6263ZM81.1228 81.6389C80.8995 80.339 80.5861 78.9808 80.1782 77.5679C78.7649 78.5558 77.3435 79.4834 75.9199 80.3485C76.1617 80.4256 76.4025 80.5001 76.6425 80.572C78.2027 81.0396 79.6977 81.3934 81.1228 81.6389ZM68.0909 84.469C70.3325 85.4646 72.5537 86.2931 74.732 86.946C76.9847 87.6212 79.2372 88.1189 81.4474 88.4108C81.103 91.9182 79.8697 94.7203 77.9004 96.6895C75.5825 99.0074 72.1109 100.306 67.6934 100.335C63.6344 100.17 60.4258 98.8914 58.2417 96.7073C56.2724 94.738 55.0391 91.9359 54.6947 88.4285C56.9049 88.1366 59.1573 87.6389 61.4101 86.9637C63.6012 86.3069 65.8358 85.4725 68.0909 84.469ZM68.0885 77.1019C71.2872 75.4783 74.5485 73.471 77.7828 71.0998C75.516 66.0474 72.2542 60.7742 68.0782 55.6457C63.9027 60.7708 60.6401 66.0407 58.3712 71.0909C61.6134 73.4669 64.8825 75.4772 68.0885 77.1019ZM55.9723 77.5561C57.3955 78.5506 58.8268 79.484 60.2604 80.354C60.0058 80.4354 59.7522 80.514 59.4995 80.5897C57.9393 81.0573 56.4443 81.4111 55.0192 81.6566C55.2441 80.3476 55.5603 78.9796 55.9723 77.5561ZM53.0245 66.8102C55.6379 61.384 59.2089 55.8743 63.6176 50.5968C63.172 50.1308 62.7185 49.6671 62.2575 49.206C57.9751 44.9237 53.4671 41.3026 48.9717 38.3955C45.2081 43.1695 42.2358 48.0476 40.1195 52.7379C42.5851 56.1446 45.4549 59.5254 48.7057 62.7763C50.1235 64.194 51.5659 65.5393 53.0245 66.8102ZM37.4353 60.18C39.4416 62.6704 41.6341 65.1151 44.0005 67.4815C46.0654 69.5464 48.1899 71.4789 50.3524 73.2708C50.1241 73.934 49.9115 74.5939 49.7149 75.25C49.0376 77.5095 48.539 79.7688 48.2474 81.9854C44.7326 81.6432 41.925 80.4091 39.9528 78.4369C36.3691 74.8532 35.2228 68.5113 37.4353 60.18ZM35.9064 46.2245C37.8917 42.4758 40.323 38.7088 43.1613 35.0266C40.1356 33.4734 37.1636 32.2624 34.3207 31.4103C32.7605 30.9427 31.2654 30.5889 29.8403 30.3434C30.086 31.7732 30.4406 33.2735 30.91 34.8395C32 38.4759 33.6771 42.3235 35.9064 46.2245ZM23.0686 30.0146C23.3601 32.2312 23.8588 34.4905 24.536 36.75C26.1681 42.195 28.8973 47.9083 32.5903 53.5378C32.1552 54.6947 31.7667 55.843 31.426 56.9796C28.4522 66.901 28.9222 76.8167 35.2476 83.1421C38.6553 86.5498 43.105 88.258 48.0362 88.644C48.2194 90.9623 48.6951 93.1739 49.5025 95.2206C43.1442 91.9552 36.5492 87.179 30.4169 81.0466C21.3629 71.9926 15.2649 61.9301 12.6212 53.1098C9.93333 44.1426 11.0075 37.3295 14.7739 33.5631C16.7462 31.5909 19.5538 30.3568 23.0686 30.0146Z" stroke="black" stroke-width="1.2186" mask="url(#path-1-outside-1_600_18)"/>
<mask id="path-2-outside-2_600_18" maskUnits="userSpaceOnUse" x="167.661" y="3.08386" width="259" height="106" fill="black">
<rect fill="white" x="167.661" y="3.08386" width="259" height="106"/>
<path d="M187.942 51.1736H176.806V46.1007H187.571C191.345 46.1007 194.469 45.3789 196.944 43.9354C199.418 42.4712 201.264 40.3884 202.481 37.687C203.718 34.9855 204.336 31.7685 204.336 28.036C204.336 24.3446 203.728 21.1689 202.511 18.5087C201.315 15.8278 199.511 13.7657 197.098 12.3221C194.706 10.8786 191.716 10.1568 188.128 10.1568H176.559V5.08386H188.53C193.025 5.08386 196.861 6.00153 200.037 7.83688C203.233 9.67222 205.687 12.3118 207.399 15.7557C209.11 19.1789 209.966 23.2723 209.966 28.036C209.966 32.8408 209.1 36.9755 207.368 40.44C205.656 43.8838 203.161 46.5337 199.882 48.3897C196.603 50.2457 192.623 51.1736 187.942 51.1736ZM179.343 5.08386V51.1736H173.62V5.08386H179.343Z"/>
<path d="M231.867 51.916C228.588 51.916 225.773 51.184 223.422 49.7198C221.071 48.235 219.267 46.1832 218.009 43.5642C216.751 40.9452 216.122 37.9241 216.122 34.5009C216.122 31.0571 216.751 28.0153 218.009 25.3757C219.287 22.7155 221.071 20.6327 223.36 19.1273C225.649 17.6219 228.309 16.8692 231.341 16.8692C233.362 16.8692 235.269 17.2198 237.063 17.9209C238.878 18.6221 240.476 19.6944 241.858 21.138C243.24 22.5609 244.322 24.355 245.106 26.5203C245.91 28.6649 246.312 31.1911 246.312 34.0988V36.0166H219.463V31.4076H243.312L240.868 33.078C240.868 30.8302 240.497 28.8505 239.754 27.1389C239.012 25.4273 237.929 24.0972 236.507 23.1486C235.084 22.2 233.362 21.7257 231.341 21.7257C229.32 21.7257 227.577 22.2103 226.113 23.1795C224.649 24.1281 223.525 25.4273 222.741 27.077C221.958 28.7062 221.566 30.5415 221.566 32.5831V35.3051C221.566 37.7179 221.978 39.811 222.803 41.5845C223.649 43.3374 224.845 44.6881 226.392 45.6367C227.938 46.5853 229.763 47.0596 231.867 47.0596C233.31 47.0596 234.599 46.8431 235.733 46.41C236.888 45.9769 237.857 45.348 238.641 44.5231C239.445 43.6982 240.033 42.6981 240.404 41.5226L245.755 42.3578C245.261 44.255 244.363 45.9254 243.064 47.3689C241.786 48.7918 240.188 49.9054 238.27 50.7097C236.372 51.5139 234.238 51.916 231.867 51.916Z"/>
<path d="M264.996 51.916C262.645 51.916 260.531 51.5551 258.654 50.8334C256.798 50.1116 255.272 49.029 254.076 47.5854C252.901 46.1213 252.169 44.3169 251.88 42.1722L257.108 41.4608C257.479 43.3786 258.335 44.8118 259.675 45.7604C261.016 46.709 262.768 47.1833 264.934 47.1833C267.264 47.1833 269.12 46.6884 270.502 45.6985C271.883 44.7087 272.574 43.492 272.574 42.0485C272.574 40.8524 272.141 39.8729 271.275 39.1099C270.409 38.3262 269.172 37.7488 267.563 37.3776L262.026 36.0785C258.953 35.3361 256.644 34.1916 255.097 32.6449C253.55 31.0983 252.777 29.1186 252.777 26.7058C252.777 24.788 253.303 23.0867 254.355 21.6019C255.427 20.1172 256.891 18.9624 258.747 18.1375C260.624 17.292 262.768 16.8692 265.181 16.8692C267.491 16.8692 269.512 17.2611 271.244 18.0447C272.976 18.8077 274.358 19.8903 275.389 21.2926C276.441 22.6743 277.132 24.3034 277.461 26.18L272.358 26.8914C272.089 25.4273 271.368 24.1694 270.192 23.1176C269.017 22.0453 267.346 21.5091 265.181 21.5091C263.14 21.5091 261.469 21.9938 260.17 22.963C258.892 23.9116 258.252 25.0973 258.252 26.5203C258.252 27.7782 258.706 28.7887 259.613 29.5517C260.541 30.3147 261.913 30.9127 263.727 31.3458L268.986 32.5831C272.12 33.3255 274.43 34.4597 275.915 35.9857C277.4 37.4911 278.142 39.4295 278.142 41.801C278.142 43.822 277.575 45.5954 276.441 47.1215C275.327 48.6268 273.78 49.8023 271.801 50.6478C269.821 51.4933 267.553 51.916 264.996 51.916Z"/>
<path d="M285.411 51.1736V17.457H290.824V51.1736H285.411ZM285.195 11.0848V5.08386H291.072V11.0848H285.195Z"/>
<path d="M313.622 64.7222C311.106 64.7222 308.889 64.3716 306.971 63.6705C305.074 62.9693 303.497 61.9898 302.239 60.7319C301.001 59.4946 300.125 58.051 299.609 56.4013L304.497 54.7618C304.909 55.6692 305.497 56.5147 306.26 57.2983C307.023 58.082 308.002 58.7212 309.198 59.2162C310.395 59.7111 311.869 59.9585 313.622 59.9585C316.426 59.9585 318.685 59.2471 320.396 57.8242C322.108 56.4219 322.964 54.3185 322.964 51.5139V45.4511H322.654C322.077 46.3791 321.355 47.2761 320.489 48.1422C319.643 49.0084 318.571 49.7301 317.272 50.3075C315.973 50.8643 314.385 51.1427 312.508 51.1427C309.704 51.1427 307.208 50.4622 305.023 49.1012C302.857 47.7401 301.156 45.7913 299.919 43.2549C298.702 40.7184 298.094 37.7076 298.094 34.2225C298.094 30.7374 298.702 27.706 299.919 25.1283C301.135 22.5299 302.837 20.5193 305.023 19.0964C307.208 17.6529 309.724 16.9311 312.57 16.9311C314.426 16.9311 316.014 17.2198 317.334 17.7972C318.654 18.3746 319.747 19.117 320.613 20.0244C321.499 20.9317 322.221 21.8494 322.778 22.7774H323.087V17.457H328.377V51.6686C328.377 54.7412 327.707 57.2365 326.366 59.1543C325.026 61.0927 323.232 62.5053 320.984 63.3921C318.757 64.2788 316.303 64.7222 313.622 64.7222ZM313.374 46.2863C315.437 46.2863 317.2 45.8017 318.664 44.8324C320.128 43.8426 321.242 42.4403 322.005 40.6256C322.768 38.7902 323.149 36.6353 323.149 34.1606C323.149 31.686 322.768 29.531 322.005 27.6957C321.242 25.8397 320.128 24.3962 318.664 23.3651C317.22 22.3134 315.457 21.7875 313.374 21.7875C311.312 21.7875 309.549 22.3031 308.085 23.3342C306.641 24.3653 305.528 25.8088 304.744 27.6648C303.981 29.5207 303.6 31.686 303.6 34.1606C303.6 36.6559 303.981 38.8109 304.744 40.6256C305.528 42.4403 306.652 43.8426 308.116 44.8324C309.58 45.8017 311.333 46.2863 313.374 46.2863Z"/>
<path d="M342.668 31.1602V51.1736H337.254V17.457H342.513V25.6232H341.43C342.482 22.5299 343.977 20.3131 345.916 18.9727C347.854 17.6116 350.122 16.9311 352.721 16.9311C354.989 16.9311 357.01 17.4157 358.784 18.3849C360.578 19.3335 361.98 20.7668 362.991 22.6846C364.022 24.6024 364.537 27.0255 364.537 29.9538V51.1736H359.124V30.3868C359.124 27.6441 358.433 25.5407 357.051 24.0766C355.67 22.5918 353.773 21.8494 351.36 21.8494C349.731 21.8494 348.256 22.2 346.936 22.9011C345.637 23.5816 344.596 24.6127 343.812 25.9944C343.049 27.3554 342.668 29.0774 342.668 31.1602Z"/>
<path d="M182.22 106.174L169.661 60.0839H175.476L182.869 88.5729C183.261 90.0783 183.632 91.594 183.983 93.12C184.333 94.646 184.674 96.1824 185.004 97.729C185.333 99.2756 185.643 100.843 185.932 102.431H185.251C185.56 100.843 185.88 99.2756 186.21 97.729C186.54 96.1824 186.88 94.646 187.231 93.12C187.602 91.594 187.983 90.0783 188.375 88.5729L195.892 60.0839H202.481L209.935 88.5729C210.348 90.0783 210.729 91.594 211.08 93.12C211.451 94.646 211.812 96.1824 212.162 97.729C212.513 99.2756 212.843 100.843 213.152 102.431H212.348C212.657 100.843 212.977 99.2756 213.307 97.729C213.637 96.1824 213.988 94.646 214.359 93.12C214.73 91.594 215.101 90.0783 215.472 88.5729L222.834 60.0839H228.711L216.091 106.174H209.409L201.429 76.7566C200.893 74.7769 200.387 72.7147 199.913 70.5701C199.459 68.4048 199.006 66.0539 198.552 63.5174H199.758C199.325 65.9508 198.882 68.2398 198.428 70.3845C197.995 72.5085 197.49 74.6326 196.913 76.7566L188.932 106.174H182.22Z"/>
<path d="M240.961 106.854C238.775 106.854 236.806 106.462 235.053 105.679C233.3 104.874 231.908 103.709 230.877 102.183C229.866 100.637 229.361 98.7498 229.361 96.5226C229.361 94.5842 229.732 93.0169 230.475 91.8209C231.238 90.6042 232.258 89.6556 233.537 88.975C234.816 88.2739 236.238 87.748 237.806 87.3975C239.373 87.0469 240.971 86.7685 242.6 86.5623C244.662 86.2736 246.323 86.057 247.58 85.9127C248.838 85.7683 249.756 85.5312 250.333 85.2012C250.911 84.8507 251.2 84.263 251.2 83.4381V83.1906C251.2 81.8502 250.921 80.7057 250.364 79.7571C249.808 78.7879 248.993 78.0352 247.921 77.499C246.848 76.9628 245.529 76.6947 243.961 76.6947C242.373 76.6947 240.992 76.9525 239.816 77.4681C238.641 77.9836 237.692 78.6538 236.971 79.4787C236.269 80.2829 235.795 81.1491 235.548 82.077L230.196 81.0872C230.732 79.0456 231.671 77.3546 233.011 76.0142C234.352 74.6532 235.96 73.6324 237.837 72.9519C239.713 72.2714 241.724 71.9311 243.869 71.9311C245.353 71.9311 246.838 72.127 248.323 72.5188C249.828 72.89 251.2 73.519 252.437 74.4057C253.695 75.2718 254.695 76.4576 255.437 77.963C256.2 79.4478 256.582 81.2934 256.582 83.4999V106.174H251.231V101.503H250.983C250.591 102.286 249.983 103.101 249.158 103.946C248.333 104.771 247.251 105.462 245.91 106.019C244.57 106.576 242.92 106.854 240.961 106.854ZM241.827 102.029C243.91 102.029 245.642 101.637 247.024 100.853C248.426 100.049 249.467 99.0179 250.148 97.7599C250.849 96.4814 251.2 95.141 251.2 93.7387V89.2534C250.973 89.4803 250.519 89.6968 249.839 89.903C249.179 90.0886 248.395 90.2639 247.488 90.4289C246.601 90.5939 245.694 90.7382 244.766 90.8619C243.858 90.9857 243.054 91.0888 242.353 91.1713C241.054 91.3362 239.827 91.6249 238.672 92.0374C237.517 92.4292 236.589 93.0066 235.888 93.7696C235.187 94.512 234.836 95.5328 234.836 96.832C234.836 97.9455 235.125 98.8941 235.702 99.6778C236.3 100.441 237.125 101.028 238.177 101.441C239.229 101.833 240.445 102.029 241.827 102.029Z"/>
<path d="M279.379 72.457V77.0969H261.593V72.457H279.379ZM267.068 63.9195H272.481V97.6671C272.481 99.09 272.77 100.111 273.347 100.729C273.945 101.348 274.946 101.657 276.348 101.657C276.76 101.657 277.235 101.637 277.771 101.596C278.328 101.554 278.833 101.503 279.287 101.441L279.905 106.081C279.348 106.184 278.719 106.266 278.018 106.328C277.338 106.39 276.678 106.421 276.039 106.421C273.131 106.421 270.904 105.71 269.357 104.287C267.831 102.864 267.068 100.822 267.068 98.1621V63.9195Z"/>
<path d="M299.238 106.916C295.959 106.916 293.144 106.184 290.794 104.72C288.443 103.235 286.638 101.183 285.38 98.5642C284.122 95.9452 283.493 92.9241 283.493 89.5009C283.493 86.0571 284.122 83.0153 285.38 80.3757C286.659 77.7155 288.443 75.6327 290.732 74.1273C293.021 72.6219 295.681 71.8692 298.712 71.8692C300.733 71.8692 302.641 72.2198 304.435 72.921C306.25 73.6221 307.848 74.6944 309.229 76.138C310.611 77.5609 311.694 79.355 312.477 81.5202C313.282 83.6649 313.684 86.1911 313.684 89.0988V91.0166H286.834V86.4076H310.683L308.24 88.078C308.24 85.8302 307.868 83.8505 307.126 82.1389C306.384 80.4273 305.301 79.0972 303.878 78.1486C302.455 77.2 300.733 76.7257 298.712 76.7257C296.691 76.7257 294.949 77.2103 293.485 78.1795C292.02 79.1281 290.897 80.4273 290.113 82.077C289.329 83.7062 288.938 85.5415 288.938 87.5831V90.3051C288.938 92.7179 289.35 94.811 290.175 96.5845C291.02 98.3374 292.216 99.6881 293.763 100.637C295.31 101.585 297.135 102.06 299.238 102.06C300.682 102.06 301.971 101.843 303.105 101.41C304.26 100.977 305.229 100.348 306.012 99.5231C306.817 98.6982 307.404 97.6981 307.776 96.5226L313.127 97.3578C312.632 99.255 311.735 100.925 310.436 102.369C309.157 103.792 307.559 104.905 305.641 105.71C303.744 106.514 301.61 106.916 299.238 106.916Z"/>
<path d="M320.798 106.174V72.457H325.995V77.6846H326.273C326.892 75.9524 327.944 74.5707 329.428 73.5396C330.913 72.4879 332.687 71.962 334.749 71.962C335.182 71.962 335.646 71.9723 336.141 71.993C336.636 72.0136 337.017 72.0445 337.285 72.0858V77.5299C337.12 77.4887 336.718 77.4268 336.079 77.3443C335.46 77.2412 334.77 77.1897 334.007 77.1897C332.563 77.1897 331.243 77.5093 330.047 78.1486C328.872 78.7672 327.933 79.6746 327.232 80.8707C326.552 82.0667 326.211 83.5103 326.211 85.2012V106.174H320.798Z"/>
<path d="M351.391 106.297C348.607 106.297 346.576 105.668 345.297 104.41C344.018 103.132 343.379 101.204 343.379 98.6261V60.0839H348.792V97.6053C348.792 99.1107 348.999 100.142 349.411 100.699C349.823 101.255 350.648 101.534 351.886 101.534C352.298 101.534 352.638 101.523 352.906 101.503C353.195 101.482 353.453 101.451 353.68 101.41L354.298 106.019C353.927 106.101 353.484 106.163 352.968 106.205C352.453 106.266 351.927 106.297 351.391 106.297Z"/>
<path fill-rule="evenodd" clip-rule="evenodd" d="M372.518 106.916C369.445 106.916 366.744 106.184 364.413 104.72C362.104 103.235 360.299 101.183 359 98.5642C357.701 95.9452 357.051 92.9138 357.051 89.47C357.051 85.9643 357.701 82.8916 359 80.252C360.299 77.6124 362.104 75.5605 364.413 74.0964C366.744 72.6116 369.445 71.8692 372.518 71.8692C375.632 71.8692 378.343 72.6116 380.653 74.0964C382.983 75.5605 384.798 77.6124 386.097 80.252C386.587 81.2479 388.3 83.4246 390.83 83.4246C393.36 83.4246 395.073 81.2479 395.563 80.252C396.862 77.6124 398.666 75.5605 400.976 74.0964C403.306 72.6116 406.008 71.8692 409.08 71.8692C412.194 71.8692 414.906 72.6116 417.216 74.0964C419.546 75.5605 421.361 77.6124 422.66 80.252C423.959 82.8916 424.609 85.9643 424.609 89.47C424.609 92.9138 423.959 95.9452 422.66 98.5642C421.361 101.183 419.546 103.235 417.216 104.72C414.906 106.184 412.194 106.916 409.08 106.916C406.008 106.916 403.306 106.184 400.976 104.72C398.666 103.235 396.862 101.183 395.563 98.5642C395.073 97.5761 393.353 95.4237 390.83 95.4237C388.306 95.4237 386.587 97.5761 386.097 98.5642C384.798 101.183 382.983 103.235 380.653 104.72C378.343 106.184 375.632 106.916 372.518 106.916ZM378.086 100.358C376.601 101.472 374.745 102.029 372.518 102.029C370.332 102.029 368.497 101.472 367.012 100.358C365.548 99.2447 364.434 97.7393 363.671 95.8421C362.929 93.9449 362.557 91.8209 362.557 89.47C362.557 87.0778 362.929 84.9229 363.671 83.005C364.434 81.0872 365.548 79.5715 367.012 78.4579C368.497 77.3237 370.332 76.7566 372.518 76.7566C374.745 76.7566 376.601 77.3237 378.086 78.4579C379.57 79.5715 380.684 81.0872 381.426 83.005C382.169 84.9229 382.54 87.0778 382.54 89.47C382.54 91.8209 382.169 93.9449 381.426 95.8421C380.684 97.7393 379.57 99.2447 378.086 100.358ZM414.648 100.358C413.163 101.472 411.307 102.029 409.08 102.029C406.894 102.029 405.059 101.472 403.574 100.358C402.11 99.2447 400.997 97.7393 400.234 95.8421C399.491 93.9449 399.12 91.8209 399.12 89.47C399.12 87.0778 399.491 84.9229 400.234 83.005C400.997 81.0872 402.11 79.5715 403.574 78.4579C405.059 77.3237 406.894 76.7566 409.08 76.7566C411.307 76.7566 413.163 77.3237 414.648 78.4579C416.133 79.5715 417.247 81.0872 417.989 83.005C418.731 84.9229 419.102 87.0778 419.102 89.47C419.102 91.8209 418.731 93.9449 417.989 95.8421C417.247 97.7393 416.133 99.2447 414.648 100.358Z"/>
</mask>
<path d="M187.942 51.1736H176.806V46.1007H187.571C191.345 46.1007 194.469 45.3789 196.944 43.9354C199.418 42.4712 201.264 40.3884 202.481 37.687C203.718 34.9855 204.336 31.7685 204.336 28.036C204.336 24.3446 203.728 21.1689 202.511 18.5087C201.315 15.8278 199.511 13.7657 197.098 12.3221C194.706 10.8786 191.716 10.1568 188.128 10.1568H176.559V5.08386H188.53C193.025 5.08386 196.861 6.00153 200.037 7.83688C203.233 9.67222 205.687 12.3118 207.399 15.7557C209.11 19.1789 209.966 23.2723 209.966 28.036C209.966 32.8408 209.1 36.9755 207.368 40.44C205.656 43.8838 203.161 46.5337 199.882 48.3897C196.603 50.2457 192.623 51.1736 187.942 51.1736ZM179.343 5.08386V51.1736H173.62V5.08386H179.343Z" fill="black"/>
<path d="M231.867 51.916C228.588 51.916 225.773 51.184 223.422 49.7198C221.071 48.235 219.267 46.1832 218.009 43.5642C216.751 40.9452 216.122 37.9241 216.122 34.5009C216.122 31.0571 216.751 28.0153 218.009 25.3757C219.287 22.7155 221.071 20.6327 223.36 19.1273C225.649 17.6219 228.309 16.8692 231.341 16.8692C233.362 16.8692 235.269 17.2198 237.063 17.9209C238.878 18.6221 240.476 19.6944 241.858 21.138C243.24 22.5609 244.322 24.355 245.106 26.5203C245.91 28.6649 246.312 31.1911 246.312 34.0988V36.0166H219.463V31.4076H243.312L240.868 33.078C240.868 30.8302 240.497 28.8505 239.754 27.1389C239.012 25.4273 237.929 24.0972 236.507 23.1486C235.084 22.2 233.362 21.7257 231.341 21.7257C229.32 21.7257 227.577 22.2103 226.113 23.1795C224.649 24.1281 223.525 25.4273 222.741 27.077C221.958 28.7062 221.566 30.5415 221.566 32.5831V35.3051C221.566 37.7179 221.978 39.811 222.803 41.5845C223.649 43.3374 224.845 44.6881 226.392 45.6367C227.938 46.5853 229.763 47.0596 231.867 47.0596C233.31 47.0596 234.599 46.8431 235.733 46.41C236.888 45.9769 237.857 45.348 238.641 44.5231C239.445 43.6982 240.033 42.6981 240.404 41.5226L245.755 42.3578C245.261 44.255 244.363 45.9254 243.064 47.3689C241.786 48.7918 240.188 49.9054 238.27 50.7097C236.372 51.5139 234.238 51.916 231.867 51.916Z" fill="black"/>
<path d="M264.996 51.916C262.645 51.916 260.531 51.5551 258.654 50.8334C256.798 50.1116 255.272 49.029 254.076 47.5854C252.901 46.1213 252.169 44.3169 251.88 42.1722L257.108 41.4608C257.479 43.3786 258.335 44.8118 259.675 45.7604C261.016 46.709 262.768 47.1833 264.934 47.1833C267.264 47.1833 269.12 46.6884 270.502 45.6985C271.883 44.7087 272.574 43.492 272.574 42.0485C272.574 40.8524 272.141 39.8729 271.275 39.1099C270.409 38.3262 269.172 37.7488 267.563 37.3776L262.026 36.0785C258.953 35.3361 256.644 34.1916 255.097 32.6449C253.55 31.0983 252.777 29.1186 252.777 26.7058C252.777 24.788 253.303 23.0867 254.355 21.6019C255.427 20.1172 256.891 18.9624 258.747 18.1375C260.624 17.292 262.768 16.8692 265.181 16.8692C267.491 16.8692 269.512 17.2611 271.244 18.0447C272.976 18.8077 274.358 19.8903 275.389 21.2926C276.441 22.6743 277.132 24.3034 277.461 26.18L272.358 26.8914C272.089 25.4273 271.368 24.1694 270.192 23.1176C269.017 22.0453 267.346 21.5091 265.181 21.5091C263.14 21.5091 261.469 21.9938 260.17 22.963C258.892 23.9116 258.252 25.0973 258.252 26.5203C258.252 27.7782 258.706 28.7887 259.613 29.5517C260.541 30.3147 261.913 30.9127 263.727 31.3458L268.986 32.5831C272.12 33.3255 274.43 34.4597 275.915 35.9857C277.4 37.4911 278.142 39.4295 278.142 41.801C278.142 43.822 277.575 45.5954 276.441 47.1215C275.327 48.6268 273.78 49.8023 271.801 50.6478C269.821 51.4933 267.553 51.916 264.996 51.916Z" fill="black"/>
<path d="M285.411 51.1736V17.457H290.824V51.1736H285.411ZM285.195 11.0848V5.08386H291.072V11.0848H285.195Z" fill="black"/>
<path d="M313.622 64.7222C311.106 64.7222 308.889 64.3716 306.971 63.6705C305.074 62.9693 303.497 61.9898 302.239 60.7319C301.001 59.4946 300.125 58.051 299.609 56.4013L304.497 54.7618C304.909 55.6692 305.497 56.5147 306.26 57.2983C307.023 58.082 308.002 58.7212 309.198 59.2162C310.395 59.7111 311.869 59.9585 313.622 59.9585C316.426 59.9585 318.685 59.2471 320.396 57.8242C322.108 56.4219 322.964 54.3185 322.964 51.5139V45.4511H322.654C322.077 46.3791 321.355 47.2761 320.489 48.1422C319.643 49.0084 318.571 49.7301 317.272 50.3075C315.973 50.8643 314.385 51.1427 312.508 51.1427C309.704 51.1427 307.208 50.4622 305.023 49.1012C302.857 47.7401 301.156 45.7913 299.919 43.2549C298.702 40.7184 298.094 37.7076 298.094 34.2225C298.094 30.7374 298.702 27.706 299.919 25.1283C301.135 22.5299 302.837 20.5193 305.023 19.0964C307.208 17.6529 309.724 16.9311 312.57 16.9311C314.426 16.9311 316.014 17.2198 317.334 17.7972C318.654 18.3746 319.747 19.117 320.613 20.0244C321.499 20.9317 322.221 21.8494 322.778 22.7774H323.087V17.457H328.377V51.6686C328.377 54.7412 327.707 57.2365 326.366 59.1543C325.026 61.0927 323.232 62.5053 320.984 63.3921C318.757 64.2788 316.303 64.7222 313.622 64.7222ZM313.374 46.2863C315.437 46.2863 317.2 45.8017 318.664 44.8324C320.128 43.8426 321.242 42.4403 322.005 40.6256C322.768 38.7902 323.149 36.6353 323.149 34.1606C323.149 31.686 322.768 29.531 322.005 27.6957C321.242 25.8397 320.128 24.3962 318.664 23.3651C317.22 22.3134 315.457 21.7875 313.374 21.7875C311.312 21.7875 309.549 22.3031 308.085 23.3342C306.641 24.3653 305.528 25.8088 304.744 27.6648C303.981 29.5207 303.6 31.686 303.6 34.1606C303.6 36.6559 303.981 38.8109 304.744 40.6256C305.528 42.4403 306.652 43.8426 308.116 44.8324C309.58 45.8017 311.333 46.2863 313.374 46.2863Z" fill="black"/>
<path d="M342.668 31.1602V51.1736H337.254V17.457H342.513V25.6232H341.43C342.482 22.5299 343.977 20.3131 345.916 18.9727C347.854 17.6116 350.122 16.9311 352.721 16.9311C354.989 16.9311 357.01 17.4157 358.784 18.3849C360.578 19.3335 361.98 20.7668 362.991 22.6846C364.022 24.6024 364.537 27.0255 364.537 29.9538V51.1736H359.124V30.3868C359.124 27.6441 358.433 25.5407 357.051 24.0766C355.67 22.5918 353.773 21.8494 351.36 21.8494C349.731 21.8494 348.256 22.2 346.936 22.9011C345.637 23.5816 344.596 24.6127 343.812 25.9944C343.049 27.3554 342.668 29.0774 342.668 31.1602Z" fill="black"/>
<path d="M182.22 106.174L169.661 60.0839H175.476L182.869 88.5729C183.261 90.0783 183.632 91.594 183.983 93.12C184.333 94.646 184.674 96.1824 185.004 97.729C185.333 99.2756 185.643 100.843 185.932 102.431H185.251C185.56 100.843 185.88 99.2756 186.21 97.729C186.54 96.1824 186.88 94.646 187.231 93.12C187.602 91.594 187.983 90.0783 188.375 88.5729L195.892 60.0839H202.481L209.935 88.5729C210.348 90.0783 210.729 91.594 211.08 93.12C211.451 94.646 211.812 96.1824 212.162 97.729C212.513 99.2756 212.843 100.843 213.152 102.431H212.348C212.657 100.843 212.977 99.2756 213.307 97.729C213.637 96.1824 213.988 94.646 214.359 93.12C214.73 91.594 215.101 90.0783 215.472 88.5729L222.834 60.0839H228.711L216.091 106.174H209.409L201.429 76.7566C200.893 74.7769 200.387 72.7147 199.913 70.5701C199.459 68.4048 199.006 66.0539 198.552 63.5174H199.758C199.325 65.9508 198.882 68.2398 198.428 70.3845C197.995 72.5085 197.49 74.6326 196.913 76.7566L188.932 106.174H182.22Z" fill="black"/>
<path d="M240.961 106.854C238.775 106.854 236.806 106.462 235.053 105.679C233.3 104.874 231.908 103.709 230.877 102.183C229.866 100.637 229.361 98.7498 229.361 96.5226C229.361 94.5842 229.732 93.0169 230.475 91.8209C231.238 90.6042 232.258 89.6556 233.537 88.975C234.816 88.2739 236.238 87.748 237.806 87.3975C239.373 87.0469 240.971 86.7685 242.6 86.5623C244.662 86.2736 246.323 86.057 247.58 85.9127C248.838 85.7683 249.756 85.5312 250.333 85.2012C250.911 84.8507 251.2 84.263 251.2 83.4381V83.1906C251.2 81.8502 250.921 80.7057 250.364 79.7571C249.808 78.7879 248.993 78.0352 247.921 77.499C246.848 76.9628 245.529 76.6947 243.961 76.6947C242.373 76.6947 240.992 76.9525 239.816 77.4681C238.641 77.9836 237.692 78.6538 236.971 79.4787C236.269 80.2829 235.795 81.1491 235.548 82.077L230.196 81.0872C230.732 79.0456 231.671 77.3546 233.011 76.0142C234.352 74.6532 235.96 73.6324 237.837 72.9519C239.713 72.2714 241.724 71.9311 243.869 71.9311C245.353 71.9311 246.838 72.127 248.323 72.5188C249.828 72.89 251.2 73.519 252.437 74.4057C253.695 75.2718 254.695 76.4576 255.437 77.963C256.2 79.4478 256.582 81.2934 256.582 83.4999V106.174H251.231V101.503H250.983C250.591 102.286 249.983 103.101 249.158 103.946C248.333 104.771 247.251 105.462 245.91 106.019C244.57 106.576 242.92 106.854 240.961 106.854ZM241.827 102.029C243.91 102.029 245.642 101.637 247.024 100.853C248.426 100.049 249.467 99.0179 250.148 97.7599C250.849 96.4814 251.2 95.141 251.2 93.7387V89.2534C250.973 89.4803 250.519 89.6968 249.839 89.903C249.179 90.0886 248.395 90.2639 247.488 90.4289C246.601 90.5939 245.694 90.7382 244.766 90.8619C243.858 90.9857 243.054 91.0888 242.353 91.1713C241.054 91.3362 239.827 91.6249 238.672 92.0374C237.517 92.4292 236.589 93.0066 235.888 93.7696C235.187 94.512 234.836 95.5328 234.836 96.832C234.836 97.9455 235.125 98.8941 235.702 99.6778C236.3 100.441 237.125 101.028 238.177 101.441C239.229 101.833 240.445 102.029 241.827 102.029Z" fill="black"/>
<path d="M279.379 72.457V77.0969H261.593V72.457H279.379ZM267.068 63.9195H272.481V97.6671C272.481 99.09 272.77 100.111 273.347 100.729C273.945 101.348 274.946 101.657 276.348 101.657C276.76 101.657 277.235 101.637 277.771 101.596C278.328 101.554 278.833 101.503 279.287 101.441L279.905 106.081C279.348 106.184 278.719 106.266 278.018 106.328C277.338 106.39 276.678 106.421 276.039 106.421C273.131 106.421 270.904 105.71 269.357 104.287C267.831 102.864 267.068 100.822 267.068 98.1621V63.9195Z" fill="black"/>
<path d="M299.238 106.916C295.959 106.916 293.144 106.184 290.794 104.72C288.443 103.235 286.638 101.183 285.38 98.5642C284.122 95.9452 283.493 92.9241 283.493 89.5009C283.493 86.0571 284.122 83.0153 285.38 80.3757C286.659 77.7155 288.443 75.6327 290.732 74.1273C293.021 72.6219 295.681 71.8692 298.712 71.8692C300.733 71.8692 302.641 72.2198 304.435 72.921C306.25 73.6221 307.848 74.6944 309.229 76.138C310.611 77.5609 311.694 79.355 312.477 81.5202C313.282 83.6649 313.684 86.1911 313.684 89.0988V91.0166H286.834V86.4076H310.683L308.24 88.078C308.24 85.8302 307.868 83.8505 307.126 82.1389C306.384 80.4273 305.301 79.0972 303.878 78.1486C302.455 77.2 300.733 76.7257 298.712 76.7257C296.691 76.7257 294.949 77.2103 293.485 78.1795C292.02 79.1281 290.897 80.4273 290.113 82.077C289.329 83.7062 288.938 85.5415 288.938 87.5831V90.3051C288.938 92.7179 289.35 94.811 290.175 96.5845C291.02 98.3374 292.216 99.6881 293.763 100.637C295.31 101.585 297.135 102.06 299.238 102.06C300.682 102.06 301.971 101.843 303.105 101.41C304.26 100.977 305.229 100.348 306.012 99.5231C306.817 98.6982 307.404 97.6981 307.776 96.5226L313.127 97.3578C312.632 99.255 311.735 100.925 310.436 102.369C309.157 103.792 307.559 104.905 305.641 105.71C303.744 106.514 301.61 106.916 299.238 106.916Z" fill="black"/>
<path d="M320.798 106.174V72.457H325.995V77.6846H326.273C326.892 75.9524 327.944 74.5707 329.428 73.5396C330.913 72.4879 332.687 71.962 334.749 71.962C335.182 71.962 335.646 71.9723 336.141 71.993C336.636 72.0136 337.017 72.0445 337.285 72.0858V77.5299C337.12 77.4887 336.718 77.4268 336.079 77.3443C335.46 77.2412 334.77 77.1897 334.007 77.1897C332.563 77.1897 331.243 77.5093 330.047 78.1486C328.872 78.7672 327.933 79.6746 327.232 80.8707C326.552 82.0667 326.211 83.5103 326.211 85.2012V106.174H320.798Z" fill="black"/>
<path d="M351.391 106.297C348.607 106.297 346.576 105.668 345.297 104.41C344.018 103.132 343.379 101.204 343.379 98.6261V60.0839H348.792V97.6053C348.792 99.1107 348.999 100.142 349.411 100.699C349.823 101.255 350.648 101.534 351.886 101.534C352.298 101.534 352.638 101.523 352.906 101.503C353.195 101.482 353.453 101.451 353.68 101.41L354.298 106.019C353.927 106.101 353.484 106.163 352.968 106.205C352.453 106.266 351.927 106.297 351.391 106.297Z" fill="black"/>
<path fill-rule="evenodd" clip-rule="evenodd" d="M372.518 106.916C369.445 106.916 366.744 106.184 364.413 104.72C362.104 103.235 360.299 101.183 359 98.5642C357.701 95.9452 357.051 92.9138 357.051 89.47C357.051 85.9643 357.701 82.8916 359 80.252C360.299 77.6124 362.104 75.5605 364.413 74.0964C366.744 72.6116 369.445 71.8692 372.518 71.8692C375.632 71.8692 378.343 72.6116 380.653 74.0964C382.983 75.5605 384.798 77.6124 386.097 80.252C386.587 81.2479 388.3 83.4246 390.83 83.4246C393.36 83.4246 395.073 81.2479 395.563 80.252C396.862 77.6124 398.666 75.5605 400.976 74.0964C403.306 72.6116 406.008 71.8692 409.08 71.8692C412.194 71.8692 414.906 72.6116 417.216 74.0964C419.546 75.5605 421.361 77.6124 422.66 80.252C423.959 82.8916 424.609 85.9643 424.609 89.47C424.609 92.9138 423.959 95.9452 422.66 98.5642C421.361 101.183 419.546 103.235 417.216 104.72C414.906 106.184 412.194 106.916 409.08 106.916C406.008 106.916 403.306 106.184 400.976 104.72C398.666 103.235 396.862 101.183 395.563 98.5642C395.073 97.5761 393.353 95.4237 390.83 95.4237C388.306 95.4237 386.587 97.5761 386.097 98.5642C384.798 101.183 382.983 103.235 380.653 104.72C378.343 106.184 375.632 106.916 372.518 106.916ZM378.086 100.358C376.601 101.472 374.745 102.029 372.518 102.029C370.332 102.029 368.497 101.472 367.012 100.358C365.548 99.2447 364.434 97.7393 363.671 95.8421C362.929 93.9449 362.557 91.8209 362.557 89.47C362.557 87.0778 362.929 84.9229 363.671 83.005C364.434 81.0872 365.548 79.5715 367.012 78.4579C368.497 77.3237 370.332 76.7566 372.518 76.7566C374.745 76.7566 376.601 77.3237 378.086 78.4579C379.57 79.5715 380.684 81.0872 381.426 83.005C382.169 84.9229 382.54 87.0778 382.54 89.47C382.54 91.8209 382.169 93.9449 381.426 95.8421C380.684 97.7393 379.57 99.2447 378.086 100.358ZM414.648 100.358C413.163 101.472 411.307 102.029 409.08 102.029C406.894 102.029 405.059 101.472 403.574 100.358C402.11 99.2447 400.997 97.7393 400.234 95.8421C399.491 93.9449 399.12 91.8209 399.12 89.47C399.12 87.0778 399.491 84.9229 400.234 83.005C400.997 81.0872 402.11 79.5715 403.574 78.4579C405.059 77.3237 406.894 76.7566 409.08 76.7566C411.307 76.7566 413.163 77.3237 414.648 78.4579C416.133 79.5715 417.247 81.0872 417.989 83.005C418.731 84.9229 419.102 87.0778 419.102 89.47C419.102 91.8209 418.731 93.9449 417.989 95.8421C417.247 97.7393 416.133 99.2447 414.648 100.358Z" fill="black"/>
<path d="M187.942 51.1736H176.806V46.1007H187.571C191.345 46.1007 194.469 45.3789 196.944 43.9354C199.418 42.4712 201.264 40.3884 202.481 37.687C203.718 34.9855 204.336 31.7685 204.336 28.036C204.336 24.3446 203.728 21.1689 202.511 18.5087C201.315 15.8278 199.511 13.7657 197.098 12.3221C194.706 10.8786 191.716 10.1568 188.128 10.1568H176.559V5.08386H188.53C193.025 5.08386 196.861 6.00153 200.037 7.83688C203.233 9.67222 205.687 12.3118 207.399 15.7557C209.11 19.1789 209.966 23.2723 209.966 28.036C209.966 32.8408 209.1 36.9755 207.368 40.44C205.656 43.8838 203.161 46.5337 199.882 48.3897C196.603 50.2457 192.623 51.1736 187.942 51.1736ZM179.343 5.08386V51.1736H173.62V5.08386H179.343Z" stroke="black" stroke-width="4" stroke-linejoin="round" mask="url(#path-2-outside-2_600_18)"/>
<path d="M231.867 51.916C228.588 51.916 225.773 51.184 223.422 49.7198C221.071 48.235 219.267 46.1832 218.009 43.5642C216.751 40.9452 216.122 37.9241 216.122 34.5009C216.122 31.0571 216.751 28.0153 218.009 25.3757C219.287 22.7155 221.071 20.6327 223.36 19.1273C225.649 17.6219 228.309 16.8692 231.341 16.8692C233.362 16.8692 235.269 17.2198 237.063 17.9209C238.878 18.6221 240.476 19.6944 241.858 21.138C243.24 22.5609 244.322 24.355 245.106 26.5203C245.91 28.6649 246.312 31.1911 246.312 34.0988V36.0166H219.463V31.4076H243.312L240.868 33.078C240.868 30.8302 240.497 28.8505 239.754 27.1389C239.012 25.4273 237.929 24.0972 236.507 23.1486C235.084 22.2 233.362 21.7257 231.341 21.7257C229.32 21.7257 227.577 22.2103 226.113 23.1795C224.649 24.1281 223.525 25.4273 222.741 27.077C221.958 28.7062 221.566 30.5415 221.566 32.5831V35.3051C221.566 37.7179 221.978 39.811 222.803 41.5845C223.649 43.3374 224.845 44.6881 226.392 45.6367C227.938 46.5853 229.763 47.0596 231.867 47.0596C233.31 47.0596 234.599 46.8431 235.733 46.41C236.888 45.9769 237.857 45.348 238.641 44.5231C239.445 43.6982 240.033 42.6981 240.404 41.5226L245.755 42.3578C245.261 44.255 244.363 45.9254 243.064 47.3689C241.786 48.7918 240.188 49.9054 238.27 50.7097C236.372 51.5139 234.238 51.916 231.867 51.916Z" stroke="black" stroke-width="4" stroke-linejoin="round" mask="url(#path-2-outside-2_600_18)"/>
<path d="M264.996 51.916C262.645 51.916 260.531 51.5551 258.654 50.8334C256.798 50.1116 255.272 49.029 254.076 47.5854C252.901 46.1213 252.169 44.3169 251.88 42.1722L257.108 41.4608C257.479 43.3786 258.335 44.8118 259.675 45.7604C261.016 46.709 262.768 47.1833 264.934 47.1833C267.264 47.1833 269.12 46.6884 270.502 45.6985C271.883 44.7087 272.574 43.492 272.574 42.0485C272.574 40.8524 272.141 39.8729 271.275 39.1099C270.409 38.3262 269.172 37.7488 267.563 37.3776L262.026 36.0785C258.953 35.3361 256.644 34.1916 255.097 32.6449C253.55 31.0983 252.777 29.1186 252.777 26.7058C252.777 24.788 253.303 23.0867 254.355 21.6019C255.427 20.1172 256.891 18.9624 258.747 18.1375C260.624 17.292 262.768 16.8692 265.181 16.8692C267.491 16.8692 269.512 17.2611 271.244 18.0447C272.976 18.8077 274.358 19.8903 275.389 21.2926C276.441 22.6743 277.132 24.3034 277.461 26.18L272.358 26.8914C272.089 25.4273 271.368 24.1694 270.192 23.1176C269.017 22.0453 267.346 21.5091 265.181 21.5091C263.14 21.5091 261.469 21.9938 260.17 22.963C258.892 23.9116 258.252 25.0973 258.252 26.5203C258.252 27.7782 258.706 28.7887 259.613 29.5517C260.541 30.3147 261.913 30.9127 263.727 31.3458L268.986 32.5831C272.12 33.3255 274.43 34.4597 275.915 35.9857C277.4 37.4911 278.142 39.4295 278.142 41.801C278.142 43.822 277.575 45.5954 276.441 47.1215C275.327 48.6268 273.78 49.8023 271.801 50.6478C269.821 51.4933 267.553 51.916 264.996 51.916Z" stroke="black" stroke-width="4" stroke-linejoin="round" mask="url(#path-2-outside-2_600_18)"/>
<path d="M285.411 51.1736V17.457H290.824V51.1736H285.411ZM285.195 11.0848V5.08386H291.072V11.0848H285.195Z" stroke="black" stroke-width="4" stroke-linejoin="round" mask="url(#path-2-outside-2_600_18)"/>
<path d="M313.622 64.7222C311.106 64.7222 308.889 64.3716 306.971 63.6705C305.074 62.9693 303.497 61.9898 302.239 60.7319C301.001 59.4946 300.125 58.051 299.609 56.4013L304.497 54.7618C304.909 55.6692 305.497 56.5147 306.26 57.2983C307.023 58.082 308.002 58.7212 309.198 59.2162C310.395 59.7111 311.869 59.9585 313.622 59.9585C316.426 59.9585 318.685 59.2471 320.396 57.8242C322.108 56.4219 322.964 54.3185 322.964 51.5139V45.4511H322.654C322.077 46.3791 321.355 47.2761 320.489 48.1422C319.643 49.0084 318.571 49.7301 317.272 50.3075C315.973 50.8643 314.385 51.1427 312.508 51.1427C309.704 51.1427 307.208 50.4622 305.023 49.1012C302.857 47.7401 301.156 45.7913 299.919 43.2549C298.702 40.7184 298.094 37.7076 298.094 34.2225C298.094 30.7374 298.702 27.706 299.919 25.1283C301.135 22.5299 302.837 20.5193 305.023 19.0964C307.208 17.6529 309.724 16.9311 312.57 16.9311C314.426 16.9311 316.014 17.2198 317.334 17.7972C318.654 18.3746 319.747 19.117 320.613 20.0244C321.499 20.9317 322.221 21.8494 322.778 22.7774H323.087V17.457H328.377V51.6686C328.377 54.7412 327.707 57.2365 326.366 59.1543C325.026 61.0927 323.232 62.5053 320.984 63.3921C318.757 64.2788 316.303 64.7222 313.622 64.7222ZM313.374 46.2863C315.437 46.2863 317.2 45.8017 318.664 44.8324C320.128 43.8426 321.242 42.4403 322.005 40.6256C322.768 38.7902 323.149 36.6353 323.149 34.1606C323.149 31.686 322.768 29.531 322.005 27.6957C321.242 25.8397 320.128 24.3962 318.664 23.3651C317.22 22.3134 315.457 21.7875 313.374 21.7875C311.312 21.7875 309.549 22.3031 308.085 23.3342C306.641 24.3653 305.528 25.8088 304.744 27.6648C303.981 29.5207 303.6 31.686 303.6 34.1606C303.6 36.6559 303.981 38.8109 304.744 40.6256C305.528 42.4403 306.652 43.8426 308.116 44.8324C309.58 45.8017 311.333 46.2863 313.374 46.2863Z" stroke="black" stroke-width="4" stroke-linejoin="round" mask="url(#path-2-outside-2_600_18)"/>
<path d="M342.668 31.1602V51.1736H337.254V17.457H342.513V25.6232H341.43C342.482 22.5299 343.977 20.3131 345.916 18.9727C347.854 17.6116 350.122 16.9311 352.721 16.9311C354.989 16.9311 357.01 17.4157 358.784 18.3849C360.578 19.3335 361.98 20.7668 362.991 22.6846C364.022 24.6024 364.537 27.0255 364.537 29.9538V51.1736H359.124V30.3868C359.124 27.6441 358.433 25.5407 357.051 24.0766C355.67 22.5918 353.773 21.8494 351.36 21.8494C349.731 21.8494 348.256 22.2 346.936 22.9011C345.637 23.5816 344.596 24.6127 343.812 25.9944C343.049 27.3554 342.668 29.0774 342.668 31.1602Z" stroke="black" stroke-width="4" stroke-linejoin="round" mask="url(#path-2-outside-2_600_18)"/>
<path d="M182.22 106.174L169.661 60.0839H175.476L182.869 88.5729C183.261 90.0783 183.632 91.594 183.983 93.12C184.333 94.646 184.674 96.1824 185.004 97.729C185.333 99.2756 185.643 100.843 185.932 102.431H185.251C185.56 100.843 185.88 99.2756 186.21 97.729C186.54 96.1824 186.88 94.646 187.231 93.12C187.602 91.594 187.983 90.0783 188.375 88.5729L195.892 60.0839H202.481L209.935 88.5729C210.348 90.0783 210.729 91.594 211.08 93.12C211.451 94.646 211.812 96.1824 212.162 97.729C212.513 99.2756 212.843 100.843 213.152 102.431H212.348C212.657 100.843 212.977 99.2756 213.307 97.729C213.637 96.1824 213.988 94.646 214.359 93.12C214.73 91.594 215.101 90.0783 215.472 88.5729L222.834 60.0839H228.711L216.091 106.174H209.409L201.429 76.7566C200.893 74.7769 200.387 72.7147 199.913 70.5701C199.459 68.4048 199.006 66.0539 198.552 63.5174H199.758C199.325 65.9508 198.882 68.2398 198.428 70.3845C197.995 72.5085 197.49 74.6326 196.913 76.7566L188.932 106.174H182.22Z" stroke="black" stroke-width="4" stroke-linejoin="round" mask="url(#path-2-outside-2_600_18)"/>
<path d="M240.961 106.854C238.775 106.854 236.806 106.462 235.053 105.679C233.3 104.874 231.908 103.709 230.877 102.183C229.866 100.637 229.361 98.7498 229.361 96.5226C229.361 94.5842 229.732 93.0169 230.475 91.8209C231.238 90.6042 232.258 89.6556 233.537 88.975C234.816 88.2739 236.238 87.748 237.806 87.3975C239.373 87.0469 240.971 86.7685 242.6 86.5623C244.662 86.2736 246.323 86.057 247.58 85.9127C248.838 85.7683 249.756 85.5312 250.333 85.2012C250.911 84.8507 251.2 84.263 251.2 83.4381V83.1906C251.2 81.8502 250.921 80.7057 250.364 79.7571C249.808 78.7879 248.993 78.0352 247.921 77.499C246.848 76.9628 245.529 76.6947 243.961 76.6947C242.373 76.6947 240.992 76.9525 239.816 77.4681C238.641 77.9836 237.692 78.6538 236.971 79.4787C236.269 80.2829 235.795 81.1491 235.548 82.077L230.196 81.0872C230.732 79.0456 231.671 77.3546 233.011 76.0142C234.352 74.6532 235.96 73.6324 237.837 72.9519C239.713 72.2714 241.724 71.9311 243.869 71.9311C245.353 71.9311 246.838 72.127 248.323 72.5188C249.828 72.89 251.2 73.519 252.437 74.4057C253.695 75.2718 254.695 76.4576 255.437 77.963C256.2 79.4478 256.582 81.2934 256.582 83.4999V106.174H251.231V101.503H250.983C250.591 102.286 249.983 103.101 249.158 103.946C248.333 104.771 247.251 105.462 245.91 106.019C244.57 106.576 242.92 106.854 240.961 106.854ZM241.827 102.029C243.91 102.029 245.642 101.637 247.024 100.853C248.426 100.049 249.467 99.0179 250.148 97.7599C250.849 96.4814 251.2 95.141 251.2 93.7387V89.2534C250.973 89.4803 250.519 89.6968 249.839 89.903C249.179 90.0886 248.395 90.2639 247.488 90.4289C246.601 90.5939 245.694 90.7382 244.766 90.8619C243.858 90.9857 243.054 91.0888 242.353 91.1713C241.054 91.3362 239.827 91.6249 238.672 92.0374C237.517 92.4292 236.589 93.0066 235.888 93.7696C235.187 94.512 234.836 95.5328 234.836 96.832C234.836 97.9455 235.125 98.8941 235.702 99.6778C236.3 100.441 237.125 101.028 238.177 101.441C239.229 101.833 240.445 102.029 241.827 102.029Z" stroke="black" stroke-width="4" stroke-linejoin="round" mask="url(#path-2-outside-2_600_18)"/>
<path d="M279.379 72.457V77.0969H261.593V72.457H279.379ZM267.068 63.9195H272.481V97.6671C272.481 99.09 272.77 100.111 273.347 100.729C273.945 101.348 274.946 101.657 276.348 101.657C276.76 101.657 277.235 101.637 277.771 101.596C278.328 101.554 278.833 101.503 279.287 101.441L279.905 106.081C279.348 106.184 278.719 106.266 278.018 106.328C277.338 106.39 276.678 106.421 276.039 106.421C273.131 106.421 270.904 105.71 269.357 104.287C267.831 102.864 267.068 100.822 267.068 98.1621V63.9195Z" stroke="black" stroke-width="4" stroke-linejoin="round" mask="url(#path-2-outside-2_600_18)"/>
<path d="M299.238 106.916C295.959 106.916 293.144 106.184 290.794 104.72C288.443 103.235 286.638 101.183 285.38 98.5642C284.122 95.9452 283.493 92.9241 283.493 89.5009C283.493 86.0571 284.122 83.0153 285.38 80.3757C286.659 77.7155 288.443 75.6327 290.732 74.1273C293.021 72.6219 295.681 71.8692 298.712 71.8692C300.733 71.8692 302.641 72.2198 304.435 72.921C306.25 73.6221 307.848 74.6944 309.229 76.138C310.611 77.5609 311.694 79.355 312.477 81.5202C313.282 83.6649 313.684 86.1911 313.684 89.0988V91.0166H286.834V86.4076H310.683L308.24 88.078C308.24 85.8302 307.868 83.8505 307.126 82.1389C306.384 80.4273 305.301 79.0972 303.878 78.1486C302.455 77.2 300.733 76.7257 298.712 76.7257C296.691 76.7257 294.949 77.2103 293.485 78.1795C292.02 79.1281 290.897 80.4273 290.113 82.077C289.329 83.7062 288.938 85.5415 288.938 87.5831V90.3051C288.938 92.7179 289.35 94.811 290.175 96.5845C291.02 98.3374 292.216 99.6881 293.763 100.637C295.31 101.585 297.135 102.06 299.238 102.06C300.682 102.06 301.971 101.843 303.105 101.41C304.26 100.977 305.229 100.348 306.012 99.5231C306.817 98.6982 307.404 97.6981 307.776 96.5226L313.127 97.3578C312.632 99.255 311.735 100.925 310.436 102.369C309.157 103.792 307.559 104.905 305.641 105.71C303.744 106.514 301.61 106.916 299.238 106.916Z" stroke="black" stroke-width="4" stroke-linejoin="round" mask="url(#path-2-outside-2_600_18)"/>
<path d="M320.798 106.174V72.457H325.995V77.6846H326.273C326.892 75.9524 327.944 74.5707 329.428 73.5396C330.913 72.4879 332.687 71.962 334.749 71.962C335.182 71.962 335.646 71.9723 336.141 71.993C336.636 72.0136 337.017 72.0445 337.285 72.0858V77.5299C337.12 77.4887 336.718 77.4268 336.079 77.3443C335.46 77.2412 334.77 77.1897 334.007 77.1897C332.563 77.1897 331.243 77.5093 330.047 78.1486C328.872 78.7672 327.933 79.6746 327.232 80.8707C326.552 82.0667 326.211 83.5103 326.211 85.2012V106.174H320.798Z" stroke="black" stroke-width="4" stroke-linejoin="round" mask="url(#path-2-outside-2_600_18)"/>
<path d="M351.391 106.297C348.607 106.297 346.576 105.668 345.297 104.41C344.018 103.132 343.379 101.204 343.379 98.6261V60.0839H348.792V97.6053C348.792 99.1107 348.999 100.142 349.411 100.699C349.823 101.255 350.648 101.534 351.886 101.534C352.298 101.534 352.638 101.523 352.906 101.503C353.195 101.482 353.453 101.451 353.68 101.41L354.298 106.019C353.927 106.101 353.484 106.163 352.968 106.205C352.453 106.266 351.927 106.297 351.391 106.297Z" stroke="black" stroke-width="4" stroke-linejoin="round" mask="url(#path-2-outside-2_600_18)"/>
<path fill-rule="evenodd" clip-rule="evenodd" d="M372.518 106.916C369.445 106.916 366.744 106.184 364.413 104.72C362.104 103.235 360.299 101.183 359 98.5642C357.701 95.9452 357.051 92.9138 357.051 89.47C357.051 85.9643 357.701 82.8916 359 80.252C360.299 77.6124 362.104 75.5605 364.413 74.0964C366.744 72.6116 369.445 71.8692 372.518 71.8692C375.632 71.8692 378.343 72.6116 380.653 74.0964C382.983 75.5605 384.798 77.6124 386.097 80.252C386.587 81.2479 388.3 83.4246 390.83 83.4246C393.36 83.4246 395.073 81.2479 395.563 80.252C396.862 77.6124 398.666 75.5605 400.976 74.0964C403.306 72.6116 406.008 71.8692 409.08 71.8692C412.194 71.8692 414.906 72.6116 417.216 74.0964C419.546 75.5605 421.361 77.6124 422.66 80.252C423.959 82.8916 424.609 85.9643 424.609 89.47C424.609 92.9138 423.959 95.9452 422.66 98.5642C421.361 101.183 419.546 103.235 417.216 104.72C414.906 106.184 412.194 106.916 409.08 106.916C406.008 106.916 403.306 106.184 400.976 104.72C398.666 103.235 396.862 101.183 395.563 98.5642C395.073 97.5761 393.353 95.4237 390.83 95.4237C388.306 95.4237 386.587 97.5761 386.097 98.5642C384.798 101.183 382.983 103.235 380.653 104.72C378.343 106.184 375.632 106.916 372.518 106.916ZM378.086 100.358C376.601 101.472 374.745 102.029 372.518 102.029C370.332 102.029 368.497 101.472 367.012 100.358C365.548 99.2447 364.434 97.7393 363.671 95.8421C362.929 93.9449 362.557 91.8209 362.557 89.47C362.557 87.0778 362.929 84.9229 363.671 83.005C364.434 81.0872 365.548 79.5715 367.012 78.4579C368.497 77.3237 370.332 76.7566 372.518 76.7566C374.745 76.7566 376.601 77.3237 378.086 78.4579C379.57 79.5715 380.684 81.0872 381.426 83.005C382.169 84.9229 382.54 87.0778 382.54 89.47C382.54 91.8209 382.169 93.9449 381.426 95.8421C380.684 97.7393 379.57 99.2447 378.086 100.358ZM414.648 100.358C413.163 101.472 411.307 102.029 409.08 102.029C406.894 102.029 405.059 101.472 403.574 100.358C402.11 99.2447 400.997 97.7393 400.234 95.8421C399.491 93.9449 399.12 91.8209 399.12 89.47C399.12 87.0778 399.491 84.9229 400.234 83.005C400.997 81.0872 402.11 79.5715 403.574 78.4579C405.059 77.3237 406.894 76.7566 409.08 76.7566C411.307 76.7566 413.163 77.3237 414.648 78.4579C416.133 79.5715 417.247 81.0872 417.989 83.005C418.731 84.9229 419.102 87.0778 419.102 89.47C419.102 91.8209 418.731 93.9449 417.989 95.8421C417.247 97.7393 416.133 99.2447 414.648 100.358Z" stroke="black" stroke-width="4" stroke-linejoin="round" mask="url(#path-2-outside-2_600_18)"/>
</svg>
