<svg width="412" height="115" viewBox="0 0 412 115" fill="none" xmlns="http://www.w3.org/2000/svg">
<mask id="path-1-outside-1_600_18" maskUnits="userSpaceOnUse" x="3.4812" y="5.33203" width="129" height="104" fill="black">
<rect fill="white" x="3.4812" y="5.33203" width="129" height="104"/>
<path fill-rule="evenodd" clip-rule="evenodd" d="M52.6096 14.472C43.6423 11.7842 36.8293 12.8583 33.0628 16.6248C31.0935 18.594 29.8602 21.3961 29.5158 24.9035C31.726 25.1954 33.9785 25.6931 36.2312 26.3684C39.9075 27.4703 43.7061 29.0724 47.5187 31.1335C48.5994 29.9327 49.7238 28.7469 50.8905 27.5802C54.3887 24.0821 58.0578 20.9639 61.7928 18.2655C58.6489 16.627 55.5597 15.3563 52.6096 14.472ZM68.0861 14.1489C63.5128 11.4599 58.9285 9.41935 54.5201 8.098C44.5987 5.1242 34.683 5.59418 28.3576 11.9196C24.9546 15.3226 23.2463 19.7649 22.8573 24.6881C17.9261 25.074 13.4764 26.7823 10.0687 30.1899C3.74335 36.5153 3.27337 46.4311 6.24717 56.3524C9.26502 66.4207 16.0345 77.4067 25.7117 87.0839C35.3889 96.7611 46.3748 103.531 56.4431 106.548C60.2054 107.676 63.9669 108.309 67.5322 108.314C71.4127 108.449 75.5553 107.808 79.6989 106.566C89.7672 103.548 100.753 96.7788 110.43 87.1016C120.108 77.4244 126.877 66.4384 129.895 56.3701C132.869 46.4488 132.399 36.533 126.073 30.2076C122.666 26.8 118.216 25.0917 113.285 24.7058C112.896 19.7826 111.188 15.3403 107.784 11.9373C101.459 5.61189 91.5433 5.14191 81.622 8.1157C77.2233 9.43416 72.6494 11.4687 68.0861 14.1489ZM68.0843 21.9978C63.854 24.8123 59.625 28.2561 55.5957 32.2854C54.8206 33.0605 54.0672 33.843 53.3357 34.6315C58.0075 37.728 62.6171 41.4872 66.9627 45.8328C67.3394 46.2096 67.7117 46.5883 68.0796 46.9689C68.4419 46.5943 68.8085 46.2214 69.1794 45.8506C73.5313 41.4986 78.1479 37.7348 82.8267 34.6357C82.0889 33.8398 81.3286 33.05 80.5463 32.2677C76.5255 28.2469 72.3058 24.8091 68.0843 21.9978ZM88.6449 31.1396C87.5576 29.9306 86.426 28.7369 85.2515 27.5625C81.7623 24.0732 78.1029 20.962 74.3777 18.2684C77.5118 16.637 80.5912 15.3713 83.5325 14.4897C92.4998 11.8019 99.3128 12.876 103.079 16.6425C105.049 18.6117 106.282 21.4138 106.626 24.9212C104.416 25.2131 102.164 25.7108 99.9109 26.3861C96.2415 27.4859 92.4502 29.0841 88.6449 31.1396ZM87.1889 39.7333C82.6873 42.6424 78.1728 46.2675 73.8846 50.5558C73.429 51.0114 72.9808 51.4696 72.5402 51.93C76.9485 57.2099 80.5182 62.7217 83.1296 68.1494C84.584 66.8816 86.0225 65.5399 87.4363 64.126C90.6915 60.8708 93.5646 57.4853 96.0324 54.074C93.9189 49.3847 90.9495 44.5072 87.1889 39.7333ZM100.245 47.5572C98.2629 43.8111 95.8349 40.0465 93.0004 36.3663C96.0193 34.8179 98.9846 33.6103 101.821 32.76C103.382 32.2924 104.877 31.9386 106.302 31.6931C106.056 33.1229 105.701 34.6232 105.232 36.1892C104.144 39.8204 102.47 43.662 100.245 47.5572ZM98.7139 61.521C96.7056 64.0144 94.5107 66.462 92.1415 68.8312C90.0797 70.8931 87.9584 72.823 85.7992 74.6127C86.0238 75.2666 86.2333 75.9174 86.4272 76.5643C87.1044 78.8239 87.6031 81.0831 87.8946 83.2997C91.4094 82.9575 94.217 81.7235 96.1893 79.7512C99.7692 76.1713 100.917 69.8392 98.7139 61.521ZM88.1059 89.9583C93.0371 89.5724 97.4868 87.8641 100.894 84.4564C107.22 78.131 107.69 68.2153 104.716 58.294C104.378 57.1647 103.992 56.0239 103.56 54.8747C107.249 49.2493 109.975 43.5405 111.606 38.0998C112.283 35.8402 112.782 33.5809 113.073 31.3643C116.588 31.7066 119.396 32.9406 121.368 34.9128C125.135 38.6793 126.209 45.4923 123.521 54.4596C120.877 63.2799 114.779 73.3424 105.725 82.3964C99.5872 88.5344 92.9857 93.3138 86.622 96.5794C87.4401 94.5203 87.9214 92.2934 88.1059 89.9583ZM81.1229 82.971C80.8995 81.671 80.5861 80.3128 80.1783 78.8999C78.7649 79.8878 77.3435 80.8154 75.9199 81.6806C76.1617 81.7576 76.4025 81.8321 76.6425 81.904C78.2027 82.3717 79.6978 82.7254 81.1229 82.971ZM68.0909 85.8011C70.3325 86.7966 72.5537 87.6251 74.732 88.278C76.9847 88.9532 79.2372 89.4509 81.4474 89.7428C81.103 93.2502 79.8697 96.0523 77.9004 98.0216C75.5825 100.339 72.1109 101.638 67.6934 101.667C63.6344 101.502 60.4258 100.223 58.2417 98.0393C56.2724 96.07 55.0391 93.2679 54.6947 89.7605C56.9049 89.4686 59.1573 88.9709 61.4101 88.2957C63.6012 87.6389 65.8358 86.8045 68.0909 85.8011ZM68.0885 78.4339C71.2873 76.8104 74.5485 74.8031 77.7829 72.4318C75.5161 67.3794 72.2542 62.1062 68.0782 56.9777C63.9027 62.1028 60.6401 67.3728 58.3712 72.4229C61.6134 74.7989 64.8825 76.8092 68.0885 78.4339ZM55.9723 78.8882C57.3955 79.8827 58.8268 80.816 60.2604 81.6861C60.0058 81.7674 59.7522 81.846 59.4996 81.9217C57.9393 82.3894 56.4443 82.7432 55.0192 82.9887C55.2441 81.6797 55.5603 80.3116 55.9723 78.8882ZM53.0245 68.1422C55.6379 62.7161 59.2089 57.2064 63.6177 51.9288C63.172 51.4628 62.7186 50.9991 62.2575 50.538C57.9751 46.2557 53.4671 42.6346 48.9717 39.7276C45.2081 44.5016 42.2358 49.3796 40.1195 54.0699C42.5851 57.4766 45.4549 60.8575 48.7057 64.1083C50.1235 65.526 51.566 66.8713 53.0245 68.1422ZM37.4353 61.512C39.4416 64.0024 41.6341 66.4471 44.0005 68.8135C46.0654 70.8784 48.1899 72.8109 50.3524 74.6028C50.1241 75.2661 49.9115 75.926 49.7149 76.582C49.0376 78.8416 48.539 81.1008 48.2474 83.3175C44.7326 82.9752 41.925 81.7412 39.9528 79.7689C36.3691 76.1852 35.2228 69.8434 37.4353 61.512ZM35.9064 47.5565C37.8917 43.8079 40.323 40.0409 43.1613 36.3586C40.1356 34.8055 37.1636 33.5945 34.3207 32.7423C32.7605 32.2747 31.2654 31.9209 29.8403 31.6754C30.086 33.1052 30.4406 34.6055 30.91 36.1715C32 39.8079 33.6771 43.6555 35.9064 47.5565ZM23.0686 31.3466C23.3601 33.5632 23.8588 35.8225 24.536 38.082C26.1681 43.527 28.8973 49.2403 32.5903 54.8699C32.1552 56.0267 31.7667 57.175 31.426 58.3117C28.4522 68.233 28.9222 78.1487 35.2476 84.4741C38.6553 87.8818 43.105 89.5901 48.0362 89.976C48.2194 92.2943 48.6951 94.506 49.5025 96.5527C43.1442 93.2873 36.5492 88.511 30.4169 82.3787C21.3629 73.3247 15.2649 63.2622 12.6212 54.4419C9.93333 45.4746 11.0075 38.6616 14.7739 34.8951C16.7462 32.9229 19.5538 31.6889 23.0686 31.3466Z"/>
</mask>
<path fill-rule="evenodd" clip-rule="evenodd" d="M52.6096 14.472C43.6423 11.7842 36.8293 12.8583 33.0628 16.6248C31.0935 18.594 29.8602 21.3961 29.5158 24.9035C31.726 25.1954 33.9785 25.6931 36.2312 26.3684C39.9075 27.4703 43.7061 29.0724 47.5187 31.1335C48.5994 29.9327 49.7238 28.7469 50.8905 27.5802C54.3887 24.0821 58.0578 20.9639 61.7928 18.2655C58.6489 16.627 55.5597 15.3563 52.6096 14.472ZM68.0861 14.1489C63.5128 11.4599 58.9285 9.41935 54.5201 8.098C44.5987 5.1242 34.683 5.59418 28.3576 11.9196C24.9546 15.3226 23.2463 19.7649 22.8573 24.6881C17.9261 25.074 13.4764 26.7823 10.0687 30.1899C3.74335 36.5153 3.27337 46.4311 6.24717 56.3524C9.26502 66.4207 16.0345 77.4067 25.7117 87.0839C35.3889 96.7611 46.3748 103.531 56.4431 106.548C60.2054 107.676 63.9669 108.309 67.5322 108.314C71.4127 108.449 75.5553 107.808 79.6989 106.566C89.7672 103.548 100.753 96.7788 110.43 87.1016C120.108 77.4244 126.877 66.4384 129.895 56.3701C132.869 46.4488 132.399 36.533 126.073 30.2076C122.666 26.8 118.216 25.0917 113.285 24.7058C112.896 19.7826 111.188 15.3403 107.784 11.9373C101.459 5.61189 91.5433 5.14191 81.622 8.1157C77.2233 9.43416 72.6494 11.4687 68.0861 14.1489ZM68.0843 21.9978C63.854 24.8123 59.625 28.2561 55.5957 32.2854C54.8206 33.0605 54.0672 33.843 53.3357 34.6315C58.0075 37.728 62.6171 41.4872 66.9627 45.8328C67.3394 46.2096 67.7117 46.5883 68.0796 46.9689C68.4419 46.5943 68.8085 46.2214 69.1794 45.8506C73.5313 41.4986 78.1479 37.7348 82.8267 34.6357C82.0889 33.8398 81.3286 33.05 80.5463 32.2677C76.5255 28.2469 72.3058 24.8091 68.0843 21.9978ZM88.6449 31.1396C87.5576 29.9306 86.426 28.7369 85.2515 27.5625C81.7623 24.0732 78.1029 20.962 74.3777 18.2684C77.5118 16.637 80.5912 15.3713 83.5325 14.4897C92.4998 11.8019 99.3128 12.876 103.079 16.6425C105.049 18.6117 106.282 21.4138 106.626 24.9212C104.416 25.2131 102.164 25.7108 99.9109 26.3861C96.2415 27.4859 92.4502 29.0841 88.6449 31.1396ZM87.1889 39.7333C82.6873 42.6424 78.1728 46.2675 73.8846 50.5558C73.429 51.0114 72.9808 51.4696 72.5402 51.93C76.9485 57.2099 80.5182 62.7217 83.1296 68.1494C84.584 66.8816 86.0225 65.5399 87.4363 64.126C90.6915 60.8708 93.5646 57.4853 96.0324 54.074C93.9189 49.3847 90.9495 44.5072 87.1889 39.7333ZM100.245 47.5572C98.2629 43.8111 95.8349 40.0465 93.0004 36.3663C96.0193 34.8179 98.9846 33.6103 101.821 32.76C103.382 32.2924 104.877 31.9386 106.302 31.6931C106.056 33.1229 105.701 34.6232 105.232 36.1892C104.144 39.8204 102.47 43.662 100.245 47.5572ZM98.7139 61.521C96.7056 64.0144 94.5107 66.462 92.1415 68.8312C90.0797 70.8931 87.9584 72.823 85.7992 74.6127C86.0238 75.2666 86.2333 75.9174 86.4272 76.5643C87.1044 78.8239 87.6031 81.0831 87.8946 83.2997C91.4094 82.9575 94.217 81.7235 96.1893 79.7512C99.7692 76.1713 100.917 69.8392 98.7139 61.521ZM88.1059 89.9583C93.0371 89.5724 97.4868 87.8641 100.894 84.4564C107.22 78.131 107.69 68.2153 104.716 58.294C104.378 57.1647 103.992 56.0239 103.56 54.8747C107.249 49.2493 109.975 43.5405 111.606 38.0998C112.283 35.8402 112.782 33.5809 113.073 31.3643C116.588 31.7066 119.396 32.9406 121.368 34.9128C125.135 38.6793 126.209 45.4923 123.521 54.4596C120.877 63.2799 114.779 73.3424 105.725 82.3964C99.5872 88.5344 92.9857 93.3138 86.622 96.5794C87.4401 94.5203 87.9214 92.2934 88.1059 89.9583ZM81.1229 82.971C80.8995 81.671 80.5861 80.3128 80.1783 78.8999C78.7649 79.8878 77.3435 80.8154 75.9199 81.6806C76.1617 81.7576 76.4025 81.8321 76.6425 81.904C78.2027 82.3717 79.6978 82.7254 81.1229 82.971ZM68.0909 85.8011C70.3325 86.7966 72.5537 87.6251 74.732 88.278C76.9847 88.9532 79.2372 89.4509 81.4474 89.7428C81.103 93.2502 79.8697 96.0523 77.9004 98.0216C75.5825 100.339 72.1109 101.638 67.6934 101.667C63.6344 101.502 60.4258 100.223 58.2417 98.0393C56.2724 96.07 55.0391 93.2679 54.6947 89.7605C56.9049 89.4686 59.1573 88.9709 61.4101 88.2957C63.6012 87.6389 65.8358 86.8045 68.0909 85.8011ZM68.0885 78.4339C71.2873 76.8104 74.5485 74.8031 77.7829 72.4318C75.5161 67.3794 72.2542 62.1062 68.0782 56.9777C63.9027 62.1028 60.6401 67.3728 58.3712 72.4229C61.6134 74.7989 64.8825 76.8092 68.0885 78.4339ZM55.9723 78.8882C57.3955 79.8827 58.8268 80.816 60.2604 81.6861C60.0058 81.7674 59.7522 81.846 59.4996 81.9217C57.9393 82.3894 56.4443 82.7432 55.0192 82.9887C55.2441 81.6797 55.5603 80.3116 55.9723 78.8882ZM53.0245 68.1422C55.6379 62.7161 59.2089 57.2064 63.6177 51.9288C63.172 51.4628 62.7186 50.9991 62.2575 50.538C57.9751 46.2557 53.4671 42.6346 48.9717 39.7276C45.2081 44.5016 42.2358 49.3796 40.1195 54.0699C42.5851 57.4766 45.4549 60.8575 48.7057 64.1083C50.1235 65.526 51.566 66.8713 53.0245 68.1422ZM37.4353 61.512C39.4416 64.0024 41.6341 66.4471 44.0005 68.8135C46.0654 70.8784 48.1899 72.8109 50.3524 74.6028C50.1241 75.2661 49.9115 75.926 49.7149 76.582C49.0376 78.8416 48.539 81.1008 48.2474 83.3175C44.7326 82.9752 41.925 81.7412 39.9528 79.7689C36.3691 76.1852 35.2228 69.8434 37.4353 61.512ZM35.9064 47.5565C37.8917 43.8079 40.323 40.0409 43.1613 36.3586C40.1356 34.8055 37.1636 33.5945 34.3207 32.7423C32.7605 32.2747 31.2654 31.9209 29.8403 31.6754C30.086 33.1052 30.4406 34.6055 30.91 36.1715C32 39.8079 33.6771 43.6555 35.9064 47.5565ZM23.0686 31.3466C23.3601 33.5632 23.8588 35.8225 24.536 38.082C26.1681 43.527 28.8973 49.2403 32.5903 54.8699C32.1552 56.0267 31.7667 57.175 31.426 58.3117C28.4522 68.233 28.9222 78.1487 35.2476 84.4741C38.6553 87.8818 43.105 89.5901 48.0362 89.976C48.2194 92.2943 48.6951 94.506 49.5025 96.5527C43.1442 93.2873 36.5492 88.511 30.4169 82.3787C21.3629 73.3247 15.2649 63.2622 12.6212 54.4419C9.93333 45.4746 11.0075 38.6616 14.7739 34.8951C16.7462 32.9229 19.5538 31.6889 23.0686 31.3466Z" fill="white"/>
<path fill-rule="evenodd" clip-rule="evenodd" d="M52.6096 14.472C43.6423 11.7842 36.8293 12.8583 33.0628 16.6248C31.0935 18.594 29.8602 21.3961 29.5158 24.9035C31.726 25.1954 33.9785 25.6931 36.2312 26.3684C39.9075 27.4703 43.7061 29.0724 47.5187 31.1335C48.5994 29.9327 49.7238 28.7469 50.8905 27.5802C54.3887 24.0821 58.0578 20.9639 61.7928 18.2655C58.6489 16.627 55.5597 15.3563 52.6096 14.472ZM68.0861 14.1489C63.5128 11.4599 58.9285 9.41935 54.5201 8.098C44.5987 5.1242 34.683 5.59418 28.3576 11.9196C24.9546 15.3226 23.2463 19.7649 22.8573 24.6881C17.9261 25.074 13.4764 26.7823 10.0687 30.1899C3.74335 36.5153 3.27337 46.4311 6.24717 56.3524C9.26502 66.4207 16.0345 77.4067 25.7117 87.0839C35.3889 96.7611 46.3748 103.531 56.4431 106.548C60.2054 107.676 63.9669 108.309 67.5322 108.314C71.4127 108.449 75.5553 107.808 79.6989 106.566C89.7672 103.548 100.753 96.7788 110.43 87.1016C120.108 77.4244 126.877 66.4384 129.895 56.3701C132.869 46.4488 132.399 36.533 126.073 30.2076C122.666 26.8 118.216 25.0917 113.285 24.7058C112.896 19.7826 111.188 15.3403 107.784 11.9373C101.459 5.61189 91.5433 5.14191 81.622 8.1157C77.2233 9.43416 72.6494 11.4687 68.0861 14.1489ZM68.0843 21.9978C63.854 24.8123 59.625 28.2561 55.5957 32.2854C54.8206 33.0605 54.0672 33.843 53.3357 34.6315C58.0075 37.728 62.6171 41.4872 66.9627 45.8328C67.3394 46.2096 67.7117 46.5883 68.0796 46.9689C68.4419 46.5943 68.8085 46.2214 69.1794 45.8506C73.5313 41.4986 78.1479 37.7348 82.8267 34.6357C82.0889 33.8398 81.3286 33.05 80.5463 32.2677C76.5255 28.2469 72.3058 24.8091 68.0843 21.9978ZM88.6449 31.1396C87.5576 29.9306 86.426 28.7369 85.2515 27.5625C81.7623 24.0732 78.1029 20.962 74.3777 18.2684C77.5118 16.637 80.5912 15.3713 83.5325 14.4897C92.4998 11.8019 99.3128 12.876 103.079 16.6425C105.049 18.6117 106.282 21.4138 106.626 24.9212C104.416 25.2131 102.164 25.7108 99.9109 26.3861C96.2415 27.4859 92.4502 29.0841 88.6449 31.1396ZM87.1889 39.7333C82.6873 42.6424 78.1728 46.2675 73.8846 50.5558C73.429 51.0114 72.9808 51.4696 72.5402 51.93C76.9485 57.2099 80.5182 62.7217 83.1296 68.1494C84.584 66.8816 86.0225 65.5399 87.4363 64.126C90.6915 60.8708 93.5646 57.4853 96.0324 54.074C93.9189 49.3847 90.9495 44.5072 87.1889 39.7333ZM100.245 47.5572C98.2629 43.8111 95.8349 40.0465 93.0004 36.3663C96.0193 34.8179 98.9846 33.6103 101.821 32.76C103.382 32.2924 104.877 31.9386 106.302 31.6931C106.056 33.1229 105.701 34.6232 105.232 36.1892C104.144 39.8204 102.47 43.662 100.245 47.5572ZM98.7139 61.521C96.7056 64.0144 94.5107 66.462 92.1415 68.8312C90.0797 70.8931 87.9584 72.823 85.7992 74.6127C86.0238 75.2666 86.2333 75.9174 86.4272 76.5643C87.1044 78.8239 87.6031 81.0831 87.8946 83.2997C91.4094 82.9575 94.217 81.7235 96.1893 79.7512C99.7692 76.1713 100.917 69.8392 98.7139 61.521ZM88.1059 89.9583C93.0371 89.5724 97.4868 87.8641 100.894 84.4564C107.22 78.131 107.69 68.2153 104.716 58.294C104.378 57.1647 103.992 56.0239 103.56 54.8747C107.249 49.2493 109.975 43.5405 111.606 38.0998C112.283 35.8402 112.782 33.5809 113.073 31.3643C116.588 31.7066 119.396 32.9406 121.368 34.9128C125.135 38.6793 126.209 45.4923 123.521 54.4596C120.877 63.2799 114.779 73.3424 105.725 82.3964C99.5872 88.5344 92.9857 93.3138 86.622 96.5794C87.4401 94.5203 87.9214 92.2934 88.1059 89.9583ZM81.1229 82.971C80.8995 81.671 80.5861 80.3128 80.1783 78.8999C78.7649 79.8878 77.3435 80.8154 75.9199 81.6806C76.1617 81.7576 76.4025 81.8321 76.6425 81.904C78.2027 82.3717 79.6978 82.7254 81.1229 82.971ZM68.0909 85.8011C70.3325 86.7966 72.5537 87.6251 74.732 88.278C76.9847 88.9532 79.2372 89.4509 81.4474 89.7428C81.103 93.2502 79.8697 96.0523 77.9004 98.0216C75.5825 100.339 72.1109 101.638 67.6934 101.667C63.6344 101.502 60.4258 100.223 58.2417 98.0393C56.2724 96.07 55.0391 93.2679 54.6947 89.7605C56.9049 89.4686 59.1573 88.9709 61.4101 88.2957C63.6012 87.6389 65.8358 86.8045 68.0909 85.8011ZM68.0885 78.4339C71.2873 76.8104 74.5485 74.8031 77.7829 72.4318C75.5161 67.3794 72.2542 62.1062 68.0782 56.9777C63.9027 62.1028 60.6401 67.3728 58.3712 72.4229C61.6134 74.7989 64.8825 76.8092 68.0885 78.4339ZM55.9723 78.8882C57.3955 79.8827 58.8268 80.816 60.2604 81.6861C60.0058 81.7674 59.7522 81.846 59.4996 81.9217C57.9393 82.3894 56.4443 82.7432 55.0192 82.9887C55.2441 81.6797 55.5603 80.3116 55.9723 78.8882ZM53.0245 68.1422C55.6379 62.7161 59.2089 57.2064 63.6177 51.9288C63.172 51.4628 62.7186 50.9991 62.2575 50.538C57.9751 46.2557 53.4671 42.6346 48.9717 39.7276C45.2081 44.5016 42.2358 49.3796 40.1195 54.0699C42.5851 57.4766 45.4549 60.8575 48.7057 64.1083C50.1235 65.526 51.566 66.8713 53.0245 68.1422ZM37.4353 61.512C39.4416 64.0024 41.6341 66.4471 44.0005 68.8135C46.0654 70.8784 48.1899 72.8109 50.3524 74.6028C50.1241 75.2661 49.9115 75.926 49.7149 76.582C49.0376 78.8416 48.539 81.1008 48.2474 83.3175C44.7326 82.9752 41.925 81.7412 39.9528 79.7689C36.3691 76.1852 35.2228 69.8434 37.4353 61.512ZM35.9064 47.5565C37.8917 43.8079 40.323 40.0409 43.1613 36.3586C40.1356 34.8055 37.1636 33.5945 34.3207 32.7423C32.7605 32.2747 31.2654 31.9209 29.8403 31.6754C30.086 33.1052 30.4406 34.6055 30.91 36.1715C32 39.8079 33.6771 43.6555 35.9064 47.5565ZM23.0686 31.3466C23.3601 33.5632 23.8588 35.8225 24.536 38.082C26.1681 43.527 28.8973 49.2403 32.5903 54.8699C32.1552 56.0267 31.7667 57.175 31.426 58.3117C28.4522 68.233 28.9222 78.1487 35.2476 84.4741C38.6553 87.8818 43.105 89.5901 48.0362 89.976C48.2194 92.2943 48.6951 94.506 49.5025 96.5527C43.1442 93.2873 36.5492 88.511 30.4169 82.3787C21.3629 73.3247 15.2649 63.2622 12.6212 54.4419C9.93333 45.4746 11.0075 38.6616 14.7739 34.8951C16.7462 32.9229 19.5538 31.6889 23.0686 31.3466Z" stroke="white" stroke-width="1.2186" mask="url(#path-1-outside-1_600_18)"/>
<path fill-rule="evenodd" clip-rule="evenodd" d="M212.38 33.8867C212.38 30.4949 213 27.4197 214.293 24.7055L214.548 24.1955C215.839 21.7069 217.609 19.6973 219.864 18.2145C222.3 16.6125 225.105 15.836 228.212 15.836C230.285 15.836 232.265 16.1966 234.136 16.9269L234.495 17.0706C236.275 17.8149 237.849 18.9064 239.21 20.3282C240.68 21.8451 241.797 23.7193 242.59 25.9033L242.742 26.3245C243.472 28.4489 243.816 30.8571 243.816 33.5167V35.2802C243.816 36.2958 242.993 37.1191 241.978 37.1191H221.265C221.428 38.0535 221.686 38.8845 222.029 39.6216C222.664 40.9291 223.529 41.8869 224.623 42.5578C225.712 43.2258 227.046 43.5948 228.696 43.5948C229.84 43.5948 230.797 43.4236 231.595 43.119L231.605 43.1145C232.428 42.8057 233.078 42.3749 233.591 41.8349L233.607 41.8179C234.132 41.2796 234.531 40.6156 234.792 39.7895L234.85 39.6306C235.174 38.8581 235.987 38.3948 236.829 38.5261L241.749 39.2939C242.263 39.3741 242.718 39.6677 243.003 40.102C243.288 40.5365 243.376 41.0717 243.244 41.5746C242.716 43.6004 241.751 45.3988 240.358 46.9467L240.359 46.9476C238.987 48.4735 237.289 49.6467 235.3 50.4818L235.301 50.4827C233.298 51.3318 231.086 51.738 228.696 51.738C225.401 51.738 222.462 51 219.959 49.4411L219.949 49.4349C217.482 47.8768 215.595 45.7211 214.296 43.0166C213 40.3196 212.38 37.261 212.38 33.8867ZM224.421 25.0108C225.422 24.3478 226.659 23.9791 228.212 23.9791C229.774 23.9791 230.987 24.342 231.942 24.9785C232.929 25.6365 233.706 26.5695 234.261 27.8491C234.444 28.2724 234.599 28.7241 234.726 29.2041H221.453C221.589 28.7319 221.758 28.2833 221.962 27.8581L221.966 27.85C222.547 26.6259 223.359 25.6987 224.405 25.0207L224.421 25.0108Z" fill="white"/>
<path fill-rule="evenodd" clip-rule="evenodd" d="M188.849 5C193.231 5.00002 197.09 5.89522 200.345 7.77544L200.948 8.1373C203.923 9.99326 206.225 12.5729 207.845 15.8324C209.573 19.2893 210.398 23.3469 210.398 27.9425C210.398 32.5786 209.562 36.6754 207.815 40.1702L207.814 40.1693C206.08 43.6555 203.532 46.3662 200.192 48.2568C196.842 50.1533 192.854 51.0556 188.309 51.0556H175.14C174.124 51.0554 173.301 50.2321 173.301 49.2167V6.83892C173.301 5.82344 174.124 5.0002 175.14 5H180.402H188.849ZM200.033 19.9475C201.017 22.0992 201.544 24.7457 201.544 27.9425C201.544 31.1758 201.007 33.8603 200.004 36.0506L199.999 36.0614C199.031 38.2107 197.587 39.8313 195.649 40.9783C193.732 42.094 191.207 42.7131 187.967 42.7131H182.24V13.3425H188.479C191.537 13.3425 193.935 13.9567 195.777 15.0683L195.783 15.0719C197.662 16.1961 199.072 17.7956 200.025 19.9313L200.033 19.9475Z" fill="white"/>
<path fill-rule="evenodd" clip-rule="evenodd" d="M244.633 86.0103C244.633 85.0339 244.431 84.3185 244.117 83.7844C244.114 83.7796 244.112 83.7748 244.109 83.77C243.791 83.2154 243.321 82.7658 242.634 82.4223C241.969 82.09 241.056 81.8773 239.816 81.8772C238.552 81.8772 237.543 82.0823 236.744 82.433C235.87 82.8164 235.231 83.2828 234.774 83.805L234.774 83.8059C234.294 84.3574 234.004 84.9079 233.857 85.4608C233.609 86.3883 232.69 86.9695 231.746 86.7951L226.825 85.8846C226.323 85.7916 225.881 85.4938 225.607 85.0621C225.333 84.6304 225.251 84.1038 225.381 83.6093C225.945 81.4586 226.954 79.6087 228.437 78.1222L228.709 77.8537C230.086 76.5325 231.71 75.5383 233.558 74.8681C235.499 74.1643 237.561 73.8194 239.731 73.8194C241.26 73.8194 242.782 74.0209 244.295 74.4201C245.891 74.8172 247.357 75.4901 248.68 76.4386C250.099 77.4229 251.203 78.7491 252.004 80.3634L252.161 80.6848C252.921 82.3101 253.259 84.2035 253.259 86.2949V107.143C253.259 108.158 252.436 108.982 251.42 108.982H246.499C245.575 108.981 244.812 108.299 244.682 107.41C243.974 107.911 243.18 108.339 242.313 108.699C240.794 109.33 239.021 109.607 237.057 109.607C234.824 109.607 232.752 109.206 230.874 108.366L230.858 108.359C228.955 107.486 227.407 106.199 226.261 104.503L226.251 104.487L226.246 104.479C225.085 102.702 224.553 100.599 224.553 98.2686C224.553 96.2681 224.934 94.4572 225.853 92.9763L225.857 92.9691C226.727 91.5822 227.899 90.4916 229.347 89.7169L229.857 89.4502C231.059 88.8491 232.361 88.3962 233.754 88.0845C234.879 87.833 236.018 87.6204 237.174 87.447L238.334 87.2862C240.226 87.0215 241.761 86.8211 242.934 86.6864C243.797 86.5874 244.314 86.4494 244.59 86.3407C244.598 86.3143 244.606 86.2832 244.612 86.2474C244.625 86.1752 244.633 86.0941 244.633 86.0103ZM244.633 94.2244V95.7095C244.633 96.6771 244.394 97.607 243.892 98.5227L243.886 98.5317C243.445 99.3476 242.752 100.06 241.724 100.651C240.804 101.173 239.547 101.492 237.853 101.492C236.759 101.492 235.868 101.337 235.15 101.071C234.461 100.798 234.001 100.448 233.688 100.058C233.431 99.7004 233.264 99.2304 233.264 98.5532C233.264 97.6952 233.488 97.2552 233.729 96.9998L233.736 96.9929L233.746 96.9819C234.148 96.5446 234.722 96.1651 235.543 95.8864L235.557 95.8816L235.571 95.8765C236.499 95.545 237.498 95.3086 238.569 95.1726L238.568 95.1717C239.221 95.0947 239.965 94.9997 240.798 94.8861L240.799 94.887C241.682 94.7693 242.547 94.6316 243.394 94.474L243.394 94.4731C243.83 94.3936 244.244 94.3115 244.633 94.2244Z" fill="white"/>
<path d="M176.847 62.9259L177.002 62.9322C177.774 62.9973 178.429 63.5431 178.626 64.3033L185.424 90.4972C185.683 91.4887 185.929 92.4853 186.168 93.4863C186.416 92.485 186.669 91.4881 186.927 90.4963L186.928 90.49L193.84 64.2962L193.885 64.1471C194.144 63.4202 194.836 62.9259 195.618 62.9259H201.676C202.512 62.9259 203.244 63.4907 203.455 64.2997L210.304 90.4738C210.479 91.1423 210.932 92.871 211.095 93.5438C211.322 92.6136 211.608 91.4404 211.836 90.5187C211.837 90.5122 211.839 90.5055 211.841 90.499L218.61 64.3051L218.655 64.1552C218.912 63.4242 219.605 62.9259 220.391 62.9259H225.794C226.368 62.926 226.908 63.1938 227.256 63.6497C227.604 64.1056 227.719 64.6976 227.568 65.2506L215.964 107.628C215.745 108.427 215.018 108.982 214.19 108.982H208.047C207.217 108.982 206.49 108.425 206.272 107.624L198.934 80.5762C198.832 80.1986 198.732 79.8169 198.632 79.4331C198.538 79.7971 198.43 80.2132 198.331 80.5771L190.993 107.624C190.776 108.425 190.049 108.981 189.219 108.982H183.047C182.217 108.981 181.491 108.426 181.273 107.626L169.725 65.2479C169.575 64.6951 169.691 64.104 170.039 63.6488C170.387 63.1934 170.927 62.9259 171.5 62.9259H176.847Z" fill="white"/>
<path fill-rule="evenodd" clip-rule="evenodd" d="M274.325 91.8126C274.325 88.4207 274.946 85.3457 276.239 82.6315L276.242 82.6261C277.55 79.9035 279.404 77.7221 281.809 76.1405C284.245 74.5383 287.051 73.7619 290.158 73.7619C292.231 73.762 294.21 74.1227 296.081 74.8529C298.008 75.5975 299.704 76.7374 301.156 78.2542C302.626 79.771 303.743 81.6453 304.536 83.8293L304.687 84.2504C305.417 86.3748 305.761 88.783 305.761 91.4427V93.2062C305.761 94.2218 304.938 95.0451 303.923 95.0451H283.211C283.372 95.9705 283.626 96.7951 283.964 97.5269L284.086 97.7702C284.709 98.9645 285.537 99.8516 286.568 100.484C287.657 101.152 288.991 101.521 290.641 101.521C291.785 101.521 292.742 101.35 293.54 101.045L293.55 101.04C294.373 100.732 295.023 100.301 295.536 99.7609L295.539 99.7575L295.546 99.7513L295.553 99.7438C296.078 99.2056 296.477 98.5415 296.737 97.7155L296.795 97.5565C297.119 96.7841 297.932 96.3208 298.774 96.4521L303.694 97.2198C304.208 97.2999 304.664 97.5934 304.949 98.0279C305.234 98.4625 305.321 98.9977 305.19 99.5005C304.662 101.526 303.696 103.325 302.304 104.873C300.932 106.399 299.234 107.573 297.245 108.408C295.242 109.257 293.031 109.664 290.641 109.664C287.346 109.664 284.407 108.926 281.904 107.367L281.894 107.361C279.427 105.803 277.541 103.647 276.242 100.943C274.946 98.2456 274.325 95.187 274.325 91.8126ZM286.366 82.9368C287.367 82.2737 288.604 81.9051 290.158 81.9051C291.72 81.9051 292.932 82.2681 293.887 82.9044C294.874 83.5624 295.651 84.4955 296.206 85.7751C296.389 86.1984 296.544 86.65 296.672 87.13H283.398C283.534 86.6578 283.704 86.2094 283.908 85.784L283.912 85.776C284.493 84.5519 285.304 83.6246 286.35 82.9466L286.366 82.9368Z" fill="white"/>
<path d="M269.595 101.151C269.915 101.151 270.302 101.135 270.761 101.1H270.766C271.248 101.064 271.675 101.019 272.048 100.969L272.229 100.953C272.653 100.938 273.071 101.069 273.411 101.329C273.799 101.625 274.055 102.064 274.119 102.548L274.687 106.814C274.817 107.785 274.163 108.687 273.2 108.866C272.62 108.973 271.983 109.055 271.295 109.115L271.296 109.116C270.619 109.178 269.957 109.209 269.31 109.209C266.353 109.209 263.794 108.484 261.921 106.761L261.912 106.753C260.039 105.007 259.223 102.583 259.223 99.7762V82.2463H256.027C255.012 82.246 254.188 81.4228 254.188 80.4073V76.1414C254.188 75.1259 255.012 74.3027 256.027 74.3025H259.223V68.2919C259.223 67.2762 260.046 66.4529 261.062 66.4529H266.039C267.054 66.4529 267.878 67.2762 267.878 68.2919V74.3025H272.382C273.397 74.3026 274.221 75.1259 274.221 76.1414V80.4073C274.221 81.4229 273.397 82.2461 272.382 82.2463H267.878V99.3209C267.878 100.38 268.091 100.767 268.166 100.864C268.228 100.921 268.554 101.151 269.595 101.151Z" fill="white"/>
<path d="M327.463 80.806C327.463 81.3722 327.202 81.9068 326.755 82.2552C326.309 82.6037 325.727 82.7274 325.178 82.5902L325.174 82.5894C325.154 82.5857 325.089 82.5733 324.953 82.5525C324.789 82.5272 324.566 82.496 324.279 82.4591C324.257 82.4562 324.234 82.4529 324.212 82.4492C323.762 82.3742 323.23 82.3316 322.609 82.3316C321.564 82.3316 320.651 82.56 319.835 82.996L319.824 83.0023C319.064 83.4026 318.45 83.9858 317.972 84.7981C317.54 85.5624 317.281 86.5573 317.281 87.8591V107.143C317.281 108.158 316.457 108.981 315.442 108.982H310.465C309.449 108.982 308.626 108.158 308.626 107.143V76.1414C308.626 75.1258 309.449 74.3025 310.465 74.3025H315.242C316.155 74.3025 316.91 74.9678 317.054 75.8397C317.147 75.7705 317.241 75.7033 317.336 75.6368C319.053 74.421 321.067 73.8472 323.291 73.8472C323.718 73.8472 324.171 73.8579 324.648 73.8777C325.125 73.8976 325.556 73.9294 325.903 73.9828C326.8 74.1209 327.463 74.8926 327.463 75.8002V80.806Z" fill="white"/>
<path d="M339.048 101.038C339.402 101.038 339.663 101.028 339.845 101.014L339.856 101.013C340.071 100.998 340.24 100.977 340.369 100.953L340.555 100.929C340.989 100.895 341.424 101.017 341.779 101.276C342.186 101.571 342.453 102.02 342.52 102.518L343.089 106.756C343.216 107.702 342.597 108.589 341.665 108.796C341.228 108.893 340.745 108.957 340.229 108.999C339.691 109.063 339.145 109.096 338.593 109.096C335.809 109.096 333.368 108.473 331.7 106.832L331.696 106.828L331.695 106.827C331.693 106.825 331.691 106.824 331.689 106.822C330.045 105.177 329.388 102.851 329.388 100.203V64.7649C329.388 63.7493 330.211 62.9259 331.227 62.9259H336.204C337.22 62.9261 338.043 63.7494 338.043 64.7649V99.2643C338.043 99.8822 338.086 100.336 338.149 100.653C338.177 100.793 338.206 100.887 338.227 100.945C338.36 100.988 338.616 101.038 339.048 101.038Z" fill="white"/>
<path fill-rule="evenodd" clip-rule="evenodd" d="M372.029 101.174L372.027 101.176L372.03 101.172L372.033 101.169C372.04 101.158 372.055 101.137 372.076 101.109C372.118 101.051 372.185 100.963 372.273 100.854C372.452 100.633 372.71 100.342 373.02 100.057C373.706 99.428 374.356 99.0974 374.856 99.0973C375.355 99.0973 376.006 99.4278 376.692 100.057C377.002 100.342 377.259 100.633 377.438 100.854C377.526 100.963 377.594 101.051 377.636 101.109C377.656 101.137 377.671 101.158 377.679 101.169L377.682 101.172C377.684 101.175 377.685 101.178 377.687 101.18L377.715 101.222L377.729 101.243L377.73 101.245C377.753 101.278 377.781 101.321 377.816 101.372C377.903 101.499 378.03 101.681 378.187 101.902C378.5 102.344 378.941 102.949 379.454 103.601C380.425 104.835 381.838 106.483 383.19 107.353L383.199 107.358L383.206 107.363C385.675 108.914 388.506 109.664 391.636 109.664C394.798 109.664 397.644 108.917 400.101 107.359L400.105 107.356C402.546 105.801 404.435 103.653 405.77 100.963C407.111 98.2598 407.752 95.1836 407.752 91.7839C407.752 88.3325 407.112 85.2203 405.772 82.4968C404.44 79.7918 402.555 77.6413 400.111 76.1019C397.652 74.5213 394.803 73.7619 391.636 73.7619C388.503 73.762 385.669 74.5232 383.2 76.0956C381.84 76.9579 380.423 78.6129 379.453 79.848C378.94 80.5016 378.498 81.1089 378.185 81.5522C378.028 81.7743 377.902 81.9564 377.814 82.0846C377.782 82.1324 377.755 82.173 377.733 82.2052L377.732 82.2065L377.713 82.2355L377.685 82.2768L377.68 82.2841L377.677 82.2885L377.675 82.2921L377.673 82.2939L377.672 82.2957L377.666 82.3046C377.658 82.3157 377.644 82.3362 377.624 82.3648C377.583 82.4222 377.518 82.5112 377.431 82.6207C377.254 82.8427 377.001 83.1351 376.694 83.4216C376.017 84.0521 375.368 84.3869 374.856 84.3869C374.172 84.3869 373.604 84.115 373.122 83.7072C372.62 83.2826 372.287 82.7684 372.154 82.4968C372.119 82.4261 372.08 82.3568 372.036 82.2912L372.035 82.2894L372.033 82.2858L372.029 82.2812L372.024 82.2741L371.997 82.2328L371.984 82.2147C371.962 82.1809 371.932 82.1365 371.895 82.0828C371.807 81.9546 371.681 81.7717 371.523 81.5495C371.209 81.106 370.764 80.4984 370.248 79.8444C369.277 78.6133 367.86 76.9664 366.493 76.1019C364.035 74.5213 361.185 73.7619 358.018 73.7619C354.885 73.762 352.051 74.5232 349.582 76.0956C347.151 77.6367 345.272 79.7902 343.94 82.4968C342.599 85.2203 341.959 88.3326 341.959 91.7839C341.959 95.1837 342.601 98.2597 343.942 100.963C345.275 103.649 347.151 105.796 349.572 107.353L349.581 107.358L349.588 107.363C352.057 108.914 354.888 109.664 358.018 109.664C361.18 109.664 364.026 108.917 366.483 107.359L366.487 107.356C367.85 106.487 369.272 104.839 370.248 103.604C370.763 102.952 371.207 102.347 371.522 101.905C371.679 101.684 371.805 101.502 371.892 101.374C371.936 101.311 371.971 101.26 371.995 101.224L372.023 101.183L372.029 101.174ZM364.495 86.5042C365.083 88.0241 365.394 89.7752 365.394 91.7839C365.394 93.7509 365.084 95.4723 364.497 96.9729C363.927 98.431 363.1 99.5259 362.034 100.325C361.047 101.065 359.75 101.492 358.018 101.492C356.337 101.492 355.057 101.071 354.065 100.329C353.018 99.5313 352.188 98.435 351.597 96.9729C351.01 95.4722 350.699 93.751 350.699 91.7839C350.699 89.9006 350.973 88.2437 351.492 86.7915L351.599 86.5042C352.192 85.0203 353.024 83.9175 354.069 83.1226L354.073 83.1208C355.065 82.363 356.341 81.9339 358.018 81.9338C359.742 81.9338 361.035 82.3674 362.022 83.1208L362.028 83.1255L362.034 83.1298C363.095 83.9253 363.922 85.026 364.495 86.5042ZM398.112 86.5042C398.701 88.0241 399.012 89.7752 399.012 91.7839C399.012 93.7509 398.702 95.4723 398.115 96.9729C397.544 98.431 396.717 99.5259 395.652 100.325C394.665 101.065 393.367 101.492 391.636 101.492C389.954 101.492 388.675 101.071 387.683 100.329C386.635 99.5313 385.806 98.435 385.215 96.9729C384.628 95.4722 384.317 93.751 384.317 91.7839C384.317 89.9006 384.591 88.2437 385.11 86.7915L385.217 86.5042C385.81 85.0203 386.642 83.9175 387.687 83.1226L387.69 83.1208C388.682 82.363 389.958 81.9339 391.636 81.9338C393.36 81.9338 394.653 82.3674 395.639 83.1208L395.646 83.1255L395.652 83.1298C396.713 83.9253 397.54 85.026 398.112 86.5042Z" fill="white"/>
<path d="M332.27 18.2711C332.346 18.2144 332.424 18.1585 332.502 18.1041C334.624 16.6143 337.087 15.8935 339.816 15.8934C342.171 15.8934 344.34 16.3986 346.272 17.4549C348.257 18.5099 349.793 20.0978 350.878 22.151C352.011 24.2584 352.519 26.81 352.519 29.706V49.2167C352.519 50.2322 351.696 51.0556 350.68 51.0556H345.703C344.688 51.0555 343.864 50.2322 343.864 49.2167V30.1038C343.864 27.8785 343.306 26.461 342.46 25.5639L342.452 25.5549C341.595 24.6342 340.377 24.0932 338.565 24.0932C337.34 24.0932 336.284 24.3537 335.36 24.8447L335.35 24.8501C334.495 25.2983 333.785 25.9831 333.224 26.9727C332.722 27.872 332.411 29.1184 332.411 30.8149V49.2167C332.411 50.2322 331.588 51.0556 330.572 51.0556H325.595C324.58 51.0556 323.756 50.2322 323.756 49.2167V18.2154C323.756 17.1998 324.58 16.3765 325.595 16.3765H330.431C331.446 16.3767 332.269 17.2 332.27 18.2154V18.2711Z" fill="white"/>
<path fill-rule="evenodd" clip-rule="evenodd" d="M303.866 55.4553C306.13 55.4553 307.754 54.8857 308.919 53.9172L308.929 53.9091C309.967 53.0593 310.616 51.7169 310.616 49.5291V48.5073C309.836 49.1347 308.95 49.665 307.968 50.1011C307.961 50.1043 307.953 50.1069 307.946 50.1101C306.461 50.7465 304.739 51.0268 302.842 51.0268C299.952 51.0268 297.315 50.321 294.987 48.8719L294.98 48.8683C292.67 47.4158 290.885 45.3492 289.613 42.7418L289.608 42.7311C288.345 40.0986 287.749 37.0462 287.749 33.6307C287.749 30.2142 288.346 27.1478 289.604 24.4837C290.852 21.8187 292.632 19.6941 294.956 18.1813C297.29 16.6429 299.959 15.8935 302.899 15.8934C304.789 15.8934 306.513 16.186 308.016 16.8434C309.022 17.2837 309.932 17.827 310.73 18.4803V18.2154C310.73 17.1998 311.554 16.3765 312.569 16.3765H317.432C318.448 16.3765 319.271 17.1998 319.271 18.2154V49.6719C319.271 52.7532 318.599 55.445 317.096 57.5995C315.651 59.6895 313.706 61.2164 311.31 62.1618L311.309 62.1609C309.022 63.0704 306.534 63.5132 303.866 63.5132C301.386 63.5132 299.126 63.1674 297.12 62.4339L297.114 62.4321C295.154 61.708 293.467 60.674 292.099 59.3056C290.754 57.9605 289.79 56.376 289.226 54.5718C288.928 53.6166 289.449 52.5977 290.397 52.2794L294.891 50.7727L295.059 50.7243C295.904 50.5271 296.784 50.9508 297.15 51.7551C297.433 52.3781 297.847 52.9821 298.415 53.5652C298.913 54.0768 299.592 54.5354 300.502 54.9121C301.315 55.2484 302.415 55.4553 303.866 55.4553ZM309.876 28.3358C310.464 29.752 310.787 31.4839 310.787 33.5742C310.787 35.6611 310.465 37.3905 309.878 38.8054C309.299 40.1823 308.491 41.1723 307.475 41.8601C306.481 42.5143 305.232 42.8837 303.639 42.8837C302.068 42.8837 300.827 42.5165 299.83 41.8601C298.813 41.1716 297.995 40.1797 297.397 38.8027C296.813 37.4119 296.49 35.6852 296.49 33.5742C296.49 31.4921 296.81 29.7525 297.397 28.316C298.004 26.8794 298.829 25.8396 299.843 25.115C300.833 24.4215 302.068 24.0366 303.639 24.0366C305.231 24.0366 306.456 24.4326 307.419 25.1338C307.424 25.1377 307.43 25.1414 307.435 25.1452L307.443 25.1509C308.47 25.8737 309.288 26.9056 309.873 28.3286L309.876 28.3358Z" fill="white"/>
<path d="M284.743 49.2167C284.743 50.2322 283.92 51.0556 282.904 51.0556H277.927C276.912 51.0554 276.088 50.2321 276.088 49.2167V18.2154C276.088 17.1999 276.912 16.3767 277.927 16.3765H282.904C283.92 16.3765 284.743 17.1998 284.743 18.2154V49.2167Z" fill="white"/>
<path d="M284.971 12.3566C284.971 13.3721 284.148 14.1954 283.132 14.1955H277.729C276.713 14.1955 275.89 13.3722 275.89 12.3566V6.83892C275.89 5.82331 276.713 5 277.729 5H283.132L283.32 5.00988C284.247 5.10396 284.971 5.88672 284.971 6.83892V12.3566Z" fill="white"/>
<path d="M251.836 38.448C252.732 38.414 253.535 39.0387 253.709 39.9368C253.978 41.3288 254.553 42.1906 255.327 42.7382C256.163 43.3301 257.369 43.7088 259.099 43.7089C260.996 43.7089 262.286 43.3048 263.148 42.688C264.033 42.0534 264.285 41.4502 264.285 40.8266C264.285 40.2332 264.098 39.8423 263.714 39.504L263.696 39.4878C263.209 39.0467 262.396 38.6215 261.103 38.3232L261.097 38.3223L256.006 37.1272L255.994 37.1245C252.978 36.3959 250.5 35.2256 248.755 33.4808C246.951 31.6767 246.083 29.3705 246.083 26.7195C246.083 24.5973 246.672 22.6571 247.871 20.9639L247.881 20.9496C249.003 19.3965 250.494 18.1949 252.299 17.3292L252.664 17.1604C254.662 16.2619 256.896 15.836 259.327 15.836C261.657 15.836 263.783 16.2317 265.659 17.0805C267.503 17.8955 269.026 19.0739 270.175 20.6281C271.337 22.1542 272.08 23.9318 272.429 25.9177C272.516 26.4091 272.399 26.915 272.105 27.3184C271.812 27.7218 271.366 27.9884 270.872 28.0574L266.179 28.7111C265.203 28.847 264.294 28.1904 264.116 27.2215C263.948 26.3017 263.504 25.503 262.708 24.7908C262.704 24.787 262.699 24.7831 262.695 24.7792C262.059 24.1991 261.027 23.7798 259.327 23.7798C257.742 23.7798 256.621 24.1535 255.819 24.7522L255.815 24.7549C255.043 25.3277 254.795 25.8981 254.795 26.5489C254.795 27.1937 254.996 27.5917 255.379 27.9182C255.93 28.3702 256.888 28.832 258.416 29.1969L263.246 30.3336H263.249C266.309 31.0583 268.81 32.2181 270.514 33.9693C272.255 35.7393 273.083 38.003 273.083 40.5985C273.083 42.8238 272.45 44.844 271.158 46.584C269.912 48.2682 268.211 49.5381 266.136 50.4244C264.049 51.3158 261.71 51.738 259.156 51.738C256.807 51.738 254.634 51.3772 252.665 50.6201L252.659 50.6174C250.68 49.8476 249.012 48.6738 247.7 47.0904L247.693 47.0823C247.689 47.0778 247.686 47.0734 247.682 47.0689C246.361 45.424 245.578 43.4378 245.275 41.1858C245.139 40.1803 245.844 39.2548 246.849 39.1179L251.655 38.4642L251.836 38.448Z" fill="white"/>
</svg>
