<svg width="259" height="106" viewBox="0 0 259 106" fill="none" xmlns="http://www.w3.org/2000/svg">
<path d="M20.2812 48.0898H9.14546V43.0168H19.9101C23.6838 43.0168 26.8081 42.295 29.2827 40.8515C31.7573 39.3874 33.6029 37.3046 34.8196 34.6031C36.0569 31.9016 36.6756 28.6846 36.6756 24.9521C36.6756 21.2608 36.0673 18.085 34.8506 15.4248C33.6545 12.744 31.8501 10.6818 29.4373 9.23826C27.0452 7.79473 24.055 7.07297 20.4668 7.07297H8.898V2H20.869C25.3645 2 29.2002 2.91767 32.3759 4.75301C35.5723 6.58836 38.0263 9.22795 39.7379 12.6718C41.4496 16.095 42.3054 20.1885 42.3054 24.9521C42.3054 29.757 41.4392 33.8917 39.707 37.3561C37.9954 40.8 35.5002 43.4499 32.2213 45.3058C28.9424 47.1618 24.9624 48.0898 20.2812 48.0898ZM11.6819 2V48.0898H5.95939V2H11.6819Z" fill="black"/>
<path d="M64.2057 48.8322C60.9269 48.8322 58.112 48.1001 55.7611 46.6359C53.4102 45.1512 51.6058 43.0993 50.3479 40.4803C49.0899 37.8614 48.461 34.8403 48.461 31.417C48.461 27.9732 49.0899 24.9315 50.3479 22.2919C51.6264 19.6317 53.4102 17.5489 55.6992 16.0435C57.9883 14.5381 60.6485 13.7854 63.6799 13.7854C65.7008 13.7854 67.6083 14.1359 69.4024 14.8371C71.2172 15.5382 72.8154 16.6106 74.197 18.0541C75.5787 19.477 76.6613 21.2711 77.4449 23.4364C78.2492 25.5811 78.6513 28.1072 78.6513 31.0149V32.9327H51.8017V28.3238H75.6508L73.2072 29.9941C73.2072 27.7464 72.836 25.7667 72.0936 24.055C71.3512 22.3434 70.2686 21.0133 68.8456 20.0647C67.4227 19.1161 65.7008 18.6418 63.6799 18.6418C61.6589 18.6418 59.9164 19.1264 58.4522 20.0957C56.9881 21.0443 55.8642 22.3434 55.0806 23.9932C54.2969 25.6223 53.9051 27.4576 53.9051 29.4992V32.2213C53.9051 34.634 54.3176 36.7272 55.1424 38.5006C55.9879 40.2535 57.184 41.6042 58.7306 42.5528C60.2773 43.5014 62.1023 43.9757 64.2057 43.9757C65.6493 43.9757 66.9381 43.7592 68.0723 43.3261C69.2271 42.8931 70.1964 42.2641 70.98 41.4392C71.7843 40.6144 72.372 39.6142 72.7432 38.4388L78.0945 39.274C77.5996 41.1712 76.7026 42.8415 75.4034 44.2851C74.1248 45.708 72.5266 46.8215 70.6088 47.6258C68.7116 48.43 66.5772 48.8322 64.2057 48.8322Z" fill="black"/>
<path d="M97.3347 48.8322C94.9838 48.8322 92.8701 48.4713 90.9935 47.7495C89.1375 47.0278 87.6115 45.9451 86.4154 44.5016C85.24 43.0374 84.5079 41.233 84.2192 39.0884L89.4469 38.3769C89.818 40.2947 90.6738 41.7279 92.0143 42.6766C93.3547 43.6252 95.1075 44.0995 97.2728 44.0995C99.6031 44.0995 101.459 43.6045 102.841 42.6147C104.222 41.6248 104.913 40.4082 104.913 38.9646C104.913 37.7686 104.48 36.789 103.614 36.026C102.748 35.2424 101.511 34.665 99.9021 34.2938L94.3652 32.9946C91.2925 32.2522 88.9829 31.1077 87.4362 29.5611C85.8896 28.0144 85.1163 26.0347 85.1163 23.622C85.1163 21.7042 85.6421 20.0029 86.6938 18.5181C87.7662 17.0333 89.2303 15.8785 91.0863 15.0536C92.9629 14.2081 95.1075 13.7854 97.5203 13.7854C99.8299 13.7854 101.851 14.1772 103.583 14.9608C105.315 15.7238 106.697 16.8065 107.728 18.2088C108.78 19.5904 109.471 21.2195 109.801 23.0961L104.697 23.8076C104.429 22.3434 103.707 21.0855 102.531 20.0338C101.356 18.9615 99.6856 18.4253 97.5203 18.4253C95.4787 18.4253 93.8084 18.9099 92.5092 19.8791C91.2306 20.8277 90.5914 22.0135 90.5914 23.4364C90.5914 24.6943 91.045 25.7048 91.9524 26.4678C92.8804 27.2308 94.2517 27.8288 96.0665 28.2619L101.325 29.4992C104.46 30.2416 106.769 31.3758 108.254 32.9018C109.739 34.4072 110.481 36.3457 110.481 38.7172C110.481 40.7381 109.914 42.5116 108.78 44.0376C107.666 45.543 106.12 46.7184 104.14 47.5639C102.16 48.4094 99.8918 48.8322 97.3347 48.8322Z" fill="black"/>
<path d="M117.75 48.0898V14.3731H123.164V48.0898H117.75ZM117.534 8.00095V2H123.411V8.00095H117.534Z" fill="black"/>
<path d="M145.961 61.6383C143.445 61.6383 141.228 61.2878 139.31 60.5866C137.413 59.8855 135.836 58.9059 134.578 57.648C133.34 56.4107 132.464 54.9672 131.948 53.3174L136.836 51.678C137.248 52.5853 137.836 53.4308 138.599 54.2145C139.362 54.9981 140.342 55.6374 141.538 56.1323C142.734 56.6272 144.208 56.8747 145.961 56.8747C148.766 56.8747 151.024 56.1632 152.735 54.7403C154.447 53.338 155.303 51.2346 155.303 48.43V42.3672H154.993C154.416 43.2952 153.694 44.1923 152.828 45.0584C151.983 45.9245 150.91 46.6463 149.611 47.2237C148.312 47.7805 146.724 48.0588 144.847 48.0588C142.043 48.0588 139.548 47.3783 137.362 46.0173C135.196 44.6562 133.495 42.7075 132.258 40.171C131.041 37.6345 130.433 34.6237 130.433 31.1386C130.433 27.6536 131.041 24.6221 132.258 22.0444C133.474 19.4461 135.176 17.4354 137.362 16.0125C139.548 14.569 142.063 13.8472 144.909 13.8472C146.765 13.8472 148.353 14.1359 149.673 14.7134C150.993 15.2908 152.086 16.0332 152.952 16.9405C153.839 17.8479 154.56 18.7655 155.117 19.6935H155.426V14.3731H160.716V48.5847C160.716 51.6574 160.046 54.1526 158.705 56.0704C157.365 58.0089 155.571 59.4215 153.323 60.3082C151.096 61.195 148.642 61.6383 145.961 61.6383ZM145.714 43.2024C147.776 43.2024 149.539 42.7178 151.003 41.7486C152.467 40.7587 153.581 39.3564 154.344 37.5417C155.107 35.7064 155.488 33.5514 155.488 31.0768C155.488 28.6022 155.107 26.4472 154.344 24.6118C153.581 22.7559 152.467 21.3123 151.003 20.2812C149.559 19.2295 147.796 18.7037 145.714 18.7037C143.651 18.7037 141.888 19.2192 140.424 20.2503C138.98 21.2814 137.867 22.7249 137.083 24.5809C136.32 26.4369 135.939 28.6022 135.939 31.0768C135.939 33.572 136.32 35.727 137.083 37.5417C137.867 39.3564 138.991 40.7587 140.455 41.7486C141.919 42.7178 143.672 43.2024 145.714 43.2024Z" fill="black"/>
<path d="M175.007 28.0763V48.0898H169.594V14.3731H174.852V22.5393H173.77C174.821 19.4461 176.316 17.2292 178.255 15.8888C180.193 14.5278 182.462 13.8472 185.06 13.8472C187.328 13.8472 189.349 14.3319 191.123 15.3011C192.917 16.2497 194.319 17.6829 195.33 19.6007C196.361 21.5186 196.876 23.9416 196.876 26.8699V48.0898H191.463V27.303C191.463 24.5603 190.772 22.4569 189.391 20.9927C188.009 19.5079 186.112 18.7655 183.699 18.7655C182.07 18.7655 180.595 19.1161 179.276 19.8173C177.976 20.4978 176.935 21.5289 176.151 22.9105C175.388 24.2716 175.007 25.9935 175.007 28.0763Z" fill="black"/>
<path d="M14.5587 103.09L2 57H7.81535L15.2083 85.4891C15.6001 86.9944 15.9713 88.5101 16.3219 90.0362C16.6724 91.5622 17.0127 93.0985 17.3426 94.6451C17.6726 96.1918 17.9819 97.759 18.2706 99.3469H17.5901C17.8994 97.759 18.2191 96.1918 18.549 94.6451C18.879 93.0985 19.2192 91.5622 19.5698 90.0362C19.941 88.5101 20.3225 86.9944 20.7143 85.4891L28.231 57H34.8196L42.2744 85.4891C42.6869 86.9944 43.0684 88.5101 43.4189 90.0362C43.7901 91.5622 44.151 93.0985 44.5016 94.6451C44.8522 96.1918 45.1821 97.759 45.4914 99.3469H44.6872C44.9965 97.759 45.3161 96.1918 45.6461 94.6451C45.976 93.0985 46.3266 91.5622 46.6978 90.0362C47.069 88.5101 47.4402 86.9944 47.8114 85.4891L55.1734 57H61.0506L48.43 103.09H41.7486L33.7679 73.6727C33.2318 71.693 32.7265 69.6309 32.2522 67.4862C31.7985 65.3209 31.3449 62.97 30.8912 60.4335H32.0976C31.6645 62.8669 31.2211 65.1559 30.7674 67.3006C30.3344 69.4247 29.8292 71.5487 29.2517 73.6727L21.2711 103.09H14.5587Z" fill="black"/>
<path d="M73.3 103.77C71.1141 103.77 69.1447 103.378 67.3918 102.595C65.639 101.791 64.247 100.625 63.2159 99.0995C62.2054 97.5528 61.7002 95.6659 61.7002 93.4388C61.7002 91.5003 62.0714 89.9331 62.8138 88.737C63.5768 87.5203 64.5976 86.5717 65.8761 85.8912C67.1547 85.19 68.5776 84.6642 70.1448 84.3136C71.7121 83.963 73.3103 83.6846 74.9394 83.4784C77.0016 83.1897 78.6616 82.9732 79.9196 82.8288C81.1775 82.6845 82.0952 82.4473 82.6726 82.1174C83.25 81.7668 83.5387 81.1791 83.5387 80.3542V80.1068C83.5387 78.7663 83.2603 77.6218 82.7035 76.6732C82.1467 75.704 81.3322 74.9513 80.2598 74.4151C79.1875 73.879 77.8677 73.6109 76.3004 73.6109C74.7126 73.6109 73.3309 73.8687 72.1555 74.3842C70.98 74.8997 70.0314 75.57 69.3096 76.3948C68.6085 77.1991 68.1342 78.0652 67.8867 78.9932L62.5354 78.0033C63.0715 75.9618 64.0098 74.2708 65.3503 72.9304C66.6907 71.5693 68.2992 70.5485 70.1758 69.868C72.0523 69.1875 74.063 68.8472 76.2076 68.8472C77.6924 68.8472 79.1772 69.0431 80.662 69.435C82.1674 69.8062 83.5387 70.4351 84.776 71.3219C86.0339 72.188 87.0341 73.3737 87.7765 74.8791C88.5395 76.3639 88.921 78.2095 88.921 80.4161V103.09H83.5696V98.4189H83.3222C82.9304 99.2026 82.322 100.017 81.4971 100.863C80.6723 101.687 79.5896 102.378 78.2492 102.935C76.9088 103.492 75.259 103.77 73.3 103.77ZM74.1661 98.9448C76.2489 98.9448 77.9811 98.553 79.3628 97.7693C80.7651 96.9651 81.8065 95.934 82.487 94.6761C83.1881 93.3975 83.5387 92.0571 83.5387 90.6548V86.1696C83.3119 86.3964 82.8582 86.6129 82.1777 86.8192C81.5178 87.0048 80.7341 87.18 79.8268 87.345C78.94 87.51 78.0327 87.6543 77.1047 87.7781C76.1973 87.9018 75.3931 88.0049 74.6919 88.0874C73.3928 88.2524 72.1658 88.5411 71.0109 88.9535C69.8561 89.3453 68.9281 89.9227 68.227 90.6858C67.5259 91.4281 67.1753 92.4489 67.1753 93.7481C67.1753 94.8617 67.464 95.8103 68.0414 96.5939C68.6394 97.3569 69.4643 97.9446 70.516 98.3571C71.5677 98.7489 72.7844 98.9448 74.1661 98.9448Z" fill="black"/>
<path d="M111.718 69.3731V74.013H93.9321V69.3731H111.718ZM99.4072 60.8357H104.82V94.5833C104.82 96.0062 105.109 97.027 105.687 97.6456C106.285 98.2643 107.285 98.5736 108.687 98.5736C109.099 98.5736 109.574 98.553 110.11 98.5117C110.667 98.4705 111.172 98.4189 111.626 98.3571L112.244 102.997C111.687 103.1 111.059 103.183 110.357 103.244C109.677 103.306 109.017 103.337 108.378 103.337C105.47 103.337 103.243 102.626 101.696 101.203C100.17 99.78 99.4072 97.7384 99.4072 95.0782V60.8357Z" fill="black"/>
<path d="M131.577 103.832C128.298 103.832 125.484 103.1 123.133 101.636C120.782 100.151 118.977 98.0993 117.719 95.4803C116.461 92.8614 115.832 89.8403 115.832 86.417C115.832 82.9732 116.461 79.9315 117.719 77.2919C118.998 74.6317 120.782 72.5489 123.071 71.0435C125.36 69.5381 128.02 68.7854 131.051 68.7854C133.072 68.7854 134.98 69.1359 136.774 69.8371C138.589 70.5382 140.187 71.6106 141.569 73.0541C142.95 74.477 144.033 76.2711 144.816 78.4364C145.621 80.5811 146.023 83.1072 146.023 86.0149V87.9327H119.173V83.3238H143.022L140.579 84.9941C140.579 82.7463 140.207 80.7667 139.465 79.055C138.723 77.3434 137.64 76.0133 136.217 75.0647C134.794 74.1161 133.072 73.6418 131.051 73.6418C129.03 73.6418 127.288 74.1264 125.824 75.0956C124.36 76.0443 123.236 77.3434 122.452 78.9932C121.668 80.6223 121.277 82.4576 121.277 84.4992V87.2213C121.277 89.634 121.689 91.7272 122.514 93.5006C123.359 95.2535 124.556 96.6042 126.102 97.5528C127.649 98.5014 129.474 98.9757 131.577 98.9757C133.021 98.9757 134.31 98.7592 135.444 98.3261C136.599 97.8931 137.568 97.2641 138.352 96.4392C139.156 95.6144 139.743 94.6142 140.115 93.4388L145.466 94.2739C144.971 96.1712 144.074 97.8415 142.775 99.2851C141.496 100.708 139.898 101.822 137.98 102.626C136.083 103.43 133.949 103.832 131.577 103.832Z" fill="black"/>
<path d="M153.137 103.09V69.3731H158.334V74.6007H158.612C159.231 72.8685 160.283 71.4868 161.768 70.4557C163.252 69.404 165.026 68.8782 167.088 68.8782C167.521 68.8782 167.985 68.8885 168.48 68.9091C168.975 68.9297 169.356 68.9607 169.625 69.0019V74.4461C169.46 74.4048 169.057 74.343 168.418 74.2605C167.799 74.1574 167.109 74.1058 166.346 74.1058C164.902 74.1058 163.582 74.4254 162.386 75.0647C161.211 75.6834 160.273 76.5907 159.571 77.7868C158.891 78.9829 158.551 80.4264 158.551 82.1174V103.09H153.137Z" fill="black"/>
<path d="M183.73 103.214C180.946 103.214 178.915 102.585 177.636 101.327C176.358 100.048 175.718 98.1199 175.718 95.5422V57H181.131V94.5214C181.131 96.0268 181.338 97.0579 181.75 97.6147C182.163 98.1715 182.987 98.4499 184.225 98.4499C184.637 98.4499 184.977 98.4396 185.246 98.4189C185.534 98.3983 185.792 98.3674 186.019 98.3261L186.638 102.935C186.266 103.018 185.823 103.079 185.307 103.121C184.792 103.183 184.266 103.214 183.73 103.214Z" fill="black"/>
<path fill-rule="evenodd" clip-rule="evenodd" d="M204.857 103.832C201.784 103.832 199.083 103.1 196.753 101.636C194.443 100.151 192.638 98.0993 191.339 95.4803C190.04 92.8614 189.391 89.8299 189.391 86.3861C189.391 82.8804 190.04 79.8077 191.339 77.1681C192.638 74.5286 194.443 72.4767 196.753 71.0125C199.083 69.5278 201.784 68.7854 204.857 68.7854C207.971 68.7854 210.683 69.5278 212.992 71.0125C215.322 72.4767 217.137 74.5286 218.436 77.1681C218.927 78.164 220.64 80.3408 223.169 80.3408C225.699 80.3408 227.412 78.164 227.902 77.1681C229.201 74.5286 231.005 72.4767 233.315 71.0125C235.645 69.5278 238.347 68.7854 241.419 68.7854C244.533 68.7854 247.245 69.5278 249.555 71.0125C251.885 72.4767 253.7 74.5286 254.999 77.1681C256.298 79.8077 256.948 82.8804 256.948 86.3861C256.948 89.8299 256.298 92.8614 254.999 95.4803C253.7 98.0993 251.885 100.151 249.555 101.636C247.245 103.1 244.533 103.832 241.419 103.832C238.347 103.832 235.645 103.1 233.315 101.636C231.005 100.151 229.201 98.0993 227.902 95.4803C227.412 94.4922 225.693 92.3398 223.169 92.3398C220.646 92.3398 218.927 94.4922 218.436 95.4803C217.137 98.0993 215.322 100.151 212.992 101.636C210.683 103.1 207.971 103.832 204.857 103.832ZM210.425 97.2744C208.94 98.388 207.084 98.9448 204.857 98.9448C202.671 98.9448 200.836 98.388 199.351 97.2744C197.887 96.1609 196.773 94.6555 196.01 92.7582C195.268 90.861 194.897 88.737 194.897 86.3861C194.897 83.994 195.268 81.839 196.01 79.9212C196.773 78.0033 197.887 76.4876 199.351 75.374C200.836 74.2398 202.671 73.6727 204.857 73.6727C207.084 73.6727 208.94 74.2398 210.425 75.374C211.91 76.4876 213.023 78.0033 213.766 79.9212C214.508 81.839 214.879 83.994 214.879 86.3861C214.879 88.737 214.508 90.861 213.766 92.7582C213.023 94.6555 211.91 96.1609 210.425 97.2744ZM246.987 97.2744C245.503 98.388 243.647 98.9448 241.419 98.9448C239.233 98.9448 237.398 98.388 235.913 97.2744C234.449 96.1609 233.336 94.6555 232.573 92.7582C231.83 90.861 231.459 88.737 231.459 86.3861C231.459 83.994 231.83 81.839 232.573 79.9212C233.336 78.0033 234.449 76.4876 235.913 75.374C237.398 74.2398 239.233 73.6727 241.419 73.6727C243.647 73.6727 245.503 74.2398 246.987 75.374C248.472 76.4876 249.586 78.0033 250.328 79.9212C251.07 81.839 251.442 83.994 251.442 86.3861C251.442 88.737 251.07 90.861 250.328 92.7582C249.586 94.6555 248.472 96.1609 246.987 97.2744Z" fill="black"/>
<path d="M113.832 86.417C113.832 82.728 114.507 79.3836 115.914 76.4316L115.917 76.4258C117.34 73.4647 119.356 71.0923 121.972 69.3721C124.621 67.6295 127.673 66.7852 131.052 66.7852C133.306 66.7852 135.459 67.1775 137.494 67.9717H137.495C139.591 68.7815 141.435 70.0213 143.014 71.6709H143.013C144.611 73.3206 145.827 75.3591 146.689 77.7344L146.853 78.1924C147.648 80.5029 148.022 83.122 148.022 86.0146V87.9326C148.022 89.0372 147.127 89.9326 146.022 89.9326H123.496C123.671 90.9392 123.948 91.8359 124.315 92.6318L124.448 92.8965C125.126 94.1954 126.027 95.1601 127.147 95.8477C128.332 96.5742 129.783 96.9756 131.577 96.9756V98.9756C129.605 98.9756 127.878 98.5592 126.395 97.7256L126.102 97.5527C124.556 96.6042 123.359 95.2537 122.514 93.501C121.771 91.9041 121.364 90.0477 121.29 87.9326H146.022V86.0146C146.022 83.1071 145.62 80.5811 144.816 78.4365C144.033 76.2712 142.95 74.4766 141.568 73.0537C140.187 71.6104 138.589 70.538 136.774 69.8369C135.092 69.1796 133.31 68.8301 131.429 68.7891L131.052 68.7852C128.02 68.7852 125.359 69.5386 123.07 71.0439L122.647 71.332C120.561 72.811 118.918 74.798 117.72 77.292C116.462 79.9316 115.832 82.9732 115.832 86.417C115.832 89.8402 116.462 92.8615 117.72 95.4805C118.978 98.0993 120.782 100.151 123.133 101.636C125.484 103.1 128.298 103.832 131.577 103.832C133.949 103.832 136.083 103.43 137.98 102.626C139.898 101.822 141.497 100.708 142.775 99.2852C144.074 97.8418 144.971 96.1713 145.466 94.2744L140.114 93.4385C139.743 94.6139 139.156 95.6146 138.351 96.4395C137.568 97.2642 136.599 97.8931 135.444 98.3262C134.31 98.7592 133.021 98.9756 131.577 98.9756V96.9756C132.822 96.9756 133.863 96.7893 134.73 96.458L134.741 96.4531C135.637 96.1173 136.343 95.6488 136.901 95.0615C136.907 95.0553 136.914 95.0492 136.92 95.043C137.491 94.4576 137.924 93.7353 138.208 92.8369L138.27 92.6641C138.623 91.8239 139.507 91.3201 140.423 91.4629L145.774 92.2979C146.333 92.385 146.829 92.7042 147.139 93.1768C147.448 93.6494 147.544 94.2315 147.401 94.7783C146.827 96.9815 145.776 98.9376 144.262 100.621C142.77 102.281 140.923 103.558 138.76 104.466L138.761 104.467C136.582 105.39 134.177 105.832 131.577 105.832C127.994 105.832 124.797 105.029 122.075 103.334L122.064 103.327C119.381 101.633 117.33 99.288 115.917 96.3467C114.508 93.4134 113.832 90.087 113.832 86.417ZM187.391 86.3857C187.391 82.6321 188.087 79.2472 189.545 76.2852C190.994 73.3415 193.038 70.9993 195.682 69.3232C198.367 67.6132 201.449 66.7852 204.856 66.7852C208.301 66.7852 211.4 67.6111 214.074 69.3301H214.073C216.731 71.0044 218.782 73.3432 220.23 76.2852C220.356 76.5408 220.735 77.1072 221.315 77.5889C221.88 78.0575 222.504 78.3408 223.169 78.3408V80.3408L222.934 80.335C220.689 80.2148 219.124 78.3927 218.543 77.3682L218.436 77.168C217.218 74.6933 215.547 72.7355 213.423 71.2939L212.992 71.0127C210.682 69.5279 207.97 68.7852 204.856 68.7852C201.784 68.7852 199.083 69.5281 196.753 71.0127L196.325 71.2939C194.219 72.7355 192.557 74.6934 191.339 77.168C190.04 79.8075 189.391 82.8802 189.391 86.3857L189.398 87.0273C189.474 90.2074 190.121 93.0253 191.339 95.4805C192.638 98.0994 194.443 100.151 196.753 101.636C199.083 103.1 201.784 103.832 204.856 103.832C207.97 103.832 210.682 103.1 212.992 101.636C215.177 100.244 216.908 98.3536 218.186 95.9648L218.436 95.4805C218.927 94.4924 220.645 92.3399 223.169 92.3398C225.692 92.3398 227.411 94.4923 227.901 95.4805C229.2 98.0994 231.006 100.151 233.315 101.636C235.645 103.1 238.346 103.832 241.419 103.832C244.533 103.832 247.245 103.1 249.555 101.636C251.739 100.244 253.471 98.3536 254.749 95.9648L254.999 95.4805C256.298 92.8615 256.947 89.8296 256.947 86.3857C256.947 83.0991 256.376 80.1933 255.234 77.668L254.999 77.168C253.781 74.6933 252.109 72.7355 249.985 71.2939L249.555 71.0127C247.245 69.5279 244.533 68.7852 241.419 68.7852C238.346 68.7852 235.645 69.5281 233.315 71.0127L232.888 71.2939C230.782 72.7355 229.119 74.6934 227.901 77.168C227.411 78.1639 225.698 80.3408 223.169 80.3408V78.3408C223.834 78.3408 224.458 78.0574 225.022 77.5889C225.603 77.1072 225.981 76.5409 226.107 76.2852C227.556 73.3415 229.6 70.9993 232.244 69.3232C234.93 67.6132 238.011 66.7852 241.419 66.7852C244.863 66.7852 247.963 67.6111 250.637 69.3301H250.636C253.293 71.0044 255.345 73.3432 256.793 76.2852C258.251 79.2472 258.947 82.6321 258.947 86.3857C258.947 90.0833 258.249 93.4289 256.791 96.3691C255.34 99.2945 253.285 101.63 250.63 103.322L250.626 103.325C247.953 105.019 244.858 105.832 241.419 105.832C238.015 105.832 234.936 105.016 232.251 103.329C232.245 103.325 232.239 103.322 232.233 103.318C229.6 101.625 227.559 99.2901 226.11 96.3691C225.987 96.1217 225.611 95.5629 225.029 95.0859C224.464 94.6223 223.837 94.3398 223.169 94.3398C222.501 94.3399 221.874 94.6224 221.308 95.0859C220.727 95.5628 220.351 96.1216 220.228 96.3691C218.777 99.2945 216.723 101.63 214.067 103.322L214.063 103.325C211.391 105.019 208.295 105.832 204.856 105.832C201.453 105.832 198.373 105.016 195.688 103.329C195.683 103.325 195.677 103.322 195.671 103.318C193.037 101.625 190.997 99.2901 189.548 96.3691C188.089 93.4289 187.391 90.0833 187.391 86.3857ZM81.5389 80.1064C81.5389 79.0445 81.3194 78.2665 80.9784 77.6855C80.9754 77.6804 80.9726 77.6751 80.9696 77.6699C80.6231 77.0668 80.1124 76.5778 79.3651 76.2041C78.6424 75.8428 77.649 75.6114 76.3007 75.6113C74.9257 75.6113 73.8285 75.8344 72.9589 76.2158C72.0083 76.6327 71.3142 77.14 70.8163 77.708L70.8173 77.709C70.2944 78.3087 69.9796 78.9075 69.8192 79.5088C69.5501 80.5176 68.55 81.1496 67.5233 80.96L62.1718 79.9697C61.625 79.8686 61.1446 79.5447 60.8466 79.0752C60.5486 78.6057 60.4592 78.033 60.6005 77.4951C61.2148 75.1561 62.3122 73.1441 63.9247 71.5273L64.2206 71.2354C65.7181 69.7985 67.484 68.7172 69.494 67.9883C71.6049 67.2228 73.8481 66.8477 76.2079 66.8477C77.8705 66.8477 79.5264 67.0668 81.1718 67.501H81.1708C82.9065 67.9329 84.5019 68.6647 85.9413 69.6963H85.9403C87.4834 70.7668 88.6843 72.2092 89.5555 73.9648L89.7264 74.3145C90.5531 76.0822 90.9208 78.1414 90.9208 80.416V103.09C90.9208 104.194 90.0253 105.09 88.9208 105.09H83.5692C82.5638 105.09 81.7337 104.347 81.5927 103.381C80.8222 103.926 79.959 104.391 79.0165 104.782C77.3639 105.469 75.4354 105.771 73.2997 105.771C70.8714 105.77 68.618 105.334 66.5751 104.421C66.5692 104.418 66.5633 104.416 66.5575 104.413C64.4879 103.464 62.8047 102.063 61.5585 100.219C61.5528 100.21 61.5474 100.202 61.5419 100.193C60.2787 98.2599 59.7001 95.9734 59.7001 93.4385C59.7001 91.2628 60.1146 89.2932 61.1141 87.6826L61.119 87.6748C62.065 86.1664 63.3398 84.9803 64.9139 84.1377L65.4686 83.8477C66.7764 83.1939 68.1923 82.7013 69.7079 82.3623C70.9304 82.0888 72.1702 81.8576 73.4266 81.6689L74.6884 81.4941C76.7458 81.2062 78.4153 80.9882 79.6913 80.8418C80.6745 80.729 81.2447 80.5699 81.5341 80.4492C81.536 80.4234 81.5389 80.3921 81.5389 80.3545V80.1064ZM7.81531 55L7.98426 55.0068C8.82342 55.0776 9.53628 55.6712 9.75086 56.498L17.1444 84.9863H17.1434C17.4241 86.0648 17.6933 87.1486 17.953 88.2373C18.2232 87.1482 18.4974 86.064 18.7782 84.9854L18.7802 84.9785L26.2968 56.4902L26.3466 56.3281C26.628 55.5375 27.38 55 28.2313 55H34.8192C35.7288 55 36.5245 55.6142 36.7548 56.4941L44.203 84.9609L44.5126 86.1113C44.7037 86.8384 44.8864 87.5681 45.0634 88.2998C45.3324 87.198 45.6 86.1008 45.869 85.0098C45.8708 85.0027 45.8731 84.9953 45.8749 84.9883L53.2372 56.5L53.286 56.3369C53.5649 55.5419 54.319 55 55.1737 55H61.0507C61.6743 55.0001 62.2622 55.2913 62.6405 55.7871C63.0187 56.2829 63.1441 56.9268 62.9794 57.5283L50.3593 103.618C50.1212 104.487 49.3307 105.09 48.4296 105.09H41.7489C40.846 105.09 40.0546 104.485 39.8182 103.613L31.8378 74.1963V74.1953C31.7266 73.7847 31.6172 73.3705 31.5087 72.9531C31.4014 73.3676 31.2942 73.7828 31.1815 74.1973L23.2011 103.613C22.9647 104.485 22.1741 105.09 21.2714 105.09H14.5585C13.6564 105.09 12.8659 104.486 12.6288 103.615L0.070196 57.5254C-0.0934994 56.9242 0.0327237 56.2813 0.411016 55.7861C0.789391 55.2909 1.37662 55 1.99988 55H7.81531ZM158.551 82.1172C158.551 80.4264 158.891 78.9831 159.571 77.7871C160.228 76.6658 161.095 75.7984 162.169 75.1846L162.387 75.0645C163.583 74.4253 164.902 74.1055 166.346 74.1055L166.904 74.1152C167.449 74.1346 167.954 74.1834 168.418 74.2607C169.057 74.3432 169.46 74.405 169.625 74.4463V69.002C169.491 68.9813 169.328 68.9637 169.138 68.9482L168.48 68.9092C167.985 68.8886 167.521 68.8779 167.088 68.8779C165.026 68.878 163.252 69.4044 161.767 70.4561L161.494 70.6533C160.153 71.661 159.192 72.9767 158.612 74.6006H158.334V69.373H153.138V103.09H158.551V82.1172ZM1.99988 57L14.5585 103.09H21.2714L29.2518 73.6729C29.8292 71.5489 30.3344 69.4248 30.7675 67.3008C31.0131 66.1398 31.2545 64.9361 31.494 63.6904C31.747 65.0133 31.9988 66.2788 32.2518 67.4863C32.7261 69.631 33.2313 71.6932 33.7675 73.6729L41.7489 103.09H48.4296L61.0507 57H55.1737L47.8114 85.4893L46.6981 90.0361L46.4227 91.1826C46.1521 92.331 45.8938 93.4856 45.6464 94.6455C45.456 95.5377 45.2693 96.4368 45.0858 97.3428C44.8973 96.437 44.704 95.5376 44.5018 94.6455C44.1513 93.0989 43.79 91.5621 43.4188 90.0361C43.0683 88.5102 42.6867 86.9946 42.2743 85.4893L34.8192 57H28.2313L20.7138 85.4893L20.1346 87.7549C19.9439 88.5128 19.7548 89.2731 19.5692 90.0361C19.2187 91.5621 18.8787 93.0989 18.5487 94.6455C18.3411 95.6187 18.1388 96.6003 17.9393 97.5898C17.7481 96.6003 17.5503 95.6187 17.3427 94.6455C17.1777 93.8722 17.0099 93.1012 16.8397 92.333L16.3221 90.0361C16.0592 88.8916 15.7841 87.753 15.4979 86.6201L15.2079 85.4893L7.81531 57H1.99988ZM81.5389 90.6553V89.04C81.116 89.1348 80.6663 89.2241 80.1913 89.3105L80.1923 89.3115C79.2707 89.483 78.3296 89.6327 77.369 89.7607L77.368 89.7598C76.4622 89.8833 75.6535 89.9866 74.9432 90.0703L74.9442 90.0713C73.7788 90.2193 72.6932 90.4763 71.6835 90.8369C71.6735 90.8405 71.6633 90.8442 71.6532 90.8477C70.7599 91.1508 70.1361 91.5635 69.6991 92.0391C69.693 92.0457 69.6867 92.0521 69.6805 92.0586C69.4182 92.3364 69.1747 92.8148 69.1747 93.748C69.1747 94.4827 69.3555 94.9932 69.6337 95.3818C69.974 95.8075 70.4752 96.1887 71.2255 96.4863C72.0069 96.7757 72.9751 96.9443 74.1659 96.9443V98.9443C72.9569 98.9443 71.8742 98.7951 70.9179 98.4951L70.5155 98.3574C69.4639 97.945 68.6389 97.3567 68.0409 96.5938C67.4636 95.8102 67.1747 94.8615 67.1747 93.748C67.1747 92.449 67.5254 91.4279 68.2264 90.6855C68.9276 89.9226 69.8558 89.3449 71.0106 88.9531C72.1654 88.5407 73.3931 88.2529 74.6923 88.0879C75.3933 88.0054 76.1973 87.902 77.1044 87.7783C78.0324 87.6546 78.9403 87.5097 79.827 87.3447C80.7342 87.1798 81.5178 87.0049 82.1776 86.8193C82.8581 86.6131 83.3121 86.3968 83.5389 86.1699V90.6553L83.5341 90.917C83.493 92.2243 83.1444 93.4772 82.4872 94.6758L82.3554 94.9092C81.6751 96.062 80.6769 97.0155 79.3622 97.7695L79.0995 97.9121C77.7631 98.6008 76.1184 98.9443 74.1659 98.9443V96.9443C76.0074 96.9443 77.3745 96.5972 78.3759 96.0293C79.494 95.3863 80.2473 94.612 80.7274 93.7246L80.7333 93.7148C81.2794 92.719 81.5389 91.7076 81.5389 90.6553ZM212.879 86.3857C212.879 84.2012 212.54 82.2966 211.9 80.6436C211.278 79.0359 210.378 77.8388 209.224 76.9736C209.22 76.9703 209.215 76.9673 209.211 76.9639C208.138 76.1444 206.732 75.6729 204.856 75.6729C203.032 75.6729 201.644 76.1396 200.565 76.9639L200.561 76.9658C199.425 77.8303 198.52 79.0297 197.875 80.6436L197.759 80.9561C197.194 82.5355 196.896 84.3376 196.896 86.3857C196.896 88.5252 197.234 90.3972 197.873 92.0293C198.516 93.6195 199.418 94.8118 200.557 95.6797C201.636 96.4864 203.028 96.9443 204.856 96.9443V98.9443C202.671 98.9443 200.835 98.3879 199.35 97.2744C197.886 96.1608 196.773 94.6549 196.01 92.7578C195.267 90.8607 194.896 88.7364 194.896 86.3857C194.896 83.9938 195.267 81.8386 196.01 79.9209C196.773 78.0032 197.886 76.4876 199.35 75.374C200.835 74.2399 202.671 73.6729 204.856 73.6729L205.27 73.6797C207.315 73.7462 209.033 74.3108 210.425 75.374C211.909 76.4876 213.023 78.0032 213.766 79.9209C214.508 81.8386 214.879 83.9938 214.879 86.3857C214.879 88.7365 214.508 90.8607 213.766 92.7578L213.622 93.1094C212.882 94.8421 211.817 96.2304 210.425 97.2744L210.141 97.4766C208.706 98.4552 206.944 98.9443 204.856 98.9443V96.9443C206.74 96.9443 208.151 96.4798 209.224 95.6748C210.383 94.8059 211.283 93.6152 211.903 92.0293C212.542 90.3972 212.879 88.5251 212.879 86.3857ZM249.441 86.3857C249.441 84.2012 249.103 82.2966 248.463 80.6436C247.84 79.0359 246.94 77.8388 245.787 76.9736C245.783 76.9703 245.778 76.9673 245.773 76.9639C244.701 76.1444 243.294 75.6729 241.419 75.6729C239.594 75.6729 238.207 76.1396 237.128 76.9639L237.124 76.9658C235.987 77.8303 235.082 79.0297 234.437 80.6436L234.321 80.9561C233.757 82.5355 233.459 84.3376 233.459 86.3857C233.459 88.5252 233.797 90.3972 234.435 92.0293C235.078 93.6195 235.98 94.8118 237.12 95.6797C238.199 96.4864 239.59 96.9443 241.419 96.9443V98.9443C239.233 98.9443 237.398 98.3879 235.913 97.2744C234.449 96.1608 233.335 94.6549 232.572 92.7578C231.83 90.8607 231.459 88.7364 231.459 86.3857C231.459 83.9938 231.83 81.8386 232.572 79.9209C233.335 78.0032 234.449 76.4876 235.913 75.374C237.398 74.2399 239.233 73.6729 241.419 73.6729L241.833 73.6797C243.877 73.7462 245.595 74.3108 246.987 75.374C248.472 76.4876 249.586 78.0032 250.328 79.9209C251.07 81.8386 251.441 83.9938 251.441 86.3857C251.441 88.7365 251.07 90.8607 250.328 92.7578L250.184 93.1094C249.445 94.8421 248.379 96.2304 246.987 97.2744L246.704 97.4766C245.269 98.4552 243.507 98.9443 241.419 98.9443V96.9443C243.302 96.9443 244.713 96.4798 245.787 95.6748C246.946 94.8059 247.845 93.6152 248.466 92.0293C249.104 90.3972 249.441 88.5251 249.441 86.3857ZM104.82 94.583V74.0127H111.719V69.373H104.82V60.8359H99.4071V69.373H93.9315V74.0127H99.4071V95.0781L99.4159 95.5693C99.5052 97.991 100.265 99.8691 101.696 101.203C103.146 102.537 105.194 103.246 107.841 103.329L108.378 103.337C109.017 103.337 109.677 103.306 110.357 103.244C110.883 103.198 111.369 103.14 111.813 103.07L112.244 102.997L111.626 98.3574C111.172 98.4193 110.667 98.4705 110.11 98.5117C109.574 98.5529 109.1 98.5732 108.687 98.5732V96.5732C109.036 96.5732 109.457 96.556 109.956 96.5176H109.962C110.486 96.4787 110.95 96.4303 111.355 96.375L111.553 96.3584C112.013 96.3416 112.468 96.4847 112.838 96.7666C113.26 97.0888 113.538 97.566 113.608 98.0928L114.226 102.732C114.367 103.788 113.656 104.77 112.608 104.964C111.977 105.081 111.285 105.169 110.537 105.235L110.538 105.236C109.802 105.303 109.081 105.337 108.378 105.337C105.162 105.337 102.379 104.549 100.342 102.675L100.332 102.666C98.2953 100.767 97.4071 98.1312 97.4071 95.0781V76.0127H93.9315C92.8272 76.0124 91.9315 75.1171 91.9315 74.0127V69.373C91.9316 68.2687 92.8272 67.3733 93.9315 67.373H97.4071V60.8359C97.4071 59.7314 98.3025 58.8359 99.4071 58.8359H104.82C105.925 58.8359 106.82 59.7314 106.82 60.8359V67.373H111.719C112.823 67.3732 113.719 68.2686 113.719 69.373V74.0127C113.719 75.1172 112.823 76.0125 111.719 76.0127H106.82V94.583C106.82 95.7352 107.052 96.1557 107.134 96.2617C107.201 96.3228 107.555 96.5732 108.687 96.5732V98.5732L108.429 98.5703C107.161 98.5341 106.247 98.2255 105.686 97.6455C105.109 97.0268 104.82 96.0059 104.82 94.583ZM181.132 94.5215V57H175.719V95.542L175.725 96.0176C175.8 98.358 176.437 100.127 177.636 101.326C178.834 102.506 180.695 103.132 183.217 103.206L183.729 103.214C184.266 103.214 184.792 103.183 185.307 103.121C185.823 103.08 186.266 103.018 186.638 102.936L186.018 98.3262C185.792 98.3674 185.534 98.3983 185.245 98.4189C184.977 98.4395 184.637 98.4502 184.224 98.4502V96.4502C184.609 96.4502 184.894 96.44 185.092 96.4248L185.103 96.4238C185.337 96.4071 185.521 96.3839 185.661 96.3584L185.863 96.332C186.336 96.2952 186.808 96.4277 187.195 96.709C187.637 97.0304 187.928 97.519 188.001 98.0605L188.62 102.669C188.758 103.698 188.085 104.662 187.071 104.888C186.596 104.993 186.07 105.063 185.509 105.109C184.923 105.178 184.33 105.214 183.729 105.214C180.702 105.214 178.048 104.537 176.233 102.752C176.23 102.748 176.225 102.745 176.222 102.741C174.433 100.953 173.719 98.4226 173.719 95.542V57C173.719 55.8954 174.614 55 175.719 55H181.132C182.236 55.0002 183.132 55.8955 183.132 57V94.5215C183.132 95.1935 183.178 95.687 183.247 96.0312C183.277 96.1836 183.309 96.2858 183.332 96.3496C183.476 96.3957 183.755 96.4502 184.224 96.4502V98.4502L183.78 98.4365C182.788 98.3756 182.111 98.1015 181.75 97.6143C181.389 97.127 181.187 96.2768 181.141 95.0635L181.132 94.5215ZM131.427 73.6475C133.286 73.703 134.883 74.1753 136.217 75.0645C137.639 76.013 138.722 77.3433 139.465 79.0547C140.017 80.3291 140.365 81.7525 140.506 83.3242H121.322C121.436 81.8696 121.764 80.5284 122.309 79.3008L122.452 78.9932C123.187 77.4466 124.22 76.2077 125.553 75.2773L125.824 75.0957C127.288 74.1266 129.031 73.6416 131.052 73.6416L131.427 73.6475ZM131.052 75.6416C129.362 75.6416 128.017 76.0425 126.928 76.7637C126.922 76.7673 126.916 76.7709 126.911 76.7744C125.773 77.5118 124.891 78.5203 124.259 79.8516L124.255 79.8604C124.032 80.3225 123.847 80.81 123.699 81.3242H138.139C138 80.8019 137.829 80.311 137.63 79.8506C137.026 78.459 136.181 77.4441 135.107 76.7285C134.069 76.0365 132.751 75.6417 131.052 75.6416ZM160.716 48.585V14.373H155.427V19.6934H155.117C154.63 18.8814 154.016 18.0775 153.276 17.2812L152.952 16.9404C152.086 16.0331 150.993 15.2903 149.673 14.7129C148.518 14.2077 147.158 13.9235 145.593 13.8604L144.909 13.8477C142.063 13.8477 139.547 14.5692 137.361 16.0127L136.957 16.2861C134.965 17.6889 133.398 19.6083 132.258 22.0439L132.037 22.5332C130.968 25.003 130.432 27.8714 130.432 31.1387L130.439 31.7861C130.511 34.998 131.117 37.7929 132.258 40.1709C133.495 42.7073 135.196 44.6565 137.361 46.0176C139.411 47.2936 141.732 47.971 144.325 48.0508L144.848 48.0586C146.607 48.0586 148.112 47.8145 149.364 47.3252L149.611 47.2236C150.91 46.6463 151.983 45.9246 152.828 45.0586C153.694 44.1925 154.416 43.2952 154.993 42.3672H155.303V48.4297L155.293 48.9473C155.193 51.4945 154.34 53.4255 152.735 54.7402L152.408 54.999C150.739 56.2497 148.59 56.875 145.961 56.875V54.875C148.423 54.875 150.19 54.2555 151.457 53.2021L151.468 53.1934C152.596 52.2691 153.303 50.8091 153.303 48.4297V47.3184C152.454 48.0007 151.49 48.5775 150.423 49.0518C150.415 49.0553 150.406 49.0581 150.398 49.0615C148.783 49.7537 146.911 50.0586 144.848 50.0586C141.704 50.0586 138.836 49.2909 136.305 47.7148L136.297 47.7109C133.784 46.1312 131.843 43.8836 130.46 41.0479L130.454 41.0361C129.081 38.1731 128.432 34.8533 128.432 31.1387C128.432 27.4228 129.082 24.0878 130.449 21.1904C131.807 18.292 133.743 15.9813 136.27 14.3359C138.809 12.6628 141.711 11.8477 144.909 11.8477C146.965 11.8477 148.84 12.1659 150.474 12.8809C151.569 13.3597 152.558 13.9506 153.427 14.6611V14.373C153.427 13.2685 154.322 12.373 155.427 12.373H160.716C161.82 12.373 162.716 13.2685 162.716 14.373V48.585C162.716 51.9362 161.984 54.8638 160.349 57.207C158.778 59.48 156.663 61.1407 154.057 62.1689L154.056 62.168C151.569 63.1571 148.863 63.6387 145.961 63.6387C143.263 63.6387 140.806 63.2626 138.624 62.4648L138.617 62.4629C136.486 61.6754 134.651 60.5508 133.163 59.0625C131.7 57.5996 130.652 55.8763 130.039 53.9141C129.714 52.8752 130.281 51.767 131.312 51.4209L136.2 49.7822L136.383 49.7295C137.301 49.5151 138.259 49.9758 138.656 50.8506C138.964 51.5283 139.415 52.1851 140.032 52.8193C140.574 53.3757 141.312 53.8745 142.303 54.2842C143.187 54.65 144.383 54.875 145.961 54.875V56.875L145.316 56.8633C143.844 56.8091 142.583 56.5649 141.537 56.1318C140.491 55.6989 139.61 55.1558 138.895 54.502L138.599 54.2148C137.836 53.4312 137.248 52.5851 136.836 51.6777L131.948 53.3174C132.464 54.9671 133.341 56.4111 134.578 57.6484C135.836 58.9062 137.413 59.8859 139.31 60.5869C141.108 61.2442 143.169 61.5927 145.493 61.6338L145.961 61.6387C148.642 61.6387 151.096 61.1953 153.323 60.3086C155.571 59.4219 157.365 58.0087 158.705 56.0703C159.962 54.2724 160.629 51.9671 160.708 49.1543L160.716 48.585ZM46.4608 31.417C46.4608 27.7281 47.1352 24.3836 48.5419 21.4316L48.8192 20.877C50.2229 18.1704 52.1484 15.9847 54.6005 14.3721C57.25 12.6297 60.301 11.7852 63.6796 11.7852C65.9345 11.7852 68.0877 12.1774 70.1229 12.9717L70.5136 13.1279C72.4488 13.9375 74.1613 15.1245 75.6415 16.6709H75.6405C77.2395 18.3206 78.4548 20.3591 79.3173 22.7344L79.4823 23.1924C80.277 25.5029 80.6512 28.122 80.6513 31.0146V32.9326C80.6513 34.0372 79.7558 34.9326 78.6513 34.9326H56.1249C56.3018 35.9487 56.5825 36.8527 56.955 37.6543C57.6455 39.0764 58.5867 40.1181 59.7762 40.8477C60.9609 41.5742 62.4118 41.9756 64.2059 41.9756V43.9756L63.8143 43.9697C61.8751 43.9141 60.1803 43.442 58.7304 42.5527C57.2803 41.6633 56.1383 40.4206 55.3046 38.8242L55.1425 38.501C54.3997 36.9041 53.9928 35.0477 53.9188 32.9326H78.6513V31.0146C78.6512 28.1072 78.2494 25.5811 77.4452 23.4365C76.7105 21.4064 75.7124 19.7027 74.452 18.3252L74.1972 18.0537C72.8155 16.6102 71.2169 15.538 69.4022 14.8369C67.6082 14.1358 65.7005 13.7852 63.6796 13.7852C60.6482 13.7852 57.9881 14.5386 55.6991 16.0439L55.2762 16.332C53.1893 17.811 51.5463 19.7978 50.3475 22.292C49.0897 24.9315 48.4608 27.9732 48.4608 31.417C48.4608 34.8402 49.0896 37.8615 50.3475 40.4805C51.6054 43.0993 53.4099 45.151 55.7606 46.6357C57.9647 48.0084 60.5769 48.7375 63.5966 48.8232L64.2059 48.832C66.5772 48.832 68.7113 48.4301 70.6083 47.626C72.5261 46.8217 74.1247 45.708 75.4032 44.2852C76.7023 42.8417 77.5997 41.1715 78.0946 39.2744L72.743 38.4385C72.3719 39.6139 71.7845 40.6146 70.9804 41.4395C70.1967 42.2643 69.227 42.8931 68.0722 43.3262C66.938 43.7592 65.6493 43.9756 64.2059 43.9756V41.9756C65.4505 41.9756 66.4915 41.7893 67.3593 41.458L67.37 41.4531C68.2655 41.1173 68.9722 40.6488 69.5302 40.0615L69.5477 40.043C70.1185 39.4576 70.552 38.7354 70.8358 37.8369L70.8993 37.6641C71.2516 36.824 72.1362 36.32 73.0516 36.4629L78.4032 37.2979C78.9614 37.3851 79.4565 37.7044 79.7665 38.1768C80.0764 38.6494 80.1718 39.2314 80.0292 39.7783C79.4544 41.9816 78.4044 43.9376 76.8895 45.6211L76.8905 45.6221C75.3992 47.2816 73.5518 48.5576 71.3886 49.4658L71.3895 49.4668C69.211 50.3903 66.8054 50.832 64.2059 50.832C60.6231 50.832 57.4263 50.0294 54.704 48.334L54.6932 48.3271C52.0102 46.6326 49.9577 44.2881 48.5448 41.3467C47.1359 38.4134 46.4608 35.087 46.4608 31.417ZM89.3729 36.3779C90.3478 36.341 91.221 37.0203 91.41 37.9971C91.7031 39.511 92.3281 40.4483 93.1698 41.0439C94.0795 41.6876 95.3907 42.0996 97.2723 42.0996V44.0996L96.872 44.0938C95.0222 44.0419 93.4885 43.6269 92.2704 42.8486L92.0145 42.6768C90.6741 41.7282 89.8184 40.2947 89.4472 38.377L84.2186 39.0879C84.5073 41.2326 85.2395 43.0378 86.4149 44.502C87.611 45.9454 89.1371 47.0282 90.993 47.75C92.7523 48.4266 94.7203 48.7858 96.8964 48.8281L97.3348 48.832C99.8918 48.832 102.16 48.4089 104.14 47.5635C106.119 46.718 107.667 45.5425 108.78 44.0371C109.843 42.6065 110.408 40.9583 110.474 39.0928L110.481 38.7168C110.481 36.3455 109.738 34.4067 108.254 32.9014C106.769 31.3755 104.459 30.2414 101.325 29.499L96.0663 28.2617C94.2516 27.8287 92.88 27.2308 91.952 26.4678C91.1014 25.7524 90.6496 24.8194 90.5966 23.6689L90.5917 23.4365C90.5917 22.0137 91.2302 20.8275 92.5087 19.8789C93.8078 18.9097 95.4788 18.4248 97.5204 18.4248L97.9208 18.4316C99.8925 18.4945 101.429 19.0289 102.531 20.0342C103.633 21.02 104.336 22.1869 104.641 23.5352L104.696 23.8076L109.801 23.0957C109.491 21.3365 108.864 19.7949 107.921 18.4707L107.728 18.209C106.762 16.8942 105.486 15.8602 103.903 15.1074L103.583 14.9609C101.959 14.2263 100.081 13.836 97.9501 13.79L97.5204 13.7852C95.1076 13.7852 92.9624 14.2082 91.0858 15.0537L90.743 15.2119C89.0489 16.0239 87.6986 17.1265 86.6932 18.5186C85.6418 20.0032 85.1161 21.7045 85.1161 23.6221L85.1249 24.0693C85.2155 26.2805 85.9864 28.1116 87.4364 29.5615C88.983 31.108 91.2927 32.2518 94.3651 32.9941L99.9022 34.2939C101.511 34.6651 102.748 35.2428 103.614 36.0264C104.48 36.7893 104.913 37.7689 104.913 38.9648L104.905 39.2324C104.824 40.5591 104.136 41.6863 102.841 42.6143L102.576 42.7949C101.225 43.6648 99.4569 44.0996 97.2723 44.0996V42.0996C99.3362 42.0996 100.739 41.6602 101.676 40.9893C102.639 40.2991 102.913 39.6431 102.913 38.9648C102.913 38.3194 102.71 37.8943 102.292 37.5264C102.285 37.5206 102.279 37.5147 102.272 37.5088C101.742 37.0291 100.858 36.5666 99.452 36.2422L99.4452 36.2412L93.9081 34.9414L93.8954 34.9385C90.6156 34.146 87.9201 32.8732 86.0223 30.9756C84.0602 29.0135 83.1161 26.5052 83.1161 23.6221C83.1161 21.314 83.7571 19.2038 85.0614 17.3623L85.0722 17.3467C86.2921 15.6576 87.9133 14.3507 89.8768 13.4092L90.2743 13.2256C92.4473 12.2484 94.8766 11.7852 97.5204 11.7852C100.054 11.7852 102.366 12.2156 104.407 13.1387H104.406C106.411 14.025 108.069 15.3067 109.319 16.9971C110.583 18.6568 111.391 20.5902 111.77 22.75C111.864 23.2845 111.737 23.8347 111.418 24.2734C111.099 24.7121 110.614 25.0021 110.077 25.0771L104.973 25.7881C103.911 25.9359 102.922 25.2218 102.729 24.168C102.546 23.1677 102.064 22.299 101.198 21.5244C101.193 21.5202 101.188 21.516 101.183 21.5117C100.492 20.8808 99.3689 20.4248 97.5204 20.4248C95.7966 20.4248 94.5778 20.8313 93.705 21.4824L93.7011 21.4854C92.8614 22.1083 92.5917 22.7287 92.5917 23.4365C92.5917 24.1378 92.8102 24.5706 93.2264 24.9258C93.8261 25.4173 94.8674 25.9196 96.5302 26.3164H96.5292L101.783 27.5527H101.786C105.114 28.3409 107.834 29.6023 109.687 31.5068H109.686C111.58 33.4319 112.481 35.8939 112.481 38.7168C112.481 41.137 111.792 43.3332 110.387 45.2256L110.388 45.2266C109.033 47.0583 107.183 48.4394 104.926 49.4033C102.656 50.3728 100.112 50.832 97.3348 50.832C94.7793 50.832 92.4162 50.4396 90.2753 49.6162L90.2684 49.6133C88.1156 48.7761 86.3017 47.4994 84.8749 45.7773C84.8684 45.7695 84.8617 45.7618 84.8554 45.7539C83.4192 43.965 82.567 41.8048 82.2372 39.3555C82.09 38.262 82.8559 37.2554 83.9491 37.1064L89.1766 36.3955L89.3729 36.3779ZM42.3055 24.9521C42.3055 20.4862 41.5531 16.6091 40.0487 13.3213L39.7382 12.6719C38.1335 9.44331 35.8762 6.92132 32.9667 5.10645L32.3759 4.75293C29.3986 3.03229 25.8413 2.11828 21.704 2.01074L20.869 2V0C25.6349 2.31217e-05 29.8313 0.973633 33.372 3.01855L34.0282 3.41211C37.2629 5.43065 39.7673 8.23626 41.5292 11.7812H41.5282C43.4072 15.541 44.3055 19.954 44.3055 24.9521C44.3055 29.9944 43.3964 34.4501 41.496 38.251L41.495 38.25C39.6096 42.0415 36.8385 44.9897 33.2059 47.0459C29.562 49.1085 25.2248 50.0898 20.2811 50.0898H5.95887C4.85451 50.0896 3.9589 49.1942 3.95887 48.0898V2C3.95887 0.895566 4.85449 0.00021953 5.95887 0H20.869V2H5.95887V48.0898H20.2811L21.1503 48.0791C25.1699 47.9776 28.6526 47.1652 31.5985 45.6426L32.2216 45.3057C35.5002 43.4498 37.9954 40.8 39.7069 37.3564C41.3309 34.1084 42.1934 30.2709 42.2948 25.8447L42.3055 24.9521ZM123.163 14.373H117.75V48.0898H123.163V14.373ZM196.876 26.8701C196.876 24.1246 196.423 21.8231 195.516 19.9658L195.33 19.6006C194.383 17.8025 193.09 16.4305 191.454 15.4844L191.123 15.3008C189.46 14.3921 187.58 13.9093 185.482 13.8525L185.059 13.8477C182.461 13.8477 180.193 14.5278 178.255 15.8887L177.896 16.1504C176.703 17.069 175.689 18.3398 174.852 19.9619V14.373H169.594V48.0898H175.007V28.0762C175.007 25.9934 175.388 24.2712 176.151 22.9102C176.886 21.615 177.847 20.6282 179.035 19.9492L179.275 19.8174C180.595 19.1162 182.07 18.7656 183.699 18.7656L184.145 18.7744C186.347 18.8615 188.095 19.6012 189.391 20.9932C190.772 22.4573 191.463 24.5603 191.463 27.3027V48.0898H196.876V26.8701ZM153.488 31.0771C153.488 28.8037 153.137 26.9202 152.497 25.3799L152.494 25.3721C151.858 23.8245 150.968 22.7021 149.851 21.916C149.843 21.9099 149.834 21.9037 149.825 21.8975C148.778 21.1348 147.446 20.7042 145.714 20.7041C144.005 20.7041 142.662 21.1228 141.586 21.877C140.482 22.6651 139.585 23.7959 138.926 25.3584C138.287 26.9207 137.938 28.8127 137.938 31.0771C137.938 33.3731 138.29 35.2511 138.926 36.7637C139.575 38.2613 140.465 39.3401 141.571 40.0889C142.655 40.8028 144.006 41.2021 145.714 41.2021V43.2021L145.334 43.1963C143.579 43.1433 142.045 42.7199 140.732 41.9248L140.455 41.749C138.991 40.7592 137.867 39.3566 137.083 37.542C136.368 35.8408 135.988 33.8403 135.943 31.541L135.938 31.0771C135.938 28.6026 136.32 26.437 137.083 24.5811C137.867 22.7251 138.98 21.2811 140.424 20.25C141.888 19.2189 143.652 18.7041 145.714 18.7041L146.1 18.71C148.015 18.7716 149.65 19.2953 151.003 20.2812C152.467 21.3123 153.581 22.7563 154.344 24.6123C155.107 26.4476 155.488 28.6027 155.488 31.0771L155.483 31.5371C155.439 33.8196 155.059 35.8214 154.344 37.542L154.196 37.877C153.44 39.5299 152.375 40.821 151.003 41.749L150.724 41.9248C149.317 42.7765 147.647 43.2021 145.714 43.2021V41.2021C147.446 41.2021 148.805 40.8004 149.886 40.0889C150.991 39.3409 151.87 38.2641 152.5 36.7666C153.138 35.2277 153.488 33.3469 153.488 31.0771ZM34.6757 24.9521C34.6757 21.4753 34.1023 18.597 33.0321 16.2568C33.0295 16.2512 33.0268 16.2449 33.0243 16.2393C31.9879 13.9165 30.4537 12.1768 28.41 10.9541L28.4042 10.9502C26.4008 9.74127 23.7925 9.07324 20.4667 9.07324H13.6815V41.0166H19.91V43.0166H11.6815V7.07324H20.4667C24.0549 7.07324 27.0453 7.79475 29.4374 9.23828C31.8501 10.6818 33.6544 12.744 34.8505 15.4248C36.0672 18.085 36.6757 21.2608 36.6757 24.9521L36.6679 25.6455C36.5954 29.0845 35.9792 32.0708 34.8192 34.6035L34.5839 35.1025C33.3695 37.5626 31.602 39.479 29.2821 40.8516L28.8114 41.1133C26.4153 42.3822 23.4482 43.0166 19.91 43.0166V41.0166C23.4331 41.0166 26.1793 40.3432 28.2645 39.1299C30.3728 37.8824 31.9431 36.1198 32.996 33.7822L33.0009 33.7705C34.0919 31.3883 34.6757 28.4686 34.6757 24.9521ZM63.6796 18.6416C65.7005 18.6416 67.4227 19.1159 68.8456 20.0645C70.2684 21.013 71.3513 22.3432 72.0936 24.0547C72.6464 25.3291 72.9935 26.7525 73.1347 28.3242H53.9501C54.0639 26.8696 54.3933 25.5285 54.9384 24.3008L55.0809 23.9932C55.8156 22.4466 56.8488 21.2077 58.1815 20.2773L58.452 20.0957C59.9161 19.1265 61.6587 18.6416 63.6796 18.6416ZM63.6796 20.6416C61.9906 20.6416 60.6459 21.0426 59.5565 21.7637C59.5511 21.7673 59.5454 21.7709 59.5399 21.7744C58.4018 22.5118 57.519 23.5202 56.8866 24.8516L56.8827 24.8604C56.6604 25.3224 56.4752 25.81 56.327 26.3242H70.7665C70.6278 25.8019 70.4583 25.3109 70.2587 24.8506C69.655 23.4589 68.8097 22.4442 67.7362 21.7285C66.6979 21.0363 65.3788 20.6416 63.6796 20.6416ZM123.411 2H117.534V8.00098H123.411V2ZM83.5389 80.3545L83.5253 80.6523C83.4622 81.3222 83.1778 81.8104 82.6727 82.1172L82.4403 82.2363C81.8607 82.5048 81.0206 82.7028 79.9198 82.8291L78.9003 82.9502C77.8061 83.0855 76.4858 83.262 74.9393 83.4785L73.7235 83.6465C72.5132 83.8282 71.32 84.0505 70.1444 84.3135C68.5773 84.664 67.1543 85.1905 65.8759 85.8916L65.6395 86.0215C64.4709 86.6909 63.5288 87.5965 62.8134 88.7373C62.0712 89.9333 61.7001 91.5004 61.7001 93.4385L61.7059 93.8525C61.7652 95.9006 62.2684 97.6497 63.2157 99.0996C64.2467 100.626 65.6388 101.79 67.3915 102.595C69.0348 103.329 70.8686 103.72 72.8925 103.766L73.2997 103.771C75.1363 103.771 76.7011 103.525 77.994 103.036L78.2489 102.936C79.5893 102.379 80.6721 101.687 81.497 100.862C82.3218 100.017 82.9304 99.2025 83.3222 98.4189H83.5692V103.09H88.9208V80.416C88.9208 78.2095 88.5393 76.3637 87.7763 74.8789C87.034 73.3738 86.0339 72.1883 84.7763 71.3223C83.6935 70.5463 82.5077 69.9671 81.2196 69.5859L80.662 69.4346C79.3629 69.0918 78.0636 68.8993 76.7645 68.8564L76.2079 68.8477C74.0632 68.8477 72.0523 69.1876 70.1757 69.8682L69.827 70C68.0992 70.6779 66.6071 71.6547 65.3505 72.9307L65.1034 73.1855C63.8939 74.4832 63.0377 76.0891 62.535 78.0029L67.8866 78.9932C68.1341 78.0652 68.6083 77.1988 69.3095 76.3945C70.0312 75.5697 70.9798 74.8993 72.1552 74.3838C73.3306 73.8682 74.7128 73.6113 76.3007 73.6113L76.8768 73.623C78.1939 73.6817 79.3215 73.946 80.2597 74.415C81.3318 74.9511 82.1462 75.7038 82.703 76.6729C83.2598 77.6214 83.5389 78.7662 83.5389 80.1064V80.3545ZM171.625 74.4463C171.625 75.062 171.341 75.6435 170.855 76.0225C170.37 76.4014 169.737 76.536 169.14 76.3867C169.126 76.3843 169.056 76.3704 168.895 76.3457C168.717 76.3182 168.474 76.2844 168.162 76.2441C168.138 76.241 168.113 76.2374 168.089 76.2334C167.599 76.1518 167.021 76.1055 166.346 76.1055C165.209 76.1055 164.216 76.3539 163.329 76.8281L163.317 76.835C162.49 77.2703 161.823 77.9046 161.303 78.7881C160.833 79.6193 160.551 80.7013 160.551 82.1172V103.09C160.551 104.194 159.655 105.09 158.551 105.09H153.138C152.033 105.09 151.138 104.194 151.138 103.09V69.373C151.138 68.2685 152.033 67.373 153.138 67.373H158.334C159.327 67.373 160.148 68.0967 160.305 69.0449C160.405 68.9697 160.507 68.8965 160.611 68.8242V68.8232C162.478 67.501 164.669 66.878 167.088 66.8779C167.552 66.8779 168.045 66.8895 168.563 66.9111C169.082 66.9328 169.551 66.9673 169.929 67.0254C170.904 67.1755 171.625 68.0149 171.625 69.002V74.4463ZM125.163 48.0898C125.163 49.1944 124.268 50.0898 123.163 50.0898H117.75C116.645 50.0897 115.75 49.1943 115.75 48.0898V14.373C115.75 13.2686 116.645 12.3732 117.75 12.373H123.163C124.268 12.373 125.163 13.2685 125.163 14.373V48.0898ZM176.852 14.4375C176.937 14.3754 177.019 14.3116 177.105 14.252C179.413 12.6317 182.092 11.8477 185.059 11.8477C187.621 11.8477 189.98 12.397 192.082 13.5459H192.081C194.239 14.6933 195.911 16.4203 197.091 18.6533C198.323 20.9453 198.876 23.7205 198.876 26.8701V48.0898C198.876 49.1944 197.98 50.0898 196.876 50.0898H191.463C190.358 50.0898 189.463 49.1943 189.463 48.0898V27.3027C189.463 24.8826 188.856 23.3409 187.935 22.3652L187.927 22.3555C186.995 21.3541 185.671 20.7657 183.699 20.7656C182.367 20.7656 181.219 21.049 180.214 21.583L180.203 21.5889C179.273 22.0763 178.501 22.8212 177.891 23.8975C177.345 24.8755 177.007 26.2311 177.007 28.0762V48.0898C177.007 49.1944 176.111 50.0898 175.007 50.0898H169.594C168.489 50.0898 167.594 49.1944 167.594 48.0898V14.373C167.594 13.2685 168.489 12.373 169.594 12.373H174.852C175.957 12.3733 176.852 13.2686 176.852 14.373V14.4375ZM125.411 8.00098C125.411 9.10549 124.516 10.0009 123.411 10.001H117.534C116.43 10.001 115.534 9.10553 115.534 8.00098V2C115.534 0.89543 116.429 0 117.534 0H123.411L123.615 0.0107422C124.624 0.113068 125.411 0.964396 125.411 2V8.00098Z" fill="black"/>
</svg>
