<svg width="24" height="24" viewBox="0 0 24 24" fill="none" xmlns="http://www.w3.org/2000/svg">
<path d="M23.1921 6.46314C23.1353 6.32608 23.0392 6.20893 22.9159 6.12649C22.7926 6.04406 22.6476 6.00004 22.4993 6.00001H19.6465C19.2476 5.32143 18.6799 4.7576 17.9987 4.36333C17.3174 3.96906 16.5457 3.75778 15.7586 3.75001C15.1723 3.74232 14.5902 3.85199 14.0469 4.07256C13.5035 4.29313 13.0097 4.62015 12.5946 5.03439C12.1673 5.45366 11.8282 5.95412 11.5972 6.50634C11.3662 7.05857 11.2479 7.65141 11.2493 8.25001V8.82095C7.47489 7.82532 4.3877 4.75501 4.35489 4.7222C4.25427 4.62069 4.12674 4.55004 3.98731 4.51858C3.84789 4.48712 3.70238 4.49615 3.56792 4.54462C3.43345 4.59309 3.31564 4.67896 3.22835 4.79214C3.14106 4.90532 3.08792 5.04109 3.0752 5.18345C2.67114 9.66376 3.97239 12.6619 5.1377 14.3878C5.7059 15.241 6.39713 16.0056 7.18895 16.6566C5.76114 18.3 3.51302 19.1634 3.48864 19.1728C3.38281 19.2125 3.28731 19.2755 3.20926 19.3572C3.13122 19.439 3.07266 19.5373 3.03795 19.6448C3.00324 19.7524 2.99329 19.8664 3.00883 19.9783C3.02437 20.0903 3.06501 20.1972 3.1277 20.2913C3.19802 20.3963 3.47927 20.7647 4.16645 21.1088C5.01583 21.5344 6.13802 21.75 7.49927 21.75C14.1246 21.75 19.6605 16.6481 20.2258 10.0838L23.0299 7.28064C23.1347 7.17569 23.2061 7.04201 23.235 6.89649C23.2639 6.75097 23.2489 6.60016 23.1921 6.46314ZM18.9733 9.22032C18.8447 9.34922 18.7674 9.5205 18.7558 9.7022C18.3743 15.6169 13.4318 20.25 7.49927 20.25C6.50927 20.25 5.81177 20.1188 5.32239 19.9613C6.40145 19.3753 7.90614 18.3675 8.87364 16.9163C8.93043 16.8309 8.96912 16.7349 8.98732 16.634C9.00553 16.5331 9.00287 16.4296 8.9795 16.3298C8.95613 16.23 8.91255 16.136 8.85145 16.0537C8.79035 15.9714 8.71303 15.9025 8.62427 15.8513C8.5802 15.8259 4.5077 13.3819 4.49927 6.85126C5.99927 8.07001 8.74145 9.96095 11.8746 10.4878C11.982 10.5059 12.092 10.5004 12.197 10.4717C12.3021 10.443 12.3996 10.3918 12.4828 10.3215C12.5661 10.2513 12.633 10.1638 12.679 10.0651C12.725 9.96644 12.749 9.85891 12.7493 9.75001V8.25001C12.7484 7.84993 12.8276 7.45373 12.9822 7.08471C13.1367 6.71569 13.3636 6.38132 13.6493 6.10126C13.9232 5.82685 14.2493 5.61014 14.6084 5.46393C14.9675 5.31772 15.3522 5.24498 15.7399 5.25001C16.9268 5.26501 18.0358 5.98876 18.4999 7.05095C18.5584 7.18449 18.6545 7.29809 18.7766 7.37785C18.8986 7.4576 19.0413 7.50005 19.1871 7.50001H20.6871L18.9733 9.22032Z" fill="black"/>
</svg>
