<svg width="512" height="512" viewBox="0 0 512 512" fill="none" xmlns="http://www.w3.org/2000/svg">
<rect width="512" height="512" rx="100" fill="white"/>
<mask id="path-2-outside-1_601_20" maskUnits="userSpaceOnUse" x="65" y="102" width="382" height="307" fill="black">
<rect fill="white" x="65" y="102" width="382" height="307"/>
<path fill-rule="evenodd" clip-rule="evenodd" d="M209.969 128.18C183.331 120.196 163.093 123.387 151.904 134.575C146.054 140.425 142.391 148.749 141.368 159.168C147.933 160.035 154.624 161.514 161.316 163.52C172.237 166.793 183.521 171.552 194.847 177.675C198.057 174.108 201.397 170.585 204.863 167.12C215.255 156.728 226.154 147.465 237.249 139.449C227.91 134.582 218.733 130.807 209.969 128.18ZM255.944 127.221C242.358 119.233 228.74 113.171 215.645 109.246C186.173 100.412 156.717 101.808 137.927 120.598C127.818 130.707 122.743 143.903 121.588 158.528C106.939 159.675 93.7211 164.749 83.5983 174.872C64.8081 193.662 63.412 223.118 72.246 252.59C81.2108 282.499 101.32 315.133 130.067 343.88C158.814 372.627 191.449 392.737 221.357 401.701C232.534 405.051 243.708 406.93 254.298 406.947C265.826 407.349 278.132 405.444 290.441 401.754C320.35 392.789 352.984 372.68 381.731 343.933C410.478 315.186 430.588 282.551 439.552 252.643C448.386 223.17 446.99 193.715 428.2 174.925C418.077 164.802 404.859 159.727 390.21 158.581C389.055 143.956 383.98 130.76 373.871 120.651C355.081 101.861 325.626 100.465 296.153 109.299C283.087 113.215 269.5 119.259 255.944 127.221ZM255.939 150.537C243.372 158.897 230.809 169.128 218.84 181.097C216.538 183.399 214.3 185.724 212.127 188.066C226.005 197.264 239.698 208.432 252.607 221.341C253.726 222.46 254.832 223.585 255.925 224.715C257.001 223.602 258.09 222.495 259.192 221.393C272.119 208.466 285.833 197.285 299.732 188.079C297.54 185.714 295.282 183.368 292.958 181.044C281.014 169.1 268.479 158.888 255.939 150.537ZM317.016 177.693C313.786 174.102 310.424 170.556 306.935 167.067C296.57 156.702 285.7 147.46 274.634 139.458C283.944 134.612 293.092 130.852 301.829 128.233C328.467 120.249 348.706 123.439 359.894 134.628C365.744 140.478 369.408 148.802 370.431 159.221C363.865 160.088 357.174 161.566 350.482 163.572C339.582 166.839 328.32 171.587 317.016 177.693ZM312.69 203.221C299.318 211.863 285.907 222.632 273.169 235.37C271.815 236.724 270.484 238.085 269.175 239.453C282.27 255.137 292.875 271.511 300.632 287.634C304.952 283.868 309.226 279.882 313.426 275.682C323.095 266.012 331.63 255.955 338.961 245.822C332.683 231.892 323.862 217.403 312.69 203.221ZM351.476 226.463C345.587 215.335 338.374 204.152 329.954 193.219C338.922 188.62 347.731 185.033 356.158 182.507C360.792 181.118 365.233 180.067 369.467 179.337C368.737 183.585 367.684 188.042 366.289 192.693C363.056 203.48 358.084 214.892 351.476 226.463ZM346.926 267.944C340.961 275.351 334.441 282.621 327.403 289.659C321.278 295.784 314.976 301.517 308.562 306.834C309.23 308.776 309.852 310.709 310.428 312.631C312.44 319.343 313.921 326.055 314.787 332.639C325.228 331.623 333.568 327.957 339.427 322.098C350.061 311.464 353.471 292.654 346.926 267.944ZM315.414 352.419C330.063 351.273 343.281 346.198 353.404 336.075C372.194 317.285 373.59 287.83 364.756 258.357C363.751 255.003 362.605 251.614 361.323 248.2C372.28 231.489 380.379 214.531 385.224 198.369C387.236 191.657 388.717 184.945 389.583 178.361C400.024 179.377 408.364 183.043 414.223 188.902C425.411 200.09 428.602 220.329 420.618 246.967C412.764 273.169 394.65 303.06 367.754 329.956C349.521 348.189 329.91 362.387 311.006 372.088C313.437 365.971 314.866 359.356 315.414 352.419ZM294.671 331.663C294.007 327.801 293.076 323.766 291.865 319.569C287.666 322.504 283.444 325.259 279.215 327.829C279.933 328.058 280.649 328.28 281.362 328.493C285.996 329.882 290.437 330.933 294.671 331.663ZM255.958 340.07C262.617 343.027 269.215 345.488 275.686 347.428C282.378 349.434 289.069 350.912 295.635 351.779C294.612 362.198 290.948 370.522 285.098 376.372C278.213 383.257 267.9 387.114 254.777 387.201C242.72 386.711 233.188 382.913 226.7 376.425C220.85 370.575 217.187 362.251 216.164 351.832C222.729 350.965 229.42 349.486 236.112 347.48C242.621 345.529 249.259 343.051 255.958 340.07ZM255.951 318.185C265.453 313.362 275.141 307.399 284.749 300.355C278.015 285.347 268.326 269.682 255.921 254.448C243.517 269.672 233.825 285.327 227.085 300.329C236.716 307.387 246.427 313.359 255.951 318.185ZM219.959 319.534C224.187 322.489 228.438 325.261 232.697 327.846C231.941 328.088 231.187 328.321 230.437 328.546C225.802 329.935 221.361 330.986 217.128 331.715C217.796 327.827 218.735 323.763 219.959 319.534ZM211.202 287.613C218.966 271.494 229.573 255.127 242.67 239.449C241.346 238.065 239.999 236.688 238.629 235.318C225.908 222.597 212.517 211.84 199.163 203.204C187.983 217.386 179.153 231.877 172.867 245.81C180.191 255.929 188.716 265.973 198.373 275.63C202.584 279.841 206.869 283.837 211.202 287.613ZM164.893 267.917C170.853 275.315 177.366 282.577 184.396 289.607C190.53 295.741 196.841 301.481 203.264 306.804C202.586 308.775 201.955 310.735 201.371 312.684C199.359 319.396 197.877 326.107 197.011 332.692C186.57 331.675 178.23 328.01 172.372 322.151C161.726 311.505 158.321 292.666 164.893 267.917ZM160.351 226.461C166.249 215.325 173.471 204.135 181.903 193.197C172.915 188.583 164.086 184.985 155.641 182.454C151.006 181.065 146.565 180.014 142.332 179.285C143.061 183.532 144.115 187.989 145.509 192.641C148.747 203.443 153.729 214.873 160.351 226.461ZM122.215 178.308C123.081 184.893 124.563 191.604 126.575 198.316C131.423 214.491 139.53 231.463 150.501 248.186C149.208 251.622 148.054 255.034 147.042 258.41C138.208 287.882 139.604 317.338 158.394 336.128C168.517 346.251 181.735 351.325 196.384 352.472C196.928 359.359 198.341 365.928 200.74 372.008C181.852 362.308 162.261 348.12 144.044 329.903C117.148 303.008 99.034 273.116 91.1805 246.915C83.196 220.276 86.3869 200.038 97.5755 188.849C103.434 182.99 111.774 179.325 122.215 178.308Z"/>
</mask>
<path fill-rule="evenodd" clip-rule="evenodd" d="M209.969 128.18C183.331 120.196 163.093 123.387 151.904 134.575C146.054 140.425 142.391 148.749 141.368 159.168C147.933 160.035 154.624 161.514 161.316 163.52C172.237 166.793 183.521 171.552 194.847 177.675C198.057 174.108 201.397 170.585 204.863 167.12C215.255 156.728 226.154 147.465 237.249 139.449C227.91 134.582 218.733 130.807 209.969 128.18ZM255.944 127.221C242.358 119.233 228.74 113.171 215.645 109.246C186.173 100.412 156.717 101.808 137.927 120.598C127.818 130.707 122.743 143.903 121.588 158.528C106.939 159.675 93.7211 164.749 83.5983 174.872C64.8081 193.662 63.412 223.118 72.246 252.59C81.2108 282.499 101.32 315.133 130.067 343.88C158.814 372.627 191.449 392.737 221.357 401.701C232.534 405.051 243.708 406.93 254.298 406.947C265.826 407.349 278.132 405.444 290.441 401.754C320.35 392.789 352.984 372.68 381.731 343.933C410.478 315.186 430.588 282.551 439.552 252.643C448.386 223.17 446.99 193.715 428.2 174.925C418.077 164.802 404.859 159.727 390.21 158.581C389.055 143.956 383.98 130.76 373.871 120.651C355.081 101.861 325.626 100.465 296.153 109.299C283.087 113.215 269.5 119.259 255.944 127.221ZM255.939 150.537C243.372 158.897 230.809 169.128 218.84 181.097C216.538 183.399 214.3 185.724 212.127 188.066C226.005 197.264 239.698 208.432 252.607 221.341C253.726 222.46 254.832 223.585 255.925 224.715C257.001 223.602 258.09 222.495 259.192 221.393C272.119 208.466 285.833 197.285 299.732 188.079C297.54 185.714 295.282 183.368 292.958 181.044C281.014 169.1 268.479 158.888 255.939 150.537ZM317.016 177.693C313.786 174.102 310.424 170.556 306.935 167.067C296.57 156.702 285.7 147.46 274.634 139.458C283.944 134.612 293.092 130.852 301.829 128.233C328.467 120.249 348.706 123.439 359.894 134.628C365.744 140.478 369.408 148.802 370.431 159.221C363.865 160.088 357.174 161.566 350.482 163.572C339.582 166.839 328.32 171.587 317.016 177.693ZM312.69 203.221C299.318 211.863 285.907 222.632 273.169 235.37C271.815 236.724 270.484 238.085 269.175 239.453C282.27 255.137 292.875 271.511 300.632 287.634C304.952 283.868 309.226 279.882 313.426 275.682C323.095 266.012 331.63 255.955 338.961 245.822C332.683 231.892 323.862 217.403 312.69 203.221ZM351.476 226.463C345.587 215.335 338.374 204.152 329.954 193.219C338.922 188.62 347.731 185.033 356.158 182.507C360.792 181.118 365.233 180.067 369.467 179.337C368.737 183.585 367.684 188.042 366.289 192.693C363.056 203.48 358.084 214.892 351.476 226.463ZM346.926 267.944C340.961 275.351 334.441 282.621 327.403 289.659C321.278 295.784 314.976 301.517 308.562 306.834C309.23 308.776 309.852 310.709 310.428 312.631C312.44 319.343 313.921 326.055 314.787 332.639C325.228 331.623 333.568 327.957 339.427 322.098C350.061 311.464 353.471 292.654 346.926 267.944ZM315.414 352.419C330.063 351.273 343.281 346.198 353.404 336.075C372.194 317.285 373.59 287.83 364.756 258.357C363.751 255.003 362.605 251.614 361.323 248.2C372.28 231.489 380.379 214.531 385.224 198.369C387.236 191.657 388.717 184.945 389.583 178.361C400.024 179.377 408.364 183.043 414.223 188.902C425.411 200.09 428.602 220.329 420.618 246.967C412.764 273.169 394.65 303.06 367.754 329.956C349.521 348.189 329.91 362.387 311.006 372.088C313.437 365.971 314.866 359.356 315.414 352.419ZM294.671 331.663C294.007 327.801 293.076 323.766 291.865 319.569C287.666 322.504 283.444 325.259 279.215 327.829C279.933 328.058 280.649 328.28 281.362 328.493C285.996 329.882 290.437 330.933 294.671 331.663ZM255.958 340.07C262.617 343.027 269.215 345.488 275.686 347.428C282.378 349.434 289.069 350.912 295.635 351.779C294.612 362.198 290.948 370.522 285.098 376.372C278.213 383.257 267.9 387.114 254.777 387.201C242.72 386.711 233.188 382.913 226.7 376.425C220.85 370.575 217.187 362.251 216.164 351.832C222.729 350.965 229.42 349.486 236.112 347.48C242.621 345.529 249.259 343.051 255.958 340.07ZM255.951 318.185C265.453 313.362 275.141 307.399 284.749 300.355C278.015 285.347 268.326 269.682 255.921 254.448C243.517 269.672 233.825 285.327 227.085 300.329C236.716 307.387 246.427 313.359 255.951 318.185ZM219.959 319.534C224.187 322.489 228.438 325.261 232.697 327.846C231.941 328.088 231.187 328.321 230.437 328.546C225.802 329.935 221.361 330.986 217.128 331.715C217.796 327.827 218.735 323.763 219.959 319.534ZM211.202 287.613C218.966 271.494 229.573 255.127 242.67 239.449C241.346 238.065 239.999 236.688 238.629 235.318C225.908 222.597 212.517 211.84 199.163 203.204C187.983 217.386 179.153 231.877 172.867 245.81C180.191 255.929 188.716 265.973 198.373 275.63C202.584 279.841 206.869 283.837 211.202 287.613ZM164.893 267.917C170.853 275.315 177.366 282.577 184.396 289.607C190.53 295.741 196.841 301.481 203.264 306.804C202.586 308.775 201.955 310.735 201.371 312.684C199.359 319.396 197.877 326.107 197.011 332.692C186.57 331.675 178.23 328.01 172.372 322.151C161.726 311.505 158.321 292.666 164.893 267.917ZM160.351 226.461C166.249 215.325 173.471 204.135 181.903 193.197C172.915 188.583 164.086 184.985 155.641 182.454C151.006 181.065 146.565 180.014 142.332 179.285C143.061 183.532 144.115 187.989 145.509 192.641C148.747 203.443 153.729 214.873 160.351 226.461ZM122.215 178.308C123.081 184.893 124.563 191.604 126.575 198.316C131.423 214.491 139.53 231.463 150.501 248.186C149.208 251.622 148.054 255.034 147.042 258.41C138.208 287.882 139.604 317.338 158.394 336.128C168.517 346.251 181.735 351.325 196.384 352.472C196.928 359.359 198.341 365.928 200.74 372.008C181.852 362.308 162.261 348.12 144.044 329.903C117.148 303.008 99.034 273.116 91.1805 246.915C83.196 220.276 86.3869 200.038 97.5755 188.849C103.434 182.99 111.774 179.325 122.215 178.308Z" fill="black"/>
<path fill-rule="evenodd" clip-rule="evenodd" d="M209.969 128.18C183.331 120.196 163.093 123.387 151.904 134.575C146.054 140.425 142.391 148.749 141.368 159.168C147.933 160.035 154.624 161.514 161.316 163.52C172.237 166.793 183.521 171.552 194.847 177.675C198.057 174.108 201.397 170.585 204.863 167.12C215.255 156.728 226.154 147.465 237.249 139.449C227.91 134.582 218.733 130.807 209.969 128.18ZM255.944 127.221C242.358 119.233 228.74 113.171 215.645 109.246C186.173 100.412 156.717 101.808 137.927 120.598C127.818 130.707 122.743 143.903 121.588 158.528C106.939 159.675 93.7211 164.749 83.5983 174.872C64.8081 193.662 63.412 223.118 72.246 252.59C81.2108 282.499 101.32 315.133 130.067 343.88C158.814 372.627 191.449 392.737 221.357 401.701C232.534 405.051 243.708 406.93 254.298 406.947C265.826 407.349 278.132 405.444 290.441 401.754C320.35 392.789 352.984 372.68 381.731 343.933C410.478 315.186 430.588 282.551 439.552 252.643C448.386 223.17 446.99 193.715 428.2 174.925C418.077 164.802 404.859 159.727 390.21 158.581C389.055 143.956 383.98 130.76 373.871 120.651C355.081 101.861 325.626 100.465 296.153 109.299C283.087 113.215 269.5 119.259 255.944 127.221ZM255.939 150.537C243.372 158.897 230.809 169.128 218.84 181.097C216.538 183.399 214.3 185.724 212.127 188.066C226.005 197.264 239.698 208.432 252.607 221.341C253.726 222.46 254.832 223.585 255.925 224.715C257.001 223.602 258.09 222.495 259.192 221.393C272.119 208.466 285.833 197.285 299.732 188.079C297.54 185.714 295.282 183.368 292.958 181.044C281.014 169.1 268.479 158.888 255.939 150.537ZM317.016 177.693C313.786 174.102 310.424 170.556 306.935 167.067C296.57 156.702 285.7 147.46 274.634 139.458C283.944 134.612 293.092 130.852 301.829 128.233C328.467 120.249 348.706 123.439 359.894 134.628C365.744 140.478 369.408 148.802 370.431 159.221C363.865 160.088 357.174 161.566 350.482 163.572C339.582 166.839 328.32 171.587 317.016 177.693ZM312.69 203.221C299.318 211.863 285.907 222.632 273.169 235.37C271.815 236.724 270.484 238.085 269.175 239.453C282.27 255.137 292.875 271.511 300.632 287.634C304.952 283.868 309.226 279.882 313.426 275.682C323.095 266.012 331.63 255.955 338.961 245.822C332.683 231.892 323.862 217.403 312.69 203.221ZM351.476 226.463C345.587 215.335 338.374 204.152 329.954 193.219C338.922 188.62 347.731 185.033 356.158 182.507C360.792 181.118 365.233 180.067 369.467 179.337C368.737 183.585 367.684 188.042 366.289 192.693C363.056 203.48 358.084 214.892 351.476 226.463ZM346.926 267.944C340.961 275.351 334.441 282.621 327.403 289.659C321.278 295.784 314.976 301.517 308.562 306.834C309.23 308.776 309.852 310.709 310.428 312.631C312.44 319.343 313.921 326.055 314.787 332.639C325.228 331.623 333.568 327.957 339.427 322.098C350.061 311.464 353.471 292.654 346.926 267.944ZM315.414 352.419C330.063 351.273 343.281 346.198 353.404 336.075C372.194 317.285 373.59 287.83 364.756 258.357C363.751 255.003 362.605 251.614 361.323 248.2C372.28 231.489 380.379 214.531 385.224 198.369C387.236 191.657 388.717 184.945 389.583 178.361C400.024 179.377 408.364 183.043 414.223 188.902C425.411 200.09 428.602 220.329 420.618 246.967C412.764 273.169 394.65 303.06 367.754 329.956C349.521 348.189 329.91 362.387 311.006 372.088C313.437 365.971 314.866 359.356 315.414 352.419ZM294.671 331.663C294.007 327.801 293.076 323.766 291.865 319.569C287.666 322.504 283.444 325.259 279.215 327.829C279.933 328.058 280.649 328.28 281.362 328.493C285.996 329.882 290.437 330.933 294.671 331.663ZM255.958 340.07C262.617 343.027 269.215 345.488 275.686 347.428C282.378 349.434 289.069 350.912 295.635 351.779C294.612 362.198 290.948 370.522 285.098 376.372C278.213 383.257 267.9 387.114 254.777 387.201C242.72 386.711 233.188 382.913 226.7 376.425C220.85 370.575 217.187 362.251 216.164 351.832C222.729 350.965 229.42 349.486 236.112 347.48C242.621 345.529 249.259 343.051 255.958 340.07ZM255.951 318.185C265.453 313.362 275.141 307.399 284.749 300.355C278.015 285.347 268.326 269.682 255.921 254.448C243.517 269.672 233.825 285.327 227.085 300.329C236.716 307.387 246.427 313.359 255.951 318.185ZM219.959 319.534C224.187 322.489 228.438 325.261 232.697 327.846C231.941 328.088 231.187 328.321 230.437 328.546C225.802 329.935 221.361 330.986 217.128 331.715C217.796 327.827 218.735 323.763 219.959 319.534ZM211.202 287.613C218.966 271.494 229.573 255.127 242.67 239.449C241.346 238.065 239.999 236.688 238.629 235.318C225.908 222.597 212.517 211.84 199.163 203.204C187.983 217.386 179.153 231.877 172.867 245.81C180.191 255.929 188.716 265.973 198.373 275.63C202.584 279.841 206.869 283.837 211.202 287.613ZM164.893 267.917C170.853 275.315 177.366 282.577 184.396 289.607C190.53 295.741 196.841 301.481 203.264 306.804C202.586 308.775 201.955 310.735 201.371 312.684C199.359 319.396 197.877 326.107 197.011 332.692C186.57 331.675 178.23 328.01 172.372 322.151C161.726 311.505 158.321 292.666 164.893 267.917ZM160.351 226.461C166.249 215.325 173.471 204.135 181.903 193.197C172.915 188.583 164.086 184.985 155.641 182.454C151.006 181.065 146.565 180.014 142.332 179.285C143.061 183.532 144.115 187.989 145.509 192.641C148.747 203.443 153.729 214.873 160.351 226.461ZM122.215 178.308C123.081 184.893 124.563 191.604 126.575 198.316C131.423 214.491 139.53 231.463 150.501 248.186C149.208 251.622 148.054 255.034 147.042 258.41C138.208 287.882 139.604 317.338 158.394 336.128C168.517 346.251 181.735 351.325 196.384 352.472C196.928 359.359 198.341 365.928 200.74 372.008C181.852 362.308 162.261 348.12 144.044 329.903C117.148 303.008 99.034 273.116 91.1805 246.915C83.196 220.276 86.3869 200.038 97.5755 188.849C103.434 182.99 111.774 179.325 122.215 178.308Z" stroke="black" stroke-width="3.61996" mask="url(#path-2-outside-1_601_20)"/>
</svg>
