<svg xmlns="http://www.w3.org/2000/svg" version="1.1" xmlns:xlink="http://www.w3.org/1999/xlink" width="1000" height="1000"><g clip-path="url(#SvgjsClipPath1145)"><rect width="1000" height="1000" fill="#ffffff"></rect><g transform="matrix(1.8957345971563981,0,0,1.8957345971563981,100,178.67298578199052)"><svg xmlns="http://www.w3.org/2000/svg" version="1.1" xmlns:xlink="http://www.w3.org/1999/xlink" width="422" height="339"><svg width="422" height="339" viewBox="0 0 422 339" fill="none" xmlns="http://www.w3.org/2000/svg">
<path fill-rule="evenodd" clip-rule="evenodd" d="M160.249 28.8137C130.814 19.991 108.451 23.5169 96.0874 35.8801C89.6233 42.3442 85.5751 51.542 84.4446 63.0548C91.6995 64.013 99.0931 65.6466 106.488 67.863C118.555 71.48 131.024 76.7388 143.538 83.5045C147.085 79.5627 150.776 75.6706 154.606 71.8409C166.089 60.3584 178.132 50.1231 190.392 41.2658C180.073 35.8874 169.933 31.7163 160.249 28.8137ZM211.05 27.7532C196.038 18.9268 180.99 12.2287 166.52 7.89137C133.954 -1.86999 101.406 -0.327303 80.6428 20.4355C69.4724 31.6059 63.8652 46.1873 62.5884 62.3476C46.4018 63.6143 31.7959 69.2216 20.6104 80.4072C-0.152439 101.17 -1.69513 133.718 8.06624 166.284C17.9722 199.333 40.1926 235.394 71.9576 267.159C103.723 298.924 139.784 321.144 172.832 331.05C185.182 334.752 197.529 336.828 209.232 336.847C221.969 337.29 235.567 335.185 249.168 331.109C282.217 321.203 318.278 298.982 350.043 267.217C381.808 235.452 404.029 199.391 413.935 166.342C423.696 133.776 422.153 101.228 401.39 80.4653C390.205 69.2798 375.599 63.6725 359.412 62.4057C358.136 46.2454 352.528 31.664 341.358 20.4936C320.595 -0.269182 288.047 -1.81187 255.481 7.9495C241.042 12.2773 226.029 18.9555 211.05 27.7532ZM211.044 53.517C197.158 62.7554 183.277 74.0596 170.051 87.2855C167.507 89.8297 165.033 92.3983 162.632 94.9864C177.967 105.151 193.098 117.49 207.362 131.754C208.599 132.991 209.821 134.234 211.029 135.483C212.218 134.254 213.421 133.03 214.639 131.813C228.924 117.528 244.077 105.173 259.435 95.0003C257.013 92.3878 254.518 89.7952 251.95 87.2274C238.752 74.0292 224.901 62.7447 211.044 53.517ZM278.533 83.5246C274.964 79.5561 271.25 75.6378 267.395 71.7827C255.941 60.3294 243.93 50.117 231.702 41.2752C241.989 35.9204 252.097 31.7657 261.752 28.8718C291.187 20.0492 313.55 23.575 325.913 35.9383C332.377 42.4023 336.426 51.6001 337.556 63.113C330.301 64.0711 322.908 65.7047 315.513 67.9211C303.469 71.5314 291.024 76.7772 278.533 83.5246ZM273.754 111.733C258.978 121.282 244.159 133.181 230.083 147.257C228.588 148.753 227.117 150.257 225.67 151.768C240.14 169.099 251.858 187.191 260.429 205.008C265.204 200.846 269.925 196.442 274.566 191.801C285.251 181.116 294.682 170.003 302.782 158.806C295.845 143.413 286.098 127.403 273.754 111.733ZM316.611 137.414C310.104 125.118 302.134 112.761 292.83 100.681C302.739 95.5984 312.473 91.6345 321.784 88.8435C326.906 87.3084 331.813 86.1472 336.491 85.3413C335.685 90.0347 334.521 94.9593 332.98 100.1C329.407 112.019 323.913 124.629 316.611 137.414ZM311.584 183.25C304.992 191.435 297.788 199.469 290.011 207.246C283.243 214.014 276.28 220.348 269.192 226.223C269.93 228.369 270.617 230.505 271.254 232.629C273.477 240.046 275.114 247.462 276.071 254.738C287.608 253.614 296.823 249.564 303.297 243.09C315.048 231.339 318.815 210.554 311.584 183.25ZM276.764 276.594C292.95 275.327 307.556 269.72 318.742 258.535C339.505 237.772 341.047 205.224 331.286 172.657C330.175 168.951 328.909 165.206 327.492 161.434C339.6 142.969 348.549 124.23 353.902 106.371C356.125 98.9539 357.762 91.538 358.719 84.262C370.256 85.3854 379.472 89.4361 385.946 95.9099C398.309 108.273 401.835 130.637 393.012 160.071C384.334 189.024 364.318 222.053 334.599 251.773C314.451 271.92 292.782 287.609 271.893 298.328C274.579 291.569 276.158 284.259 276.764 276.594ZM253.842 253.659C253.109 249.392 252.081 244.933 250.742 240.296C246.102 243.538 241.437 246.583 236.764 249.423C237.558 249.676 238.348 249.92 239.136 250.156C244.257 251.691 249.165 252.853 253.842 253.659ZM211.066 262.948C218.424 266.216 225.715 268.936 232.865 271.079C240.259 273.295 247.653 274.929 254.908 275.887C253.777 287.4 249.729 296.598 243.265 303.062C235.657 310.67 224.261 314.931 209.761 315.028C196.437 314.487 185.905 310.289 178.736 303.12C172.272 296.656 168.224 287.458 167.093 275.945C174.348 274.987 181.742 273.353 189.136 271.137C196.328 268.981 203.663 266.242 211.066 262.948ZM211.058 238.766C221.558 233.437 232.262 226.848 242.879 219.064C235.438 202.48 224.732 185.171 211.024 168.337C197.318 185.16 186.609 202.458 179.161 219.035C189.803 226.834 200.534 233.433 211.058 238.766ZM171.287 240.257C175.959 243.521 180.657 246.585 185.362 249.441C184.527 249.708 183.694 249.966 182.865 250.215C177.744 251.75 172.836 252.911 168.158 253.717C168.896 249.42 169.935 244.929 171.287 240.257ZM161.611 204.984C170.189 187.173 181.911 169.087 196.382 151.764C194.919 150.235 193.431 148.712 191.918 147.199C177.861 133.142 163.064 121.256 148.308 111.714C135.954 127.385 126.198 143.396 119.251 158.792C127.344 169.975 136.764 181.072 147.435 191.743C152.088 196.396 156.823 200.812 161.611 204.984ZM110.44 183.221C117.025 191.395 124.222 199.42 131.99 207.187C138.768 213.965 145.741 220.309 152.84 226.191C152.09 228.368 151.393 230.534 150.747 232.687C148.524 240.104 146.887 247.52 145.93 254.796C134.393 253.673 125.177 249.622 118.704 243.148C106.94 231.385 103.177 210.568 110.44 183.221ZM105.421 137.412C111.938 125.107 119.919 112.742 129.235 100.656C119.304 95.5574 109.548 91.5825 100.216 88.7854C95.095 87.2503 90.1877 86.0891 85.5098 85.2831C86.3161 89.9765 87.4802 94.9012 89.021 100.041C92.5988 111.978 98.1037 124.607 105.421 137.412ZM63.2818 84.2039C64.2387 91.4799 65.8755 98.8958 68.0986 106.313C73.4558 124.185 82.4145 142.939 94.5366 161.418C93.1084 165.215 91.8331 168.985 90.7148 172.716C80.9534 205.282 82.4961 237.83 103.259 258.593C114.444 269.778 129.05 275.386 145.237 276.652C145.838 284.262 147.4 291.522 150.05 298.24C129.179 287.521 107.531 271.844 87.4022 251.714C57.6829 221.995 37.6667 188.965 28.9886 160.013C20.1659 130.578 23.6918 108.215 36.055 95.8518C42.5288 89.378 51.7446 85.3273 63.2818 84.2039Z" fill="black"></path>
<path d="M79.2282 19.0214C100.763 -2.51292 134.246 -3.87013 167.093 5.9755C181.41 10.2668 196.254 16.8325 211.049 25.4374C225.812 16.8609 240.621 10.3159 254.906 6.03409C287.754 -3.81167 321.238 -2.45532 342.772 19.079C353.952 30.2586 359.698 44.6943 361.255 60.5605C377.148 62.1068 391.609 67.855 402.804 79.0507C424.339 100.585 425.696 134.069 415.85 166.917C405.832 200.341 383.409 236.68 351.457 268.632C319.505 300.584 283.167 323.006 249.743 333.024C235.988 337.147 222.178 339.295 209.185 338.846C197.267 338.821 184.74 336.707 172.258 332.966C138.834 322.947 102.495 300.525 70.5427 268.573C38.5905 236.621 16.1685 200.282 6.15009 166.858C-3.69559 134.01 -2.33836 100.527 19.196 78.9931C30.3916 67.7975 44.8519 62.0484 60.7448 60.5019C62.3011 44.6359 68.0488 30.2009 79.2282 19.0214ZM166.519 7.89151C133.953 -1.86973 101.405 -0.327288 80.6423 20.4355C69.472 31.6058 63.8644 46.1873 62.5876 62.3476C46.4013 63.6144 31.7955 69.2217 20.6101 80.4071C-0.152723 101.17 -1.6952 133.718 8.06611 166.284C17.9721 199.333 40.1927 235.394 71.9577 267.159C103.723 298.924 139.783 321.145 172.832 331.051C185.181 334.752 197.529 336.828 209.231 336.847C221.969 337.29 235.567 335.185 249.169 331.108C282.217 321.202 318.278 298.982 350.043 267.218C381.808 235.453 404.028 199.391 413.934 166.343C423.696 133.776 422.153 101.229 401.39 80.4657C390.205 69.2802 375.598 63.672 359.412 62.4052C358.135 46.2453 352.528 31.6642 341.358 20.4941C320.595 -0.26877 288.047 -1.81224 255.48 7.94913C241.042 12.2769 226.028 18.9552 211.049 27.7528C196.038 18.9265 180.989 12.2288 166.519 7.89151ZM211.065 262.948C218.423 266.216 225.714 268.936 232.864 271.079C240.258 273.295 247.652 274.928 254.907 275.887C253.776 287.4 249.728 296.597 243.264 303.061C235.656 310.67 224.261 314.932 209.76 315.028C196.437 314.487 185.905 310.289 178.736 303.12C172.272 296.656 168.223 287.458 167.092 275.945C174.347 274.987 181.741 273.353 189.135 271.137C196.328 268.981 203.663 266.242 211.065 262.948ZM211.065 265.133C203.866 268.299 196.726 270.95 189.71 273.053C182.882 275.099 176.043 276.656 169.3 277.653C170.635 287.9 174.429 295.985 180.15 301.706C186.875 308.43 196.869 312.495 209.802 313.027C223.9 312.923 234.717 308.78 241.85 301.647C247.572 295.926 251.363 287.842 252.698 277.595C245.956 276.598 239.117 275.041 232.29 272.995C225.316 270.905 218.22 268.274 211.065 265.133ZM358.718 84.2616C370.256 85.385 379.472 89.4363 385.946 95.9101C398.309 108.273 401.835 130.637 393.012 160.071C384.334 189.023 364.318 222.053 334.598 251.772C314.451 271.92 292.781 287.609 271.892 298.328C274.578 291.569 276.158 284.259 276.763 276.595C292.95 275.328 307.556 269.721 318.742 258.535C339.505 237.772 341.047 205.224 331.286 172.657C330.175 168.95 328.909 165.206 327.492 161.434C339.6 142.969 348.549 124.23 353.902 106.371C356.125 98.9541 357.761 91.5376 358.718 84.2616ZM63.2819 84.204C64.2389 91.4799 65.8753 98.8957 68.0983 106.312C73.4555 124.185 82.4138 142.939 94.5358 161.418C93.1076 165.215 91.8329 168.985 90.7145 172.716C80.9532 205.282 82.4958 237.83 103.258 258.593C114.444 269.778 129.05 275.385 145.237 276.652C145.838 284.262 147.399 291.522 150.049 298.24C129.179 287.522 107.531 271.844 87.402 251.715C57.6828 221.996 37.6661 188.966 28.988 160.014C20.1653 130.579 23.6912 108.215 36.0544 95.8515C42.5282 89.3777 51.7447 85.3274 63.2819 84.204ZM360.428 86.4687C359.432 93.2333 357.871 100.095 355.818 106.945C350.484 124.742 341.633 143.353 329.716 161.68C331.007 165.172 332.171 168.642 333.202 172.083C343.048 204.931 341.69 238.415 320.156 259.949C308.96 271.145 294.499 276.893 278.606 278.439C278.073 283.872 277.048 289.137 275.481 294.164C294.772 283.654 314.62 268.922 333.184 250.358C362.716 220.826 382.531 188.074 391.096 159.497C399.831 130.356 396.128 108.922 384.531 97.3241C378.8 91.5934 370.7 87.7975 360.428 86.4687ZM61.571 86.411C51.3002 87.74 43.1991 91.5349 37.4684 97.2655C25.871 108.863 22.1694 130.299 30.904 159.439C39.4697 188.016 59.2843 220.769 88.8161 250.301C107.366 268.851 127.198 283.573 146.475 294.082C144.933 289.097 143.921 283.879 143.393 278.497C127.5 276.95 113.04 271.202 101.844 260.007C80.3102 238.472 78.9529 204.989 88.7985 172.142C89.837 168.677 91.0101 165.182 92.3112 161.665C80.3803 143.324 71.5208 124.697 66.1823 106.887C64.1291 100.036 62.5675 93.1755 61.571 86.411ZM110.439 183.221C117.025 191.395 124.222 199.42 131.99 207.187C138.768 213.965 145.741 220.308 152.84 226.19C152.09 228.367 151.392 230.534 150.747 232.687C148.524 240.104 146.887 247.52 145.93 254.796C134.393 253.672 125.177 249.622 118.703 243.148C106.939 231.385 103.177 210.568 110.439 183.221ZM311.584 183.25C318.815 210.554 315.047 231.339 303.297 243.09C296.823 249.564 287.607 253.615 276.07 254.738C275.113 247.462 273.477 240.046 271.254 232.629C270.617 230.505 269.93 228.369 269.192 226.223C276.279 220.348 283.242 214.013 290.01 207.245C297.787 199.468 304.992 191.434 311.584 183.25ZM171.287 240.257C175.958 243.521 180.656 246.585 185.362 249.441C184.526 249.708 183.694 249.966 182.865 250.215C177.744 251.75 172.836 252.911 168.158 253.717C168.896 249.42 169.934 244.929 171.287 240.257ZM250.742 240.296C252.081 244.933 253.109 249.392 253.842 253.659C249.165 252.853 244.257 251.691 239.135 250.156C238.348 249.92 237.557 249.676 236.763 249.423C241.436 246.583 246.103 243.538 250.742 240.296ZM111.415 187.576C105.583 212.66 109.613 231.229 120.118 241.734C125.848 247.465 133.949 251.259 144.219 252.588C145.216 245.824 146.778 238.963 148.831 232.113C149.355 230.366 149.914 228.61 150.505 226.849C143.724 221.176 137.06 215.086 130.576 208.601C123.742 201.768 117.346 194.736 111.415 187.576ZM310.605 187.608C304.669 194.777 298.266 201.818 291.424 208.66C284.95 215.135 278.296 221.214 271.525 226.88C272.105 228.612 272.654 230.337 273.169 232.055C275.222 238.905 276.782 245.766 277.779 252.53C288.051 251.201 296.152 247.407 301.883 241.676C312.375 231.183 316.407 212.647 310.605 187.608ZM172.463 243.499C171.758 246.136 171.157 248.708 170.658 251.214C173.846 250.578 177.143 249.781 180.543 248.809C177.843 247.106 175.149 245.335 172.463 243.499ZM249.563 243.538C246.91 245.352 244.249 247.103 241.583 248.787C244.938 249.742 248.193 250.528 251.341 251.156C250.849 248.681 250.257 246.141 249.563 243.538ZM211.024 168.337C224.732 185.171 235.438 202.48 242.879 219.064C232.262 226.848 221.557 233.436 211.057 238.766C200.534 233.433 189.803 226.834 179.161 219.035C186.608 202.458 197.318 185.16 211.024 168.337ZM211.023 171.523C198.561 187.113 188.704 203.053 181.657 218.375C191.479 225.477 201.358 231.54 211.056 236.517C220.731 231.544 230.584 225.491 240.382 218.404C233.341 203.075 223.487 187.124 211.023 171.523ZM273.754 111.733C286.098 127.403 295.845 143.413 302.782 158.806C294.681 170.003 285.251 181.116 274.566 191.801C269.925 196.442 265.204 200.846 260.429 205.008C251.858 187.192 240.14 169.099 225.67 151.768C227.116 150.257 228.587 148.752 230.083 147.257C244.159 133.181 258.977 121.282 273.754 111.733ZM148.307 111.714C163.063 121.256 177.861 133.142 191.918 147.199C193.431 148.713 194.92 150.235 196.383 151.765C181.911 169.088 170.189 187.173 161.611 204.984C156.823 200.813 152.088 196.397 147.434 191.743C136.764 181.072 127.344 169.974 119.251 158.792C126.197 143.396 135.954 127.384 148.307 111.714ZM273.308 114.41C259.162 123.707 244.989 135.179 231.497 148.672C230.436 149.733 229.386 150.798 228.35 151.867C241.759 168.126 252.774 185.04 261.073 201.774C265.146 198.156 269.179 194.359 273.152 190.387C283.464 180.074 292.593 169.363 300.476 158.57C293.86 144.134 284.749 129.143 273.308 114.41ZM148.751 114.392C137.301 129.125 128.18 144.118 121.555 158.557C129.431 169.334 138.55 180.031 148.848 190.329C152.834 194.315 156.88 198.123 160.966 201.752C169.272 185.023 180.291 168.115 193.701 151.863C192.648 150.776 191.582 149.692 190.504 148.613C177.03 135.139 162.877 123.682 148.751 114.392ZM336.491 85.3417C335.685 90.035 334.52 94.9594 332.979 100.1C329.407 112.018 323.913 124.628 316.611 137.414C310.104 125.118 302.134 112.761 292.83 100.681C302.739 95.5984 312.472 91.6347 321.784 88.8437C326.905 87.3086 331.813 86.1476 336.491 85.3417ZM85.5095 85.2831C90.1873 86.089 95.0951 87.25 100.216 88.7851C109.548 91.5821 119.304 95.5571 129.235 100.655C119.919 112.742 111.937 125.107 105.421 137.412C98.1031 124.607 92.598 111.978 89.0202 100.042C87.4795 94.9016 86.3157 89.9765 85.5095 85.2831ZM211.044 53.5165C224.9 62.7442 238.752 74.0293 251.95 87.2274C254.518 89.7952 257.013 92.3874 259.435 94.9999C244.077 105.172 228.923 117.527 214.638 131.812C213.421 133.03 212.217 134.254 211.028 135.483C209.821 134.234 208.598 132.991 207.362 131.755C193.098 117.491 177.967 105.15 162.633 94.9862C165.033 92.3982 167.506 89.8292 170.05 87.2851C183.276 74.0593 197.158 62.7549 211.044 53.5165ZM88.0104 87.786C88.7561 91.5327 89.7259 95.4297 90.9362 99.4677C94.1718 110.262 99.016 121.66 105.39 133.265C111.269 122.571 118.227 111.862 126.185 101.355C117.09 96.8237 108.177 93.2593 99.6423 90.7011C95.6222 89.4961 91.7417 88.5304 88.0104 87.786ZM333.988 87.8437C330.257 88.588 326.378 89.5549 322.358 90.7597C313.843 93.3119 304.952 96.8651 295.879 101.382C303.824 111.881 310.772 122.581 316.641 133.265C323 121.68 327.834 110.302 331.064 99.5253C332.274 95.4873 333.242 91.5903 333.988 87.8437ZM211.043 55.9237C197.64 64.9482 184.247 75.9176 171.465 88.7001C169.5 90.6644 167.579 92.6436 165.701 94.6347C180.477 104.618 195.029 116.593 208.776 130.34C209.533 131.096 210.282 131.857 211.028 132.618C211.755 131.876 212.487 131.136 213.224 130.398C226.992 116.631 241.567 104.639 256.366 94.6474C254.466 92.6324 252.523 90.6291 250.536 88.6415C237.78 75.8861 224.417 64.9373 211.043 55.9237ZM261.752 28.872C291.186 20.0493 313.55 23.5752 325.913 35.9384C332.377 42.4024 336.426 51.6003 337.556 63.1132C330.302 64.0713 322.908 65.7045 315.513 67.9208C303.469 71.531 291.024 76.777 278.533 83.5243C274.964 79.5559 271.249 75.6381 267.394 71.7831C255.941 60.3299 243.929 50.117 231.702 41.2753C241.989 35.9205 252.097 31.7658 261.752 28.872ZM96.0866 35.8798C108.45 23.5166 130.814 19.9907 160.249 28.8134C169.933 31.716 180.073 35.8872 190.392 41.2655C178.132 50.1228 166.089 60.3583 154.606 71.8407C150.776 75.6704 147.085 79.563 143.538 83.5048C131.023 76.7391 118.554 71.4802 106.487 67.8632C99.0926 65.6468 91.6989 64.0127 84.444 63.0546C85.5746 51.5419 89.6226 42.3438 96.0866 35.8798ZM324.499 37.3525C312.901 25.755 291.467 22.0534 262.326 30.788C253.704 33.3724 244.697 36.985 235.505 41.5829C246.91 50.0346 258.104 59.6637 268.808 70.3681C272.311 73.8705 275.698 77.4262 278.966 81.0233C291.099 74.5745 303.196 69.5257 314.939 66.0058C321.767 63.9593 328.605 62.4012 335.347 61.4042C334.013 51.1573 330.22 43.0738 324.499 37.3525ZM159.674 30.7294C130.534 21.9949 109.099 25.6967 97.5017 37.2939C91.7804 43.0151 87.9869 51.0988 86.652 61.3456C93.395 62.3426 100.233 63.9006 107.061 65.9472C118.827 69.4739 130.948 74.5361 143.104 81.0028C146.351 77.4324 149.715 73.9038 153.192 70.4267C163.926 59.693 175.15 50.0396 186.589 41.5712C177.364 36.9511 168.326 33.3225 159.674 30.7294Z" fill="black"></path>
</svg></svg></g></g><defs><clipPath id="SvgjsClipPath1145"><rect width="1000" height="1000" x="0" y="0" rx="150" ry="150"></rect></clipPath></defs></svg>